%TF.GenerationSoftware,KiCad,Pcbnew,9.0.6*%
%TF.CreationDate,2026-01-20T12:02:53+00:00*%
%TF.ProjectId,OE PyBoard tester,4f452050-7942-46f6-9172-642074657374,rev?*%
%TF.SameCoordinates,Original*%
%TF.FileFunction,Drillmap*%
%TF.FilePolarity,Positive*%
%FSLAX45Y45*%
G04 Gerber Fmt 4.5, Leading zero omitted, Abs format (unit mm)*
G04 Created by KiCad (PCBNEW 9.0.6) date 2026-01-20 12:02:53*
%MOMM*%
%LPD*%
G01*
G04 APERTURE LIST*
%ADD10C,0.500000*%
%ADD11C,0.200000*%
%ADD12C,0.100000*%
G04 APERTURE END LIST*
D10*
X19735000Y-3870000D02*
X19735000Y-14940000D01*
X8580000Y-15140000D02*
G75*
G02*
X8380000Y-14940000I0J200000D01*
G01*
X8579252Y-3671421D02*
X19525000Y-3670000D01*
X19535000Y-15140000D02*
X8580000Y-15140000D01*
X19525000Y-3670000D02*
G75*
G02*
X19734998Y-3870000I9760J-200000D01*
G01*
X8380000Y-14940000D02*
X8380000Y-3871421D01*
X19735000Y-14940000D02*
G75*
G02*
X19535000Y-15140000I-200000J0D01*
G01*
X8380000Y-3871421D02*
G75*
G02*
X8580000Y-3671420I200000J1D01*
G01*
D11*
D12*
X19074500Y-13373500D02*
X19139500Y-13438500D01*
X19139500Y-13373500D02*
X19074500Y-13438500D01*
X19074500Y-13951500D02*
X19139500Y-14016500D01*
X19139500Y-13951500D02*
X19074500Y-14016500D01*
D11*
X8615777Y-15476484D02*
X8615777Y-15276484D01*
X8615777Y-15276484D02*
X8663396Y-15276484D01*
X8663396Y-15276484D02*
X8691967Y-15286008D01*
X8691967Y-15286008D02*
X8711015Y-15305055D01*
X8711015Y-15305055D02*
X8720539Y-15324103D01*
X8720539Y-15324103D02*
X8730063Y-15362198D01*
X8730063Y-15362198D02*
X8730063Y-15390769D01*
X8730063Y-15390769D02*
X8720539Y-15428865D01*
X8720539Y-15428865D02*
X8711015Y-15447912D01*
X8711015Y-15447912D02*
X8691967Y-15466960D01*
X8691967Y-15466960D02*
X8663396Y-15476484D01*
X8663396Y-15476484D02*
X8615777Y-15476484D01*
X8815777Y-15476484D02*
X8815777Y-15343150D01*
X8815777Y-15381246D02*
X8825301Y-15362198D01*
X8825301Y-15362198D02*
X8834824Y-15352674D01*
X8834824Y-15352674D02*
X8853872Y-15343150D01*
X8853872Y-15343150D02*
X8872920Y-15343150D01*
X8939586Y-15476484D02*
X8939586Y-15343150D01*
X8939586Y-15276484D02*
X8930063Y-15286008D01*
X8930063Y-15286008D02*
X8939586Y-15295531D01*
X8939586Y-15295531D02*
X8949110Y-15286008D01*
X8949110Y-15286008D02*
X8939586Y-15276484D01*
X8939586Y-15276484D02*
X8939586Y-15295531D01*
X9063396Y-15476484D02*
X9044348Y-15466960D01*
X9044348Y-15466960D02*
X9034824Y-15447912D01*
X9034824Y-15447912D02*
X9034824Y-15276484D01*
X9168158Y-15476484D02*
X9149110Y-15466960D01*
X9149110Y-15466960D02*
X9139586Y-15447912D01*
X9139586Y-15447912D02*
X9139586Y-15276484D01*
X9396729Y-15476484D02*
X9396729Y-15276484D01*
X9396729Y-15276484D02*
X9463396Y-15419341D01*
X9463396Y-15419341D02*
X9530063Y-15276484D01*
X9530063Y-15276484D02*
X9530063Y-15476484D01*
X9711015Y-15476484D02*
X9711015Y-15371722D01*
X9711015Y-15371722D02*
X9701491Y-15352674D01*
X9701491Y-15352674D02*
X9682444Y-15343150D01*
X9682444Y-15343150D02*
X9644348Y-15343150D01*
X9644348Y-15343150D02*
X9625301Y-15352674D01*
X9711015Y-15466960D02*
X9691967Y-15476484D01*
X9691967Y-15476484D02*
X9644348Y-15476484D01*
X9644348Y-15476484D02*
X9625301Y-15466960D01*
X9625301Y-15466960D02*
X9615777Y-15447912D01*
X9615777Y-15447912D02*
X9615777Y-15428865D01*
X9615777Y-15428865D02*
X9625301Y-15409817D01*
X9625301Y-15409817D02*
X9644348Y-15400293D01*
X9644348Y-15400293D02*
X9691967Y-15400293D01*
X9691967Y-15400293D02*
X9711015Y-15390769D01*
X9806253Y-15343150D02*
X9806253Y-15543150D01*
X9806253Y-15352674D02*
X9825301Y-15343150D01*
X9825301Y-15343150D02*
X9863396Y-15343150D01*
X9863396Y-15343150D02*
X9882444Y-15352674D01*
X9882444Y-15352674D02*
X9891967Y-15362198D01*
X9891967Y-15362198D02*
X9901491Y-15381246D01*
X9901491Y-15381246D02*
X9901491Y-15438388D01*
X9901491Y-15438388D02*
X9891967Y-15457436D01*
X9891967Y-15457436D02*
X9882444Y-15466960D01*
X9882444Y-15466960D02*
X9863396Y-15476484D01*
X9863396Y-15476484D02*
X9825301Y-15476484D01*
X9825301Y-15476484D02*
X9806253Y-15466960D01*
X9987205Y-15457436D02*
X9996729Y-15466960D01*
X9996729Y-15466960D02*
X9987205Y-15476484D01*
X9987205Y-15476484D02*
X9977682Y-15466960D01*
X9977682Y-15466960D02*
X9987205Y-15457436D01*
X9987205Y-15457436D02*
X9987205Y-15476484D01*
X9987205Y-15352674D02*
X9996729Y-15362198D01*
X9996729Y-15362198D02*
X9987205Y-15371722D01*
X9987205Y-15371722D02*
X9977682Y-15362198D01*
X9977682Y-15362198D02*
X9987205Y-15352674D01*
X9987205Y-15352674D02*
X9987205Y-15371722D01*
D12*
X8290000Y-15772500D02*
X8355000Y-15837500D01*
X8355000Y-15772500D02*
X8290000Y-15837500D01*
D11*
X8653872Y-15696484D02*
X8672920Y-15696484D01*
X8672920Y-15696484D02*
X8691967Y-15706008D01*
X8691967Y-15706008D02*
X8701491Y-15715531D01*
X8701491Y-15715531D02*
X8711015Y-15734579D01*
X8711015Y-15734579D02*
X8720539Y-15772674D01*
X8720539Y-15772674D02*
X8720539Y-15820293D01*
X8720539Y-15820293D02*
X8711015Y-15858388D01*
X8711015Y-15858388D02*
X8701491Y-15877436D01*
X8701491Y-15877436D02*
X8691967Y-15886960D01*
X8691967Y-15886960D02*
X8672920Y-15896484D01*
X8672920Y-15896484D02*
X8653872Y-15896484D01*
X8653872Y-15896484D02*
X8634824Y-15886960D01*
X8634824Y-15886960D02*
X8625301Y-15877436D01*
X8625301Y-15877436D02*
X8615777Y-15858388D01*
X8615777Y-15858388D02*
X8606253Y-15820293D01*
X8606253Y-15820293D02*
X8606253Y-15772674D01*
X8606253Y-15772674D02*
X8615777Y-15734579D01*
X8615777Y-15734579D02*
X8625301Y-15715531D01*
X8625301Y-15715531D02*
X8634824Y-15706008D01*
X8634824Y-15706008D02*
X8653872Y-15696484D01*
X8806253Y-15877436D02*
X8815777Y-15886960D01*
X8815777Y-15886960D02*
X8806253Y-15896484D01*
X8806253Y-15896484D02*
X8796729Y-15886960D01*
X8796729Y-15886960D02*
X8806253Y-15877436D01*
X8806253Y-15877436D02*
X8806253Y-15896484D01*
X8987205Y-15696484D02*
X8949110Y-15696484D01*
X8949110Y-15696484D02*
X8930063Y-15706008D01*
X8930063Y-15706008D02*
X8920539Y-15715531D01*
X8920539Y-15715531D02*
X8901491Y-15744103D01*
X8901491Y-15744103D02*
X8891967Y-15782198D01*
X8891967Y-15782198D02*
X8891967Y-15858388D01*
X8891967Y-15858388D02*
X8901491Y-15877436D01*
X8901491Y-15877436D02*
X8911015Y-15886960D01*
X8911015Y-15886960D02*
X8930063Y-15896484D01*
X8930063Y-15896484D02*
X8968158Y-15896484D01*
X8968158Y-15896484D02*
X8987205Y-15886960D01*
X8987205Y-15886960D02*
X8996729Y-15877436D01*
X8996729Y-15877436D02*
X9006253Y-15858388D01*
X9006253Y-15858388D02*
X9006253Y-15810769D01*
X9006253Y-15810769D02*
X8996729Y-15791722D01*
X8996729Y-15791722D02*
X8987205Y-15782198D01*
X8987205Y-15782198D02*
X8968158Y-15772674D01*
X8968158Y-15772674D02*
X8930063Y-15772674D01*
X8930063Y-15772674D02*
X8911015Y-15782198D01*
X8911015Y-15782198D02*
X8901491Y-15791722D01*
X8901491Y-15791722D02*
X8891967Y-15810769D01*
X9187205Y-15696484D02*
X9091967Y-15696484D01*
X9091967Y-15696484D02*
X9082444Y-15791722D01*
X9082444Y-15791722D02*
X9091967Y-15782198D01*
X9091967Y-15782198D02*
X9111015Y-15772674D01*
X9111015Y-15772674D02*
X9158634Y-15772674D01*
X9158634Y-15772674D02*
X9177682Y-15782198D01*
X9177682Y-15782198D02*
X9187205Y-15791722D01*
X9187205Y-15791722D02*
X9196729Y-15810769D01*
X9196729Y-15810769D02*
X9196729Y-15858388D01*
X9196729Y-15858388D02*
X9187205Y-15877436D01*
X9187205Y-15877436D02*
X9177682Y-15886960D01*
X9177682Y-15886960D02*
X9158634Y-15896484D01*
X9158634Y-15896484D02*
X9111015Y-15896484D01*
X9111015Y-15896484D02*
X9091967Y-15886960D01*
X9091967Y-15886960D02*
X9082444Y-15877436D01*
X9320539Y-15696484D02*
X9339586Y-15696484D01*
X9339586Y-15696484D02*
X9358634Y-15706008D01*
X9358634Y-15706008D02*
X9368158Y-15715531D01*
X9368158Y-15715531D02*
X9377682Y-15734579D01*
X9377682Y-15734579D02*
X9387205Y-15772674D01*
X9387205Y-15772674D02*
X9387205Y-15820293D01*
X9387205Y-15820293D02*
X9377682Y-15858388D01*
X9377682Y-15858388D02*
X9368158Y-15877436D01*
X9368158Y-15877436D02*
X9358634Y-15886960D01*
X9358634Y-15886960D02*
X9339586Y-15896484D01*
X9339586Y-15896484D02*
X9320539Y-15896484D01*
X9320539Y-15896484D02*
X9301491Y-15886960D01*
X9301491Y-15886960D02*
X9291967Y-15877436D01*
X9291967Y-15877436D02*
X9282444Y-15858388D01*
X9282444Y-15858388D02*
X9272920Y-15820293D01*
X9272920Y-15820293D02*
X9272920Y-15772674D01*
X9272920Y-15772674D02*
X9282444Y-15734579D01*
X9282444Y-15734579D02*
X9291967Y-15715531D01*
X9291967Y-15715531D02*
X9301491Y-15706008D01*
X9301491Y-15706008D02*
X9320539Y-15696484D01*
X9472920Y-15896484D02*
X9472920Y-15763150D01*
X9472920Y-15782198D02*
X9482444Y-15772674D01*
X9482444Y-15772674D02*
X9501491Y-15763150D01*
X9501491Y-15763150D02*
X9530063Y-15763150D01*
X9530063Y-15763150D02*
X9549110Y-15772674D01*
X9549110Y-15772674D02*
X9558634Y-15791722D01*
X9558634Y-15791722D02*
X9558634Y-15896484D01*
X9558634Y-15791722D02*
X9568158Y-15772674D01*
X9568158Y-15772674D02*
X9587205Y-15763150D01*
X9587205Y-15763150D02*
X9615777Y-15763150D01*
X9615777Y-15763150D02*
X9634825Y-15772674D01*
X9634825Y-15772674D02*
X9644348Y-15791722D01*
X9644348Y-15791722D02*
X9644348Y-15896484D01*
X9739586Y-15896484D02*
X9739586Y-15763150D01*
X9739586Y-15782198D02*
X9749110Y-15772674D01*
X9749110Y-15772674D02*
X9768158Y-15763150D01*
X9768158Y-15763150D02*
X9796729Y-15763150D01*
X9796729Y-15763150D02*
X9815777Y-15772674D01*
X9815777Y-15772674D02*
X9825301Y-15791722D01*
X9825301Y-15791722D02*
X9825301Y-15896484D01*
X9825301Y-15791722D02*
X9834825Y-15772674D01*
X9834825Y-15772674D02*
X9853872Y-15763150D01*
X9853872Y-15763150D02*
X9882444Y-15763150D01*
X9882444Y-15763150D02*
X9901491Y-15772674D01*
X9901491Y-15772674D02*
X9911015Y-15791722D01*
X9911015Y-15791722D02*
X9911015Y-15896484D01*
X10301491Y-15686960D02*
X10130063Y-15944103D01*
X10558634Y-15696484D02*
X10577682Y-15696484D01*
X10577682Y-15696484D02*
X10596729Y-15706008D01*
X10596729Y-15706008D02*
X10606253Y-15715531D01*
X10606253Y-15715531D02*
X10615777Y-15734579D01*
X10615777Y-15734579D02*
X10625301Y-15772674D01*
X10625301Y-15772674D02*
X10625301Y-15820293D01*
X10625301Y-15820293D02*
X10615777Y-15858388D01*
X10615777Y-15858388D02*
X10606253Y-15877436D01*
X10606253Y-15877436D02*
X10596729Y-15886960D01*
X10596729Y-15886960D02*
X10577682Y-15896484D01*
X10577682Y-15896484D02*
X10558634Y-15896484D01*
X10558634Y-15896484D02*
X10539587Y-15886960D01*
X10539587Y-15886960D02*
X10530063Y-15877436D01*
X10530063Y-15877436D02*
X10520539Y-15858388D01*
X10520539Y-15858388D02*
X10511015Y-15820293D01*
X10511015Y-15820293D02*
X10511015Y-15772674D01*
X10511015Y-15772674D02*
X10520539Y-15734579D01*
X10520539Y-15734579D02*
X10530063Y-15715531D01*
X10530063Y-15715531D02*
X10539587Y-15706008D01*
X10539587Y-15706008D02*
X10558634Y-15696484D01*
X10711015Y-15877436D02*
X10720539Y-15886960D01*
X10720539Y-15886960D02*
X10711015Y-15896484D01*
X10711015Y-15896484D02*
X10701491Y-15886960D01*
X10701491Y-15886960D02*
X10711015Y-15877436D01*
X10711015Y-15877436D02*
X10711015Y-15896484D01*
X10844348Y-15696484D02*
X10863396Y-15696484D01*
X10863396Y-15696484D02*
X10882444Y-15706008D01*
X10882444Y-15706008D02*
X10891968Y-15715531D01*
X10891968Y-15715531D02*
X10901491Y-15734579D01*
X10901491Y-15734579D02*
X10911015Y-15772674D01*
X10911015Y-15772674D02*
X10911015Y-15820293D01*
X10911015Y-15820293D02*
X10901491Y-15858388D01*
X10901491Y-15858388D02*
X10891968Y-15877436D01*
X10891968Y-15877436D02*
X10882444Y-15886960D01*
X10882444Y-15886960D02*
X10863396Y-15896484D01*
X10863396Y-15896484D02*
X10844348Y-15896484D01*
X10844348Y-15896484D02*
X10825301Y-15886960D01*
X10825301Y-15886960D02*
X10815777Y-15877436D01*
X10815777Y-15877436D02*
X10806253Y-15858388D01*
X10806253Y-15858388D02*
X10796729Y-15820293D01*
X10796729Y-15820293D02*
X10796729Y-15772674D01*
X10796729Y-15772674D02*
X10806253Y-15734579D01*
X10806253Y-15734579D02*
X10815777Y-15715531D01*
X10815777Y-15715531D02*
X10825301Y-15706008D01*
X10825301Y-15706008D02*
X10844348Y-15696484D01*
X10987206Y-15715531D02*
X10996729Y-15706008D01*
X10996729Y-15706008D02*
X11015777Y-15696484D01*
X11015777Y-15696484D02*
X11063396Y-15696484D01*
X11063396Y-15696484D02*
X11082444Y-15706008D01*
X11082444Y-15706008D02*
X11091968Y-15715531D01*
X11091968Y-15715531D02*
X11101491Y-15734579D01*
X11101491Y-15734579D02*
X11101491Y-15753627D01*
X11101491Y-15753627D02*
X11091968Y-15782198D01*
X11091968Y-15782198D02*
X10977682Y-15896484D01*
X10977682Y-15896484D02*
X11101491Y-15896484D01*
X11282444Y-15696484D02*
X11187206Y-15696484D01*
X11187206Y-15696484D02*
X11177682Y-15791722D01*
X11177682Y-15791722D02*
X11187206Y-15782198D01*
X11187206Y-15782198D02*
X11206253Y-15772674D01*
X11206253Y-15772674D02*
X11253872Y-15772674D01*
X11253872Y-15772674D02*
X11272920Y-15782198D01*
X11272920Y-15782198D02*
X11282444Y-15791722D01*
X11282444Y-15791722D02*
X11291967Y-15810769D01*
X11291967Y-15810769D02*
X11291967Y-15858388D01*
X11291967Y-15858388D02*
X11282444Y-15877436D01*
X11282444Y-15877436D02*
X11272920Y-15886960D01*
X11272920Y-15886960D02*
X11253872Y-15896484D01*
X11253872Y-15896484D02*
X11206253Y-15896484D01*
X11206253Y-15896484D02*
X11187206Y-15886960D01*
X11187206Y-15886960D02*
X11177682Y-15877436D01*
X11463396Y-15696484D02*
X11425301Y-15696484D01*
X11425301Y-15696484D02*
X11406253Y-15706008D01*
X11406253Y-15706008D02*
X11396729Y-15715531D01*
X11396729Y-15715531D02*
X11377682Y-15744103D01*
X11377682Y-15744103D02*
X11368158Y-15782198D01*
X11368158Y-15782198D02*
X11368158Y-15858388D01*
X11368158Y-15858388D02*
X11377682Y-15877436D01*
X11377682Y-15877436D02*
X11387206Y-15886960D01*
X11387206Y-15886960D02*
X11406253Y-15896484D01*
X11406253Y-15896484D02*
X11444348Y-15896484D01*
X11444348Y-15896484D02*
X11463396Y-15886960D01*
X11463396Y-15886960D02*
X11472920Y-15877436D01*
X11472920Y-15877436D02*
X11482444Y-15858388D01*
X11482444Y-15858388D02*
X11482444Y-15810769D01*
X11482444Y-15810769D02*
X11472920Y-15791722D01*
X11472920Y-15791722D02*
X11463396Y-15782198D01*
X11463396Y-15782198D02*
X11444348Y-15772674D01*
X11444348Y-15772674D02*
X11406253Y-15772674D01*
X11406253Y-15772674D02*
X11387206Y-15782198D01*
X11387206Y-15782198D02*
X11377682Y-15791722D01*
X11377682Y-15791722D02*
X11368158Y-15810769D01*
X11558634Y-15696484D02*
X11558634Y-15734579D01*
X11634825Y-15696484D02*
X11634825Y-15734579D01*
X11930063Y-15972674D02*
X11920539Y-15963150D01*
X11920539Y-15963150D02*
X11901491Y-15934579D01*
X11901491Y-15934579D02*
X11891968Y-15915531D01*
X11891968Y-15915531D02*
X11882444Y-15886960D01*
X11882444Y-15886960D02*
X11872920Y-15839341D01*
X11872920Y-15839341D02*
X11872920Y-15801246D01*
X11872920Y-15801246D02*
X11882444Y-15753627D01*
X11882444Y-15753627D02*
X11891968Y-15725055D01*
X11891968Y-15725055D02*
X11901491Y-15706008D01*
X11901491Y-15706008D02*
X11920539Y-15677436D01*
X11920539Y-15677436D02*
X11930063Y-15667912D01*
X11996729Y-15715531D02*
X12006253Y-15706008D01*
X12006253Y-15706008D02*
X12025301Y-15696484D01*
X12025301Y-15696484D02*
X12072920Y-15696484D01*
X12072920Y-15696484D02*
X12091968Y-15706008D01*
X12091968Y-15706008D02*
X12101491Y-15715531D01*
X12101491Y-15715531D02*
X12111015Y-15734579D01*
X12111015Y-15734579D02*
X12111015Y-15753627D01*
X12111015Y-15753627D02*
X12101491Y-15782198D01*
X12101491Y-15782198D02*
X11987206Y-15896484D01*
X11987206Y-15896484D02*
X12111015Y-15896484D01*
X12349110Y-15896484D02*
X12349110Y-15696484D01*
X12434825Y-15896484D02*
X12434825Y-15791722D01*
X12434825Y-15791722D02*
X12425301Y-15772674D01*
X12425301Y-15772674D02*
X12406253Y-15763150D01*
X12406253Y-15763150D02*
X12377682Y-15763150D01*
X12377682Y-15763150D02*
X12358634Y-15772674D01*
X12358634Y-15772674D02*
X12349110Y-15782198D01*
X12558634Y-15896484D02*
X12539587Y-15886960D01*
X12539587Y-15886960D02*
X12530063Y-15877436D01*
X12530063Y-15877436D02*
X12520539Y-15858388D01*
X12520539Y-15858388D02*
X12520539Y-15801246D01*
X12520539Y-15801246D02*
X12530063Y-15782198D01*
X12530063Y-15782198D02*
X12539587Y-15772674D01*
X12539587Y-15772674D02*
X12558634Y-15763150D01*
X12558634Y-15763150D02*
X12587206Y-15763150D01*
X12587206Y-15763150D02*
X12606253Y-15772674D01*
X12606253Y-15772674D02*
X12615777Y-15782198D01*
X12615777Y-15782198D02*
X12625301Y-15801246D01*
X12625301Y-15801246D02*
X12625301Y-15858388D01*
X12625301Y-15858388D02*
X12615777Y-15877436D01*
X12615777Y-15877436D02*
X12606253Y-15886960D01*
X12606253Y-15886960D02*
X12587206Y-15896484D01*
X12587206Y-15896484D02*
X12558634Y-15896484D01*
X12739587Y-15896484D02*
X12720539Y-15886960D01*
X12720539Y-15886960D02*
X12711015Y-15867912D01*
X12711015Y-15867912D02*
X12711015Y-15696484D01*
X12891968Y-15886960D02*
X12872920Y-15896484D01*
X12872920Y-15896484D02*
X12834825Y-15896484D01*
X12834825Y-15896484D02*
X12815777Y-15886960D01*
X12815777Y-15886960D02*
X12806253Y-15867912D01*
X12806253Y-15867912D02*
X12806253Y-15791722D01*
X12806253Y-15791722D02*
X12815777Y-15772674D01*
X12815777Y-15772674D02*
X12834825Y-15763150D01*
X12834825Y-15763150D02*
X12872920Y-15763150D01*
X12872920Y-15763150D02*
X12891968Y-15772674D01*
X12891968Y-15772674D02*
X12901491Y-15791722D01*
X12901491Y-15791722D02*
X12901491Y-15810769D01*
X12901491Y-15810769D02*
X12806253Y-15829817D01*
X12977682Y-15886960D02*
X12996730Y-15896484D01*
X12996730Y-15896484D02*
X13034825Y-15896484D01*
X13034825Y-15896484D02*
X13053872Y-15886960D01*
X13053872Y-15886960D02*
X13063396Y-15867912D01*
X13063396Y-15867912D02*
X13063396Y-15858388D01*
X13063396Y-15858388D02*
X13053872Y-15839341D01*
X13053872Y-15839341D02*
X13034825Y-15829817D01*
X13034825Y-15829817D02*
X13006253Y-15829817D01*
X13006253Y-15829817D02*
X12987206Y-15820293D01*
X12987206Y-15820293D02*
X12977682Y-15801246D01*
X12977682Y-15801246D02*
X12977682Y-15791722D01*
X12977682Y-15791722D02*
X12987206Y-15772674D01*
X12987206Y-15772674D02*
X13006253Y-15763150D01*
X13006253Y-15763150D02*
X13034825Y-15763150D01*
X13034825Y-15763150D02*
X13053872Y-15772674D01*
X13130063Y-15972674D02*
X13139587Y-15963150D01*
X13139587Y-15963150D02*
X13158634Y-15934579D01*
X13158634Y-15934579D02*
X13168158Y-15915531D01*
X13168158Y-15915531D02*
X13177682Y-15886960D01*
X13177682Y-15886960D02*
X13187206Y-15839341D01*
X13187206Y-15839341D02*
X13187206Y-15801246D01*
X13187206Y-15801246D02*
X13177682Y-15753627D01*
X13177682Y-15753627D02*
X13168158Y-15725055D01*
X13168158Y-15725055D02*
X13158634Y-15706008D01*
X13158634Y-15706008D02*
X13139587Y-15677436D01*
X13139587Y-15677436D02*
X13130063Y-15667912D01*
X13491968Y-15972674D02*
X13482444Y-15963150D01*
X13482444Y-15963150D02*
X13463396Y-15934579D01*
X13463396Y-15934579D02*
X13453872Y-15915531D01*
X13453872Y-15915531D02*
X13444349Y-15886960D01*
X13444349Y-15886960D02*
X13434825Y-15839341D01*
X13434825Y-15839341D02*
X13434825Y-15801246D01*
X13434825Y-15801246D02*
X13444349Y-15753627D01*
X13444349Y-15753627D02*
X13453872Y-15725055D01*
X13453872Y-15725055D02*
X13463396Y-15706008D01*
X13463396Y-15706008D02*
X13482444Y-15677436D01*
X13482444Y-15677436D02*
X13491968Y-15667912D01*
X13568158Y-15763150D02*
X13568158Y-15896484D01*
X13568158Y-15782198D02*
X13577682Y-15772674D01*
X13577682Y-15772674D02*
X13596730Y-15763150D01*
X13596730Y-15763150D02*
X13625301Y-15763150D01*
X13625301Y-15763150D02*
X13644349Y-15772674D01*
X13644349Y-15772674D02*
X13653872Y-15791722D01*
X13653872Y-15791722D02*
X13653872Y-15896484D01*
X13777682Y-15896484D02*
X13758634Y-15886960D01*
X13758634Y-15886960D02*
X13749111Y-15877436D01*
X13749111Y-15877436D02*
X13739587Y-15858388D01*
X13739587Y-15858388D02*
X13739587Y-15801246D01*
X13739587Y-15801246D02*
X13749111Y-15782198D01*
X13749111Y-15782198D02*
X13758634Y-15772674D01*
X13758634Y-15772674D02*
X13777682Y-15763150D01*
X13777682Y-15763150D02*
X13806253Y-15763150D01*
X13806253Y-15763150D02*
X13825301Y-15772674D01*
X13825301Y-15772674D02*
X13834825Y-15782198D01*
X13834825Y-15782198D02*
X13844349Y-15801246D01*
X13844349Y-15801246D02*
X13844349Y-15858388D01*
X13844349Y-15858388D02*
X13834825Y-15877436D01*
X13834825Y-15877436D02*
X13825301Y-15886960D01*
X13825301Y-15886960D02*
X13806253Y-15896484D01*
X13806253Y-15896484D02*
X13777682Y-15896484D01*
X13901492Y-15763150D02*
X13977682Y-15763150D01*
X13930063Y-15696484D02*
X13930063Y-15867912D01*
X13930063Y-15867912D02*
X13939587Y-15886960D01*
X13939587Y-15886960D02*
X13958634Y-15896484D01*
X13958634Y-15896484D02*
X13977682Y-15896484D01*
X14196730Y-15763150D02*
X14196730Y-15963150D01*
X14196730Y-15772674D02*
X14215777Y-15763150D01*
X14215777Y-15763150D02*
X14253873Y-15763150D01*
X14253873Y-15763150D02*
X14272920Y-15772674D01*
X14272920Y-15772674D02*
X14282444Y-15782198D01*
X14282444Y-15782198D02*
X14291968Y-15801246D01*
X14291968Y-15801246D02*
X14291968Y-15858388D01*
X14291968Y-15858388D02*
X14282444Y-15877436D01*
X14282444Y-15877436D02*
X14272920Y-15886960D01*
X14272920Y-15886960D02*
X14253873Y-15896484D01*
X14253873Y-15896484D02*
X14215777Y-15896484D01*
X14215777Y-15896484D02*
X14196730Y-15886960D01*
X14406253Y-15896484D02*
X14387206Y-15886960D01*
X14387206Y-15886960D02*
X14377682Y-15867912D01*
X14377682Y-15867912D02*
X14377682Y-15696484D01*
X14568158Y-15896484D02*
X14568158Y-15791722D01*
X14568158Y-15791722D02*
X14558634Y-15772674D01*
X14558634Y-15772674D02*
X14539587Y-15763150D01*
X14539587Y-15763150D02*
X14501492Y-15763150D01*
X14501492Y-15763150D02*
X14482444Y-15772674D01*
X14568158Y-15886960D02*
X14549111Y-15896484D01*
X14549111Y-15896484D02*
X14501492Y-15896484D01*
X14501492Y-15896484D02*
X14482444Y-15886960D01*
X14482444Y-15886960D02*
X14472920Y-15867912D01*
X14472920Y-15867912D02*
X14472920Y-15848865D01*
X14472920Y-15848865D02*
X14482444Y-15829817D01*
X14482444Y-15829817D02*
X14501492Y-15820293D01*
X14501492Y-15820293D02*
X14549111Y-15820293D01*
X14549111Y-15820293D02*
X14568158Y-15810769D01*
X14634825Y-15763150D02*
X14711015Y-15763150D01*
X14663396Y-15696484D02*
X14663396Y-15867912D01*
X14663396Y-15867912D02*
X14672920Y-15886960D01*
X14672920Y-15886960D02*
X14691968Y-15896484D01*
X14691968Y-15896484D02*
X14711015Y-15896484D01*
X14853873Y-15886960D02*
X14834825Y-15896484D01*
X14834825Y-15896484D02*
X14796730Y-15896484D01*
X14796730Y-15896484D02*
X14777682Y-15886960D01*
X14777682Y-15886960D02*
X14768158Y-15867912D01*
X14768158Y-15867912D02*
X14768158Y-15791722D01*
X14768158Y-15791722D02*
X14777682Y-15772674D01*
X14777682Y-15772674D02*
X14796730Y-15763150D01*
X14796730Y-15763150D02*
X14834825Y-15763150D01*
X14834825Y-15763150D02*
X14853873Y-15772674D01*
X14853873Y-15772674D02*
X14863396Y-15791722D01*
X14863396Y-15791722D02*
X14863396Y-15810769D01*
X14863396Y-15810769D02*
X14768158Y-15829817D01*
X15034825Y-15896484D02*
X15034825Y-15696484D01*
X15034825Y-15886960D02*
X15015777Y-15896484D01*
X15015777Y-15896484D02*
X14977682Y-15896484D01*
X14977682Y-15896484D02*
X14958634Y-15886960D01*
X14958634Y-15886960D02*
X14949111Y-15877436D01*
X14949111Y-15877436D02*
X14939587Y-15858388D01*
X14939587Y-15858388D02*
X14939587Y-15801246D01*
X14939587Y-15801246D02*
X14949111Y-15782198D01*
X14949111Y-15782198D02*
X14958634Y-15772674D01*
X14958634Y-15772674D02*
X14977682Y-15763150D01*
X14977682Y-15763150D02*
X15015777Y-15763150D01*
X15015777Y-15763150D02*
X15034825Y-15772674D01*
X15111015Y-15972674D02*
X15120539Y-15963150D01*
X15120539Y-15963150D02*
X15139587Y-15934579D01*
X15139587Y-15934579D02*
X15149111Y-15915531D01*
X15149111Y-15915531D02*
X15158634Y-15886960D01*
X15158634Y-15886960D02*
X15168158Y-15839341D01*
X15168158Y-15839341D02*
X15168158Y-15801246D01*
X15168158Y-15801246D02*
X15158634Y-15753627D01*
X15158634Y-15753627D02*
X15149111Y-15725055D01*
X15149111Y-15725055D02*
X15139587Y-15706008D01*
X15139587Y-15706008D02*
X15120539Y-15677436D01*
X15120539Y-15677436D02*
X15111015Y-15667912D01*
M02*
