%TF.GenerationSoftware,KiCad,Pcbnew,9.0.6*%
%TF.CreationDate,2026-01-20T12:02:53+00:00*%
%TF.ProjectId,OE PyBoard tester,4f452050-7942-46f6-9172-642074657374,rev?*%
%TF.SameCoordinates,Original*%
%TF.FileFunction,Drillmap*%
%TF.FilePolarity,Positive*%
%FSLAX45Y45*%
G04 Gerber Fmt 4.5, Leading zero omitted, Abs format (unit mm)*
G04 Created by KiCad (PCBNEW 9.0.6) date 2026-01-20 12:02:53*
%MOMM*%
%LPD*%
G01*
G04 APERTURE LIST*
%ADD10C,0.500000*%
%ADD11C,0.200000*%
%ADD12C,0.100000*%
G04 APERTURE END LIST*
D10*
X19735000Y-3870000D02*
X19735000Y-14940000D01*
X8580000Y-15140000D02*
G75*
G02*
X8380000Y-14940000I0J200000D01*
G01*
X8579252Y-3671421D02*
X19525000Y-3670000D01*
X19535000Y-15140000D02*
X8580000Y-15140000D01*
X19525000Y-3670000D02*
G75*
G02*
X19734998Y-3870000I9760J-200000D01*
G01*
X8380000Y-14940000D02*
X8380000Y-3871421D01*
X19735000Y-14940000D02*
G75*
G02*
X19535000Y-15140000I-200000J0D01*
G01*
X8380000Y-3871421D02*
G75*
G02*
X8580000Y-3671420I200000J1D01*
G01*
D11*
D12*
X8606500Y-14929000D02*
X8628500Y-14951000D01*
X8628500Y-14929000D02*
X8606500Y-14951000D01*
X8651500Y-6459000D02*
X8673500Y-6481000D01*
X8673500Y-6459000D02*
X8651500Y-6481000D01*
X8658447Y-3955400D02*
X8680447Y-3977400D01*
X8680447Y-3955400D02*
X8658447Y-3977400D01*
X8671500Y-10459000D02*
X8693500Y-10481000D01*
X8693500Y-10459000D02*
X8671500Y-10481000D01*
X8681500Y-8421500D02*
X8703500Y-8443500D01*
X8703500Y-8421500D02*
X8681500Y-8443500D01*
X8694000Y-5356500D02*
X8716000Y-5378500D01*
X8716000Y-5356500D02*
X8694000Y-5378500D01*
X8751500Y-12509000D02*
X8773500Y-12531000D01*
X8773500Y-12509000D02*
X8751500Y-12531000D01*
X9624000Y-7214000D02*
X9646000Y-7236000D01*
X9646000Y-7214000D02*
X9624000Y-7236000D01*
X9631500Y-14011500D02*
X9653500Y-14033500D01*
X9653500Y-14011500D02*
X9631500Y-14033500D01*
X9729000Y-4624000D02*
X9751000Y-4646000D01*
X9751000Y-4624000D02*
X9729000Y-4646000D01*
X9916500Y-9041500D02*
X9938500Y-9063500D01*
X9938500Y-9041500D02*
X9916500Y-9063500D01*
X10064000Y-9996500D02*
X10086000Y-10018500D01*
X10086000Y-9996500D02*
X10064000Y-10018500D01*
X10074000Y-11139000D02*
X10096000Y-11161000D01*
X10096000Y-11139000D02*
X10074000Y-11161000D01*
X10321500Y-3884000D02*
X10343500Y-3906000D01*
X10343500Y-3884000D02*
X10321500Y-3906000D01*
X10434000Y-12419000D02*
X10456000Y-12441000D01*
X10456000Y-12419000D02*
X10434000Y-12441000D01*
X10549000Y-5979000D02*
X10571000Y-6001000D01*
X10571000Y-5979000D02*
X10549000Y-6001000D01*
X10614000Y-8334000D02*
X10636000Y-8356000D01*
X10636000Y-8334000D02*
X10614000Y-8356000D01*
X11139000Y-13429000D02*
X11161000Y-13451000D01*
X11161000Y-13429000D02*
X11139000Y-13451000D01*
X11344000Y-14864000D02*
X11366000Y-14886000D01*
X11366000Y-14864000D02*
X11344000Y-14886000D01*
X11379000Y-4414000D02*
X11401000Y-4436000D01*
X11401000Y-4414000D02*
X11379000Y-4436000D01*
X11389000Y-10079000D02*
X11411000Y-10101000D01*
X11411000Y-10079000D02*
X11389000Y-10101000D01*
X11609000Y-11474000D02*
X11631000Y-11496000D01*
X11631000Y-11474000D02*
X11609000Y-11496000D01*
X11954000Y-9359000D02*
X11976000Y-9381000D01*
X11976000Y-9359000D02*
X11954000Y-9381000D01*
X11989000Y-12724000D02*
X12011000Y-12746000D01*
X12011000Y-12724000D02*
X11989000Y-12746000D01*
X12169000Y-3859000D02*
X12191000Y-3881000D01*
X12191000Y-3859000D02*
X12169000Y-3881000D01*
X12219000Y-11059000D02*
X12241000Y-11081000D01*
X12241000Y-11059000D02*
X12219000Y-11081000D01*
X12239000Y-11294000D02*
X12261000Y-11316000D01*
X12261000Y-11294000D02*
X12239000Y-11316000D01*
X12240000Y-10834000D02*
X12262000Y-10856000D01*
X12262000Y-10834000D02*
X12240000Y-10856000D01*
X12244000Y-10579000D02*
X12266000Y-10601000D01*
X12266000Y-10579000D02*
X12244000Y-10601000D01*
X12248000Y-11709000D02*
X12270000Y-11731000D01*
X12270000Y-11709000D02*
X12248000Y-11731000D01*
X12259000Y-11504000D02*
X12281000Y-11526000D01*
X12281000Y-11504000D02*
X12259000Y-11526000D01*
X12319000Y-5037147D02*
X12341000Y-5059147D01*
X12341000Y-5037147D02*
X12319000Y-5059147D01*
X12334000Y-11779000D02*
X12356000Y-11801000D01*
X12356000Y-11779000D02*
X12334000Y-11801000D01*
X12349000Y-10174000D02*
X12371000Y-10196000D01*
X12371000Y-10174000D02*
X12349000Y-10196000D01*
X12379000Y-8919000D02*
X12401000Y-8941000D01*
X12401000Y-8919000D02*
X12379000Y-8941000D01*
X12379000Y-9459000D02*
X12401000Y-9481000D01*
X12401000Y-9459000D02*
X12379000Y-9481000D01*
X12419000Y-11284000D02*
X12441000Y-11306000D01*
X12441000Y-11284000D02*
X12419000Y-11306000D01*
X12464000Y-10829000D02*
X12486000Y-10851000D01*
X12486000Y-10829000D02*
X12464000Y-10851000D01*
X12464000Y-11489680D02*
X12486000Y-11511680D01*
X12486000Y-11489680D02*
X12464000Y-11511680D01*
X12479000Y-11964000D02*
X12501000Y-11986000D01*
X12501000Y-11964000D02*
X12479000Y-11986000D01*
X12519000Y-10369000D02*
X12541000Y-10391000D01*
X12541000Y-10369000D02*
X12519000Y-10391000D01*
X12949000Y-7394000D02*
X12971000Y-7416000D01*
X12971000Y-7394000D02*
X12949000Y-7416000D01*
X12964000Y-7159000D02*
X12986000Y-7181000D01*
X12986000Y-7159000D02*
X12964000Y-7181000D01*
X13009000Y-6349000D02*
X13031000Y-6371000D01*
X13031000Y-6349000D02*
X13009000Y-6371000D01*
X13029000Y-11884000D02*
X13051000Y-11906000D01*
X13051000Y-11884000D02*
X13029000Y-11906000D01*
X13029000Y-13084000D02*
X13051000Y-13106000D01*
X13051000Y-13084000D02*
X13029000Y-13106000D01*
X13034000Y-11494000D02*
X13056000Y-11516000D01*
X13056000Y-11494000D02*
X13034000Y-11516000D01*
X13034000Y-13619000D02*
X13056000Y-13641000D01*
X13056000Y-13619000D02*
X13034000Y-13641000D01*
X13039000Y-11226800D02*
X13061000Y-11248800D01*
X13061000Y-11226800D02*
X13039000Y-11248800D01*
X13044000Y-12469000D02*
X13066000Y-12491000D01*
X13066000Y-12469000D02*
X13044000Y-12491000D01*
X13074000Y-10549000D02*
X13096000Y-10571000D01*
X13096000Y-10549000D02*
X13074000Y-10571000D01*
X13109000Y-6679000D02*
X13131000Y-6701000D01*
X13131000Y-6679000D02*
X13109000Y-6701000D01*
X13119000Y-13849000D02*
X13141000Y-13871000D01*
X13141000Y-13849000D02*
X13119000Y-13871000D01*
X13169000Y-11889000D02*
X13191000Y-11911000D01*
X13191000Y-11889000D02*
X13169000Y-11911000D01*
X13174000Y-11749000D02*
X13196000Y-11771000D01*
X13196000Y-11749000D02*
X13174000Y-11771000D01*
X13179000Y-13929000D02*
X13201000Y-13951000D01*
X13201000Y-13929000D02*
X13179000Y-13951000D01*
X13184000Y-10819000D02*
X13206000Y-10841000D01*
X13206000Y-10819000D02*
X13184000Y-10841000D01*
X13189000Y-11294680D02*
X13211000Y-11316680D01*
X13211000Y-11294680D02*
X13189000Y-11316680D01*
X13189000Y-11489000D02*
X13211000Y-11511000D01*
X13211000Y-11489000D02*
X13189000Y-11511000D01*
X13190600Y-11974000D02*
X13212600Y-11996000D01*
X13212600Y-11974000D02*
X13190600Y-11996000D01*
X13199000Y-10621500D02*
X13221000Y-10643500D01*
X13221000Y-10621500D02*
X13199000Y-10643500D01*
X13249000Y-12899000D02*
X13271000Y-12921000D01*
X13271000Y-12899000D02*
X13249000Y-12921000D01*
X13256500Y-10379000D02*
X13278500Y-10401000D01*
X13278500Y-10379000D02*
X13256500Y-10401000D01*
X13274000Y-4424000D02*
X13296000Y-4446000D01*
X13296000Y-4424000D02*
X13274000Y-4446000D01*
X13274000Y-13729000D02*
X13296000Y-13751000D01*
X13296000Y-13729000D02*
X13274000Y-13751000D01*
X13289000Y-9064000D02*
X13311000Y-9086000D01*
X13311000Y-9064000D02*
X13289000Y-9086000D01*
X13291500Y-14931500D02*
X13313500Y-14953500D01*
X13313500Y-14931500D02*
X13291500Y-14953500D01*
X13294000Y-8249000D02*
X13316000Y-8271000D01*
X13316000Y-8249000D02*
X13294000Y-8271000D01*
X13294000Y-9754000D02*
X13316000Y-9776000D01*
X13316000Y-9754000D02*
X13294000Y-9776000D01*
X13309000Y-12979000D02*
X13331000Y-13001000D01*
X13331000Y-12979000D02*
X13309000Y-13001000D01*
X13319000Y-7944000D02*
X13341000Y-7966000D01*
X13341000Y-7944000D02*
X13319000Y-7966000D01*
X13319000Y-10494000D02*
X13341000Y-10516000D01*
X13341000Y-10494000D02*
X13319000Y-10516000D01*
X13324000Y-6884000D02*
X13346000Y-6906000D01*
X13346000Y-6884000D02*
X13324000Y-6906000D01*
X13324000Y-13139000D02*
X13346000Y-13161000D01*
X13346000Y-13139000D02*
X13324000Y-13161000D01*
X13325350Y-13539000D02*
X13347350Y-13561000D01*
X13347350Y-13539000D02*
X13325350Y-13561000D01*
X13349000Y-10709000D02*
X13371000Y-10731000D01*
X13371000Y-10709000D02*
X13349000Y-10731000D01*
X13364000Y-6664000D02*
X13386000Y-6686000D01*
X13386000Y-6664000D02*
X13364000Y-6686000D01*
X13384000Y-6159000D02*
X13406000Y-6181000D01*
X13406000Y-6159000D02*
X13384000Y-6181000D01*
X13414000Y-6278480D02*
X13436000Y-6300480D01*
X13436000Y-6278480D02*
X13414000Y-6300480D01*
X13414000Y-12989000D02*
X13436000Y-13011000D01*
X13436000Y-12989000D02*
X13414000Y-13011000D01*
X13474000Y-13409000D02*
X13496000Y-13431000D01*
X13496000Y-13409000D02*
X13474000Y-13431000D01*
X13484000Y-12584000D02*
X13506000Y-12606000D01*
X13506000Y-12584000D02*
X13484000Y-12606000D01*
X13494000Y-13229000D02*
X13516000Y-13251000D01*
X13516000Y-13229000D02*
X13494000Y-13251000D01*
X13504000Y-11919000D02*
X13526000Y-11941000D01*
X13526000Y-11919000D02*
X13504000Y-11941000D01*
X13509000Y-6053480D02*
X13531000Y-6075480D01*
X13531000Y-6053480D02*
X13509000Y-6075480D01*
X13524000Y-13009000D02*
X13546000Y-13031000D01*
X13546000Y-13009000D02*
X13524000Y-13031000D01*
X13559000Y-12814000D02*
X13581000Y-12836000D01*
X13581000Y-12814000D02*
X13559000Y-12836000D01*
X13574000Y-13501500D02*
X13596000Y-13523500D01*
X13596000Y-13501500D02*
X13574000Y-13523500D01*
X13629000Y-5979000D02*
X13651000Y-6001000D01*
X13651000Y-5979000D02*
X13629000Y-6001000D01*
X13639000Y-6669000D02*
X13661000Y-6691000D01*
X13661000Y-6669000D02*
X13639000Y-6691000D01*
X13639000Y-7334000D02*
X13661000Y-7356000D01*
X13661000Y-7334000D02*
X13639000Y-7356000D01*
X13644000Y-8344000D02*
X13666000Y-8366000D01*
X13666000Y-8344000D02*
X13644000Y-8366000D01*
X13664000Y-11469680D02*
X13686000Y-11491680D01*
X13686000Y-11469680D02*
X13664000Y-11491680D01*
X13669000Y-6869000D02*
X13691000Y-6891000D01*
X13691000Y-6869000D02*
X13669000Y-6891000D01*
X13669000Y-10444000D02*
X13691000Y-10466000D01*
X13691000Y-10444000D02*
X13669000Y-10466000D01*
X13674000Y-9404000D02*
X13696000Y-9426000D01*
X13696000Y-9404000D02*
X13674000Y-9426000D01*
X13709000Y-11749000D02*
X13731000Y-11771000D01*
X13731000Y-11749000D02*
X13709000Y-11771000D01*
X13719000Y-13749000D02*
X13741000Y-13771000D01*
X13741000Y-13749000D02*
X13719000Y-13771000D01*
X13769000Y-10686500D02*
X13791000Y-10708500D01*
X13791000Y-10686500D02*
X13769000Y-10708500D01*
X13824000Y-12974000D02*
X13846000Y-12996000D01*
X13846000Y-12974000D02*
X13824000Y-12996000D01*
X13824000Y-13164000D02*
X13846000Y-13186000D01*
X13846000Y-13164000D02*
X13824000Y-13186000D01*
X13824000Y-13349000D02*
X13846000Y-13371000D01*
X13846000Y-13349000D02*
X13824000Y-13371000D01*
X13834000Y-13664000D02*
X13856000Y-13686000D01*
X13856000Y-13664000D02*
X13834000Y-13686000D01*
X13874000Y-13774000D02*
X13896000Y-13796000D01*
X13896000Y-13774000D02*
X13874000Y-13796000D01*
X13939000Y-11899000D02*
X13961000Y-11921000D01*
X13961000Y-11899000D02*
X13939000Y-11921000D01*
X13944000Y-13849000D02*
X13966000Y-13871000D01*
X13966000Y-13849000D02*
X13944000Y-13871000D01*
X13959000Y-11604000D02*
X13981000Y-11626000D01*
X13981000Y-11604000D02*
X13959000Y-11626000D01*
X14004000Y-13929000D02*
X14026000Y-13951000D01*
X14026000Y-13929000D02*
X14004000Y-13951000D01*
X14009000Y-12319000D02*
X14031000Y-12341000D01*
X14031000Y-12319000D02*
X14009000Y-12341000D01*
X14009000Y-12974000D02*
X14031000Y-12996000D01*
X14031000Y-12974000D02*
X14009000Y-12996000D01*
X14009000Y-13164000D02*
X14031000Y-13186000D01*
X14031000Y-13164000D02*
X14009000Y-13186000D01*
X14009000Y-13349000D02*
X14031000Y-13371000D01*
X14031000Y-13349000D02*
X14009000Y-13371000D01*
X14021850Y-12656150D02*
X14043850Y-12678150D01*
X14043850Y-12656150D02*
X14021850Y-12678150D01*
X14037662Y-11972606D02*
X14059662Y-11994606D01*
X14059662Y-11972606D02*
X14037662Y-11994606D01*
X14059000Y-11329000D02*
X14081000Y-11351000D01*
X14081000Y-11329000D02*
X14059000Y-11351000D01*
X14064000Y-11224000D02*
X14086000Y-11246000D01*
X14086000Y-11224000D02*
X14064000Y-11246000D01*
X14079000Y-10869000D02*
X14101000Y-10891000D01*
X14101000Y-10869000D02*
X14079000Y-10891000D01*
X14106500Y-3879000D02*
X14128500Y-3901000D01*
X14128500Y-3879000D02*
X14106500Y-3901000D01*
X14124000Y-11969000D02*
X14146000Y-11991000D01*
X14146000Y-11969000D02*
X14124000Y-11991000D01*
X14129000Y-12219000D02*
X14151000Y-12241000D01*
X14151000Y-12219000D02*
X14129000Y-12241000D01*
X14154000Y-10723370D02*
X14176000Y-10745370D01*
X14176000Y-10723370D02*
X14154000Y-10745370D01*
X14162100Y-12683169D02*
X14184100Y-12705169D01*
X14184100Y-12683169D02*
X14162100Y-12705169D01*
X14164000Y-7849000D02*
X14186000Y-7871000D01*
X14186000Y-7849000D02*
X14164000Y-7871000D01*
X14194000Y-6174000D02*
X14216000Y-6196000D01*
X14216000Y-6174000D02*
X14194000Y-6196000D01*
X14194000Y-13773900D02*
X14216000Y-13795900D01*
X14216000Y-13773900D02*
X14194000Y-13795900D01*
X14199000Y-12974000D02*
X14221000Y-12996000D01*
X14221000Y-12974000D02*
X14199000Y-12996000D01*
X14199000Y-13164000D02*
X14221000Y-13186000D01*
X14221000Y-13164000D02*
X14199000Y-13186000D01*
X14199000Y-13349000D02*
X14221000Y-13371000D01*
X14221000Y-13349000D02*
X14199000Y-13371000D01*
X14209000Y-13884000D02*
X14231000Y-13906000D01*
X14231000Y-13884000D02*
X14209000Y-13906000D01*
X14219000Y-11724000D02*
X14241000Y-11746000D01*
X14241000Y-11724000D02*
X14219000Y-11746000D01*
X14269000Y-9784000D02*
X14291000Y-9806000D01*
X14291000Y-9784000D02*
X14269000Y-9806000D01*
X14324902Y-13909000D02*
X14346902Y-13931000D01*
X14346902Y-13909000D02*
X14324902Y-13931000D01*
X14369000Y-13594000D02*
X14391000Y-13616000D01*
X14391000Y-13594000D02*
X14369000Y-13616000D01*
X14399000Y-13844000D02*
X14421000Y-13866000D01*
X14421000Y-13844000D02*
X14399000Y-13866000D01*
X14404000Y-13494000D02*
X14426000Y-13516000D01*
X14426000Y-13494000D02*
X14404000Y-13516000D01*
X14459000Y-13024000D02*
X14481000Y-13046000D01*
X14481000Y-13024000D02*
X14459000Y-13046000D01*
X14499000Y-10834000D02*
X14521000Y-10856000D01*
X14521000Y-10834000D02*
X14499000Y-10856000D01*
X14499000Y-13214000D02*
X14521000Y-13236000D01*
X14521000Y-13214000D02*
X14499000Y-13236000D01*
X14509000Y-11439000D02*
X14531000Y-11461000D01*
X14531000Y-11439000D02*
X14509000Y-11461000D01*
X14539000Y-13894000D02*
X14561000Y-13916000D01*
X14561000Y-13894000D02*
X14539000Y-13916000D01*
X14569000Y-13435500D02*
X14591000Y-13457500D01*
X14591000Y-13435500D02*
X14569000Y-13457500D01*
X14619000Y-12614000D02*
X14641000Y-12636000D01*
X14641000Y-12614000D02*
X14619000Y-12636000D01*
X14649000Y-12289000D02*
X14671000Y-12311000D01*
X14671000Y-12289000D02*
X14649000Y-12311000D01*
X14684000Y-7564000D02*
X14706000Y-7586000D01*
X14706000Y-7564000D02*
X14684000Y-7586000D01*
X14720250Y-10840120D02*
X14742250Y-10862120D01*
X14742250Y-10840120D02*
X14720250Y-10862120D01*
X14725250Y-11445120D02*
X14747250Y-11467120D01*
X14747250Y-11445120D02*
X14725250Y-11467120D01*
X14734000Y-12749000D02*
X14756000Y-12771000D01*
X14756000Y-12749000D02*
X14734000Y-12771000D01*
X14739000Y-9224000D02*
X14761000Y-9246000D01*
X14761000Y-9224000D02*
X14739000Y-9246000D01*
X14754000Y-6899000D02*
X14776000Y-6921000D01*
X14776000Y-6899000D02*
X14754000Y-6921000D01*
X14754000Y-8354000D02*
X14776000Y-8376000D01*
X14776000Y-8354000D02*
X14754000Y-8376000D01*
X14754000Y-11064000D02*
X14776000Y-11086000D01*
X14776000Y-11064000D02*
X14754000Y-11086000D01*
X14759000Y-10234000D02*
X14781000Y-10256000D01*
X14781000Y-10234000D02*
X14759000Y-10256000D01*
X14759000Y-13034000D02*
X14781000Y-13056000D01*
X14781000Y-13034000D02*
X14759000Y-13056000D01*
X14764000Y-6169000D02*
X14786000Y-6191000D01*
X14786000Y-6169000D02*
X14764000Y-6191000D01*
X14764000Y-11729000D02*
X14786000Y-11751000D01*
X14786000Y-11729000D02*
X14764000Y-11751000D01*
X14769000Y-11924000D02*
X14791000Y-11946000D01*
X14791000Y-11924000D02*
X14769000Y-11946000D01*
X14825500Y-13275500D02*
X14847500Y-13297500D01*
X14847500Y-13275500D02*
X14825500Y-13297500D01*
X14834000Y-14174000D02*
X14856000Y-14196000D01*
X14856000Y-14174000D02*
X14834000Y-14196000D01*
X14884000Y-13629000D02*
X14906000Y-13651000D01*
X14906000Y-13629000D02*
X14884000Y-13651000D01*
X14904000Y-7804000D02*
X14926000Y-7826000D01*
X14926000Y-7804000D02*
X14904000Y-7826000D01*
X14909000Y-10314000D02*
X14931000Y-10336000D01*
X14931000Y-10314000D02*
X14909000Y-10336000D01*
X14914000Y-7129000D02*
X14936000Y-7151000D01*
X14936000Y-7129000D02*
X14914000Y-7151000D01*
X14919000Y-10499000D02*
X14941000Y-10521000D01*
X14941000Y-10499000D02*
X14919000Y-10521000D01*
X14949000Y-11884000D02*
X14971000Y-11906000D01*
X14971000Y-11884000D02*
X14949000Y-11906000D01*
X14949000Y-13715400D02*
X14971000Y-13737400D01*
X14971000Y-13715400D02*
X14949000Y-13737400D01*
X14959000Y-10824000D02*
X14981000Y-10846000D01*
X14981000Y-10824000D02*
X14959000Y-10846000D01*
X14959000Y-11424000D02*
X14981000Y-11446000D01*
X14981000Y-11424000D02*
X14959000Y-11446000D01*
X14965400Y-7293480D02*
X14987400Y-7315480D01*
X14987400Y-7293480D02*
X14965400Y-7315480D01*
X14965400Y-8308480D02*
X14987400Y-8330480D01*
X14987400Y-8308480D02*
X14965400Y-8330480D01*
X14974000Y-11724000D02*
X14996000Y-11746000D01*
X14996000Y-11724000D02*
X14974000Y-11746000D01*
X14979000Y-6644000D02*
X15001000Y-6666000D01*
X15001000Y-6644000D02*
X14979000Y-6666000D01*
X14999000Y-8459000D02*
X15021000Y-8481000D01*
X15021000Y-8459000D02*
X14999000Y-8481000D01*
X15024000Y-11969000D02*
X15046000Y-11991000D01*
X15046000Y-11969000D02*
X15024000Y-11991000D01*
X15054000Y-12724000D02*
X15076000Y-12746000D01*
X15076000Y-12724000D02*
X15054000Y-12746000D01*
X15074000Y-4454000D02*
X15096000Y-4476000D01*
X15096000Y-4454000D02*
X15074000Y-4476000D01*
X15074000Y-11414000D02*
X15096000Y-11436000D01*
X15096000Y-11414000D02*
X15074000Y-11436000D01*
X15096837Y-11016163D02*
X15118837Y-11038163D01*
X15118837Y-11016163D02*
X15096837Y-11038163D01*
X15115400Y-7803480D02*
X15137400Y-7825480D01*
X15137400Y-7803480D02*
X15115400Y-7825480D01*
X15124000Y-13209000D02*
X15146000Y-13231000D01*
X15146000Y-13209000D02*
X15124000Y-13231000D01*
X15184000Y-8209000D02*
X15206000Y-8231000D01*
X15206000Y-8209000D02*
X15184000Y-8231000D01*
X15204000Y-13904000D02*
X15226000Y-13926000D01*
X15226000Y-13904000D02*
X15204000Y-13926000D01*
X15250400Y-7548480D02*
X15272400Y-7570480D01*
X15272400Y-7548480D02*
X15250400Y-7570480D01*
X15339000Y-5659000D02*
X15361000Y-5681000D01*
X15361000Y-5659000D02*
X15339000Y-5681000D01*
X15469000Y-10559000D02*
X15491000Y-10581000D01*
X15491000Y-10559000D02*
X15469000Y-10581000D01*
X15474000Y-12179000D02*
X15496000Y-12201000D01*
X15496000Y-12179000D02*
X15474000Y-12201000D01*
X15545250Y-11745120D02*
X15567250Y-11767120D01*
X15567250Y-11745120D02*
X15545250Y-11767120D01*
X15564000Y-13199000D02*
X15586000Y-13221000D01*
X15586000Y-13199000D02*
X15564000Y-13221000D01*
X15599000Y-13671500D02*
X15621000Y-13693500D01*
X15621000Y-13671500D02*
X15599000Y-13693500D01*
X15599000Y-14914000D02*
X15621000Y-14936000D01*
X15621000Y-14914000D02*
X15599000Y-14936000D01*
X15704000Y-11919000D02*
X15726000Y-11941000D01*
X15726000Y-11919000D02*
X15704000Y-11941000D01*
X15720250Y-10820120D02*
X15742250Y-10842120D01*
X15742250Y-10820120D02*
X15720250Y-10842120D01*
X15720250Y-11415120D02*
X15742250Y-11437120D01*
X15742250Y-11415120D02*
X15720250Y-11437120D01*
X15759000Y-7184000D02*
X15781000Y-7206000D01*
X15781000Y-7184000D02*
X15759000Y-7206000D01*
X15764000Y-8059000D02*
X15786000Y-8081000D01*
X15786000Y-8059000D02*
X15764000Y-8081000D01*
X15779000Y-6359000D02*
X15801000Y-6381000D01*
X15801000Y-6359000D02*
X15779000Y-6381000D01*
X15784000Y-8964000D02*
X15806000Y-8986000D01*
X15806000Y-8964000D02*
X15784000Y-8986000D01*
X15789000Y-5419000D02*
X15811000Y-5441000D01*
X15811000Y-5419000D02*
X15789000Y-5441000D01*
X15789000Y-9529000D02*
X15811000Y-9551000D01*
X15811000Y-9529000D02*
X15789000Y-9551000D01*
X15799000Y-10149000D02*
X15821000Y-10171000D01*
X15821000Y-10149000D02*
X15799000Y-10171000D01*
X15804000Y-10569000D02*
X15826000Y-10591000D01*
X15826000Y-10569000D02*
X15804000Y-10591000D01*
X15819000Y-13559000D02*
X15841000Y-13581000D01*
X15841000Y-13559000D02*
X15819000Y-13581000D01*
X15874000Y-5164000D02*
X15896000Y-5186000D01*
X15896000Y-5164000D02*
X15874000Y-5186000D01*
X15949000Y-12449000D02*
X15971000Y-12471000D01*
X15971000Y-12449000D02*
X15949000Y-12471000D01*
X15959000Y-10539000D02*
X15981000Y-10561000D01*
X15981000Y-10539000D02*
X15959000Y-10561000D01*
X15959000Y-11209000D02*
X15981000Y-11231000D01*
X15981000Y-11209000D02*
X15959000Y-11231000D01*
X15960250Y-11020120D02*
X15982250Y-11042120D01*
X15982250Y-11020120D02*
X15960250Y-11042120D01*
X15960250Y-11605120D02*
X15982250Y-11627120D01*
X15982250Y-11605120D02*
X15960250Y-11627120D01*
X16014000Y-3906500D02*
X16036000Y-3928500D01*
X16036000Y-3906500D02*
X16014000Y-3928500D01*
X16049000Y-8614000D02*
X16071000Y-8636000D01*
X16071000Y-8614000D02*
X16049000Y-8636000D01*
X16059000Y-7744000D02*
X16081000Y-7766000D01*
X16081000Y-7744000D02*
X16059000Y-7766000D01*
X16064000Y-5744000D02*
X16086000Y-5766000D01*
X16086000Y-5744000D02*
X16064000Y-5766000D01*
X16064000Y-6674000D02*
X16086000Y-6696000D01*
X16086000Y-6674000D02*
X16064000Y-6696000D01*
X16074000Y-9854000D02*
X16096000Y-9876000D01*
X16096000Y-9854000D02*
X16074000Y-9876000D01*
X16074000Y-10574000D02*
X16096000Y-10596000D01*
X16096000Y-10574000D02*
X16074000Y-10596000D01*
X16089000Y-9194000D02*
X16111000Y-9216000D01*
X16111000Y-9194000D02*
X16089000Y-9216000D01*
X16129000Y-14624000D02*
X16151000Y-14646000D01*
X16151000Y-14624000D02*
X16129000Y-14646000D01*
X16376500Y-13674000D02*
X16398500Y-13696000D01*
X16398500Y-13674000D02*
X16376500Y-13696000D01*
X16484000Y-14154000D02*
X16506000Y-14176000D01*
X16506000Y-14154000D02*
X16484000Y-14176000D01*
X16499000Y-10529000D02*
X16521000Y-10551000D01*
X16521000Y-10529000D02*
X16499000Y-10551000D01*
X16504000Y-11919000D02*
X16526000Y-11941000D01*
X16526000Y-11919000D02*
X16504000Y-11941000D01*
X16529000Y-10864000D02*
X16551000Y-10886000D01*
X16551000Y-10864000D02*
X16529000Y-10886000D01*
X16534000Y-12569000D02*
X16556000Y-12591000D01*
X16556000Y-12569000D02*
X16534000Y-12591000D01*
X16539000Y-11244000D02*
X16561000Y-11266000D01*
X16561000Y-11244000D02*
X16539000Y-11266000D01*
X16544000Y-11579000D02*
X16566000Y-11601000D01*
X16566000Y-11579000D02*
X16544000Y-11601000D01*
X16639000Y-13234000D02*
X16661000Y-13256000D01*
X16661000Y-13234000D02*
X16639000Y-13256000D01*
X16659000Y-11709000D02*
X16681000Y-11731000D01*
X16681000Y-11709000D02*
X16659000Y-11731000D01*
X16664000Y-12084000D02*
X16686000Y-12106000D01*
X16686000Y-12084000D02*
X16664000Y-12106000D01*
X16669000Y-13079000D02*
X16691000Y-13101000D01*
X16691000Y-13079000D02*
X16669000Y-13101000D01*
X16679000Y-12584000D02*
X16701000Y-12606000D01*
X16701000Y-12584000D02*
X16679000Y-12606000D01*
X16684000Y-10589000D02*
X16706000Y-10611000D01*
X16706000Y-10589000D02*
X16684000Y-10611000D01*
X16689000Y-11129000D02*
X16711000Y-11151000D01*
X16711000Y-11129000D02*
X16689000Y-11151000D01*
X16689000Y-12829000D02*
X16711000Y-12851000D01*
X16711000Y-12829000D02*
X16689000Y-12851000D01*
X16719000Y-14644000D02*
X16741000Y-14666000D01*
X16741000Y-14644000D02*
X16719000Y-14666000D01*
X16819000Y-11924000D02*
X16841000Y-11946000D01*
X16841000Y-11924000D02*
X16819000Y-11946000D01*
X16824000Y-13204000D02*
X16846000Y-13226000D01*
X16846000Y-13204000D02*
X16824000Y-13226000D01*
X16824000Y-13434000D02*
X16846000Y-13456000D01*
X16846000Y-13434000D02*
X16824000Y-13456000D01*
X16854000Y-12274000D02*
X16876000Y-12296000D01*
X16876000Y-12274000D02*
X16854000Y-12296000D01*
X16856000Y-12772000D02*
X16878000Y-12794000D01*
X16878000Y-12772000D02*
X16856000Y-12794000D01*
X16859000Y-10849000D02*
X16881000Y-10871000D01*
X16881000Y-10849000D02*
X16859000Y-10871000D01*
X16859000Y-11434000D02*
X16881000Y-11456000D01*
X16881000Y-11434000D02*
X16859000Y-11456000D01*
X16859000Y-12999000D02*
X16881000Y-13021000D01*
X16881000Y-12999000D02*
X16859000Y-13021000D01*
X16964000Y-10474000D02*
X16986000Y-10496000D01*
X16986000Y-10474000D02*
X16964000Y-10496000D01*
X16974000Y-4444000D02*
X16996000Y-4466000D01*
X16996000Y-4444000D02*
X16974000Y-4466000D01*
X17004000Y-10999000D02*
X17026000Y-11021000D01*
X17026000Y-10999000D02*
X17004000Y-11021000D01*
X17019000Y-11709000D02*
X17041000Y-11731000D01*
X17041000Y-11709000D02*
X17019000Y-11731000D01*
X17019000Y-14479000D02*
X17041000Y-14501000D01*
X17041000Y-14479000D02*
X17019000Y-14501000D01*
X17047250Y-14644000D02*
X17069250Y-14666000D01*
X17069250Y-14644000D02*
X17047250Y-14666000D01*
X17059000Y-9324000D02*
X17081000Y-9346000D01*
X17081000Y-9324000D02*
X17059000Y-9346000D01*
X17059000Y-9989000D02*
X17081000Y-10011000D01*
X17081000Y-9989000D02*
X17059000Y-10011000D01*
X17059000Y-11939000D02*
X17081000Y-11961000D01*
X17081000Y-11939000D02*
X17059000Y-11961000D01*
X17074000Y-12594000D02*
X17096000Y-12616000D01*
X17096000Y-12594000D02*
X17074000Y-12616000D01*
X17074000Y-12674000D02*
X17096000Y-12696000D01*
X17096000Y-12674000D02*
X17074000Y-12696000D01*
X17084000Y-13409000D02*
X17106000Y-13431000D01*
X17106000Y-13409000D02*
X17084000Y-13431000D01*
X17234000Y-7064000D02*
X17256000Y-7086000D01*
X17256000Y-7064000D02*
X17234000Y-7086000D01*
X17279000Y-11824000D02*
X17301000Y-11846000D01*
X17301000Y-11824000D02*
X17279000Y-11846000D01*
X17279000Y-13404000D02*
X17301000Y-13426000D01*
X17301000Y-13404000D02*
X17279000Y-13426000D01*
X17279000Y-14129000D02*
X17301000Y-14151000D01*
X17301000Y-14129000D02*
X17279000Y-14151000D01*
X17299000Y-12144000D02*
X17321000Y-12166000D01*
X17321000Y-12144000D02*
X17299000Y-12166000D01*
X17384000Y-12324000D02*
X17406000Y-12346000D01*
X17406000Y-12324000D02*
X17384000Y-12346000D01*
X17399000Y-8364000D02*
X17421000Y-8386000D01*
X17421000Y-8364000D02*
X17399000Y-8386000D01*
X17444000Y-13149000D02*
X17466000Y-13171000D01*
X17466000Y-13149000D02*
X17444000Y-13171000D01*
X17481000Y-12684000D02*
X17503000Y-12706000D01*
X17503000Y-12684000D02*
X17481000Y-12706000D01*
X17534000Y-5859000D02*
X17556000Y-5881000D01*
X17556000Y-5859000D02*
X17534000Y-5881000D01*
X17664000Y-11034000D02*
X17686000Y-11056000D01*
X17686000Y-11034000D02*
X17664000Y-11056000D01*
X17669000Y-4804000D02*
X17691000Y-4826000D01*
X17691000Y-4804000D02*
X17669000Y-4826000D01*
X17704000Y-7054000D02*
X17726000Y-7076000D01*
X17726000Y-7054000D02*
X17704000Y-7076000D01*
X17739000Y-14524000D02*
X17761000Y-14546000D01*
X17761000Y-14524000D02*
X17739000Y-14546000D01*
X17747000Y-12684000D02*
X17769000Y-12706000D01*
X17769000Y-12684000D02*
X17747000Y-12706000D01*
X17869000Y-3896500D02*
X17891000Y-3918500D01*
X17891000Y-3896500D02*
X17869000Y-3918500D01*
X17961500Y-7354000D02*
X17983500Y-7376000D01*
X17983500Y-7354000D02*
X17961500Y-7376000D01*
X17989000Y-6434000D02*
X18011000Y-6456000D01*
X18011000Y-6434000D02*
X17989000Y-6456000D01*
X18015500Y-7031760D02*
X18037500Y-7053760D01*
X18037500Y-7031760D02*
X18015500Y-7053760D01*
X18039000Y-8469000D02*
X18061000Y-8491000D01*
X18061000Y-8469000D02*
X18039000Y-8491000D01*
X18049000Y-5099000D02*
X18071000Y-5121000D01*
X18071000Y-5099000D02*
X18049000Y-5121000D01*
X18059000Y-7824000D02*
X18081000Y-7846000D01*
X18081000Y-7824000D02*
X18059000Y-7846000D01*
X18069000Y-9244000D02*
X18091000Y-9266000D01*
X18091000Y-9244000D02*
X18069000Y-9266000D01*
X18069000Y-10044000D02*
X18091000Y-10066000D01*
X18091000Y-10044000D02*
X18069000Y-10066000D01*
X18071500Y-10846500D02*
X18093500Y-10868500D01*
X18093500Y-10846500D02*
X18071500Y-10868500D01*
X18074000Y-6704000D02*
X18096000Y-6726000D01*
X18096000Y-6704000D02*
X18074000Y-6726000D01*
X18076500Y-13461500D02*
X18098500Y-13483500D01*
X18098500Y-13461500D02*
X18076500Y-13483500D01*
X18079000Y-12811500D02*
X18101000Y-12833500D01*
X18101000Y-12811500D02*
X18079000Y-12833500D01*
X18096500Y-12109000D02*
X18118500Y-12131000D01*
X18118500Y-12109000D02*
X18096500Y-12131000D01*
X18109000Y-14134000D02*
X18131000Y-14156000D01*
X18131000Y-14134000D02*
X18109000Y-14156000D01*
X18109938Y-13719938D02*
X18131938Y-13741938D01*
X18131938Y-13719938D02*
X18109938Y-13741938D01*
X18126500Y-13804000D02*
X18148500Y-13826000D01*
X18148500Y-13804000D02*
X18126500Y-13826000D01*
X18136500Y-7996500D02*
X18158500Y-8018500D01*
X18158500Y-7996500D02*
X18136500Y-8018500D01*
X18144000Y-6394000D02*
X18166000Y-6416000D01*
X18166000Y-6394000D02*
X18144000Y-6416000D01*
X18151500Y-14936500D02*
X18173500Y-14958500D01*
X18173500Y-14936500D02*
X18151500Y-14958500D01*
X18154000Y-8309000D02*
X18176000Y-8331000D01*
X18176000Y-8309000D02*
X18154000Y-8331000D01*
X18226000Y-13811000D02*
X18248000Y-13833000D01*
X18248000Y-13811000D02*
X18226000Y-13833000D01*
X18289000Y-13959000D02*
X18311000Y-13981000D01*
X18311000Y-13959000D02*
X18289000Y-13981000D01*
X18303538Y-14059000D02*
X18325538Y-14081000D01*
X18325538Y-14059000D02*
X18303538Y-14081000D01*
X18304000Y-14159000D02*
X18326000Y-14181000D01*
X18326000Y-14159000D02*
X18304000Y-14181000D01*
X18344000Y-7594000D02*
X18366000Y-7616000D01*
X18366000Y-7594000D02*
X18344000Y-7616000D01*
X18454000Y-13274000D02*
X18476000Y-13296000D01*
X18476000Y-13274000D02*
X18454000Y-13296000D01*
X18489000Y-13804500D02*
X18511000Y-13826500D01*
X18511000Y-13804500D02*
X18489000Y-13826500D01*
X18499000Y-7194000D02*
X18521000Y-7216000D01*
X18521000Y-7194000D02*
X18499000Y-7216000D01*
X18514000Y-11339000D02*
X18536000Y-11361000D01*
X18536000Y-11339000D02*
X18514000Y-11361000D01*
X18514000Y-13064000D02*
X18536000Y-13086000D01*
X18536000Y-13064000D02*
X18514000Y-13086000D01*
X18524000Y-8849000D02*
X18546000Y-8871000D01*
X18546000Y-8849000D02*
X18524000Y-8871000D01*
X18524000Y-9669000D02*
X18546000Y-9691000D01*
X18546000Y-9669000D02*
X18524000Y-9691000D01*
X18534000Y-10434000D02*
X18556000Y-10456000D01*
X18556000Y-10434000D02*
X18534000Y-10456000D01*
X18534000Y-12384000D02*
X18556000Y-12406000D01*
X18556000Y-12384000D02*
X18534000Y-12406000D01*
X18755750Y-12979000D02*
X18777750Y-13001000D01*
X18777750Y-12979000D02*
X18755750Y-13001000D01*
X18760750Y-14379000D02*
X18782750Y-14401000D01*
X18782750Y-14379000D02*
X18760750Y-14401000D01*
X18765750Y-14569000D02*
X18787750Y-14591000D01*
X18787750Y-14569000D02*
X18765750Y-14591000D01*
X18779000Y-5114000D02*
X18801000Y-5136000D01*
X18801000Y-5114000D02*
X18779000Y-5136000D01*
X18781500Y-7759000D02*
X18803500Y-7781000D01*
X18803500Y-7759000D02*
X18781500Y-7781000D01*
X18786500Y-8479000D02*
X18808500Y-8501000D01*
X18808500Y-8479000D02*
X18786500Y-8501000D01*
X18789000Y-6164000D02*
X18811000Y-6186000D01*
X18811000Y-6164000D02*
X18789000Y-6186000D01*
X18789000Y-7509000D02*
X18811000Y-7531000D01*
X18811000Y-7509000D02*
X18789000Y-7531000D01*
X18814000Y-14004000D02*
X18836000Y-14026000D01*
X18836000Y-14004000D02*
X18814000Y-14026000D01*
X18819000Y-13314000D02*
X18841000Y-13336000D01*
X18841000Y-13314000D02*
X18819000Y-13336000D01*
X18894000Y-4494000D02*
X18916000Y-4516000D01*
X18916000Y-4494000D02*
X18894000Y-4516000D01*
X18974000Y-12619000D02*
X18996000Y-12641000D01*
X18996000Y-12619000D02*
X18974000Y-12641000D01*
X19024000Y-14699000D02*
X19046000Y-14721000D01*
X19046000Y-14699000D02*
X19024000Y-14721000D01*
X19376500Y-11819000D02*
X19398500Y-11841000D01*
X19398500Y-11819000D02*
X19376500Y-11841000D01*
X19406500Y-10989000D02*
X19428500Y-11011000D01*
X19428500Y-10989000D02*
X19406500Y-11011000D01*
X19416500Y-9899000D02*
X19438500Y-9921000D01*
X19438500Y-9899000D02*
X19416500Y-9921000D01*
X19419000Y-8809000D02*
X19441000Y-8831000D01*
X19441000Y-8809000D02*
X19419000Y-8831000D01*
X19426500Y-14874000D02*
X19448500Y-14896000D01*
X19448500Y-14874000D02*
X19426500Y-14896000D01*
X19449000Y-3914000D02*
X19471000Y-3936000D01*
X19471000Y-3914000D02*
X19449000Y-3936000D01*
X19449000Y-7569000D02*
X19471000Y-7591000D01*
X19471000Y-7569000D02*
X19449000Y-7591000D01*
X19461500Y-5779000D02*
X19483500Y-5801000D01*
X19483500Y-5779000D02*
X19461500Y-5801000D01*
X19087000Y-13263000D02*
G75*
G02*
X19027000Y-13263000I-30000J0D01*
G01*
X19027000Y-13263000D02*
G75*
G02*
X19087000Y-13263000I30000J0D01*
G01*
X19002000Y-13293000D02*
X19112000Y-13293000D01*
X19112000Y-13233000D02*
G75*
G02*
X19112000Y-13293000I0J-30000D01*
G01*
X19112000Y-13233000D02*
X19002000Y-13233000D01*
X19002000Y-13233000D02*
G75*
G03*
X19002000Y-13293000I0J-30000D01*
G01*
X19087000Y-14127000D02*
G75*
G02*
X19027000Y-14127000I-30000J0D01*
G01*
X19027000Y-14127000D02*
G75*
G02*
X19087000Y-14127000I30000J0D01*
G01*
X19002000Y-14157000D02*
X19112000Y-14157000D01*
X19112000Y-14097000D02*
G75*
G02*
X19112000Y-14157000I0J-30000D01*
G01*
X19112000Y-14097000D02*
X19002000Y-14097000D01*
X19002000Y-14097000D02*
G75*
G03*
X19002000Y-14157000I0J-30000D01*
G01*
X19505000Y-13263000D02*
G75*
G02*
X19445000Y-13263000I-30000J0D01*
G01*
X19445000Y-13263000D02*
G75*
G02*
X19505000Y-13263000I30000J0D01*
G01*
X19435000Y-13293000D02*
X19515000Y-13293000D01*
X19515000Y-13233000D02*
G75*
G02*
X19515000Y-13293000I0J-30000D01*
G01*
X19515000Y-13233000D02*
X19435000Y-13233000D01*
X19435000Y-13233000D02*
G75*
G03*
X19435000Y-13293000I0J-30000D01*
G01*
X19505000Y-14127000D02*
G75*
G02*
X19445000Y-14127000I-30000J0D01*
G01*
X19445000Y-14127000D02*
G75*
G02*
X19505000Y-14127000I30000J0D01*
G01*
X19435000Y-14157000D02*
X19515000Y-14157000D01*
X19515000Y-14097000D02*
G75*
G02*
X19515000Y-14157000I0J-30000D01*
G01*
X19515000Y-14097000D02*
X19435000Y-14097000D01*
X19435000Y-14097000D02*
G75*
G03*
X19435000Y-14157000I0J-30000D01*
G01*
X11679068Y-8460986D02*
X11679068Y-8560986D01*
X11629068Y-8510986D02*
X11729068Y-8510986D01*
X12738000Y-4970680D02*
X12738000Y-5070680D01*
X12688000Y-5020680D02*
X12788000Y-5020680D01*
X12738000Y-5224680D02*
X12738000Y-5324680D01*
X12688000Y-5274680D02*
X12788000Y-5274680D01*
X12738000Y-5478680D02*
X12738000Y-5578680D01*
X12688000Y-5528680D02*
X12788000Y-5528680D01*
X12738000Y-5732680D02*
X12738000Y-5832680D01*
X12688000Y-5782680D02*
X12788000Y-5782680D01*
X12738000Y-5986680D02*
X12738000Y-6086680D01*
X12688000Y-6036680D02*
X12788000Y-6036680D01*
X12738000Y-6240680D02*
X12738000Y-6340680D01*
X12688000Y-6290680D02*
X12788000Y-6290680D01*
X12738000Y-6494680D02*
X12738000Y-6594680D01*
X12688000Y-6544680D02*
X12788000Y-6544680D01*
X12738000Y-6748680D02*
X12738000Y-6848680D01*
X12688000Y-6798680D02*
X12788000Y-6798680D01*
X12738000Y-7002680D02*
X12738000Y-7102680D01*
X12688000Y-7052680D02*
X12788000Y-7052680D01*
X12738000Y-7256680D02*
X12738000Y-7356680D01*
X12688000Y-7306680D02*
X12788000Y-7306680D01*
X12738000Y-7510680D02*
X12738000Y-7610680D01*
X12688000Y-7560680D02*
X12788000Y-7560680D01*
X12738000Y-7764680D02*
X12738000Y-7864680D01*
X12688000Y-7814680D02*
X12788000Y-7814680D01*
X12738000Y-8018680D02*
X12738000Y-8118680D01*
X12688000Y-8068680D02*
X12788000Y-8068680D01*
X12738000Y-8272680D02*
X12738000Y-8372680D01*
X12688000Y-8322680D02*
X12788000Y-8322680D01*
X12738000Y-8526680D02*
X12738000Y-8626680D01*
X12688000Y-8576680D02*
X12788000Y-8576680D01*
X12738000Y-8780680D02*
X12738000Y-8880680D01*
X12688000Y-8830680D02*
X12788000Y-8830680D01*
X15241000Y-12357500D02*
X15241000Y-12457500D01*
X15191000Y-12407500D02*
X15291000Y-12407500D01*
X15241000Y-12611500D02*
X15241000Y-12711500D01*
X15191000Y-12661500D02*
X15291000Y-12661500D01*
X15495000Y-12357500D02*
X15495000Y-12457500D01*
X15445000Y-12407500D02*
X15545000Y-12407500D01*
X15495000Y-12611500D02*
X15495000Y-12711500D01*
X15445000Y-12661500D02*
X15545000Y-12661500D01*
X15531400Y-4969480D02*
X15531400Y-5069480D01*
X15481400Y-5019480D02*
X15581400Y-5019480D01*
X15531400Y-5223480D02*
X15531400Y-5323480D01*
X15481400Y-5273480D02*
X15581400Y-5273480D01*
X15531400Y-5477480D02*
X15531400Y-5577480D01*
X15481400Y-5527480D02*
X15581400Y-5527480D01*
X15531400Y-5731480D02*
X15531400Y-5831480D01*
X15481400Y-5781480D02*
X15581400Y-5781480D01*
X15531400Y-5985480D02*
X15531400Y-6085480D01*
X15481400Y-6035480D02*
X15581400Y-6035480D01*
X15531400Y-6239480D02*
X15531400Y-6339480D01*
X15481400Y-6289480D02*
X15581400Y-6289480D01*
X15531400Y-6493480D02*
X15531400Y-6593480D01*
X15481400Y-6543480D02*
X15581400Y-6543480D01*
X15531400Y-6747480D02*
X15531400Y-6847480D01*
X15481400Y-6797480D02*
X15581400Y-6797480D01*
X15531400Y-7001480D02*
X15531400Y-7101480D01*
X15481400Y-7051480D02*
X15581400Y-7051480D01*
X15531400Y-7255480D02*
X15531400Y-7355480D01*
X15481400Y-7305480D02*
X15581400Y-7305480D01*
X15531400Y-7509480D02*
X15531400Y-7609480D01*
X15481400Y-7559480D02*
X15581400Y-7559480D01*
X15531400Y-7763480D02*
X15531400Y-7863480D01*
X15481400Y-7813480D02*
X15581400Y-7813480D01*
X15531400Y-8017480D02*
X15531400Y-8117480D01*
X15481400Y-8067480D02*
X15581400Y-8067480D01*
X15531400Y-8271480D02*
X15531400Y-8371480D01*
X15481400Y-8321480D02*
X15581400Y-8321480D01*
X15531400Y-8525480D02*
X15531400Y-8625480D01*
X15481400Y-8575480D02*
X15581400Y-8575480D01*
X15531400Y-8779480D02*
X15531400Y-8879480D01*
X15481400Y-8829480D02*
X15581400Y-8829480D01*
X15749000Y-12357500D02*
X15749000Y-12457500D01*
X15699000Y-12407500D02*
X15799000Y-12407500D01*
X15749000Y-12611500D02*
X15749000Y-12711500D01*
X15699000Y-12661500D02*
X15799000Y-12661500D01*
X16581400Y-5286813D02*
X16581400Y-5386813D01*
X16531400Y-5336813D02*
X16631400Y-5336813D01*
D11*
X8615777Y-15476484D02*
X8615777Y-15276484D01*
X8615777Y-15276484D02*
X8663396Y-15276484D01*
X8663396Y-15276484D02*
X8691967Y-15286008D01*
X8691967Y-15286008D02*
X8711015Y-15305055D01*
X8711015Y-15305055D02*
X8720539Y-15324103D01*
X8720539Y-15324103D02*
X8730063Y-15362198D01*
X8730063Y-15362198D02*
X8730063Y-15390769D01*
X8730063Y-15390769D02*
X8720539Y-15428865D01*
X8720539Y-15428865D02*
X8711015Y-15447912D01*
X8711015Y-15447912D02*
X8691967Y-15466960D01*
X8691967Y-15466960D02*
X8663396Y-15476484D01*
X8663396Y-15476484D02*
X8615777Y-15476484D01*
X8815777Y-15476484D02*
X8815777Y-15343150D01*
X8815777Y-15381246D02*
X8825301Y-15362198D01*
X8825301Y-15362198D02*
X8834824Y-15352674D01*
X8834824Y-15352674D02*
X8853872Y-15343150D01*
X8853872Y-15343150D02*
X8872920Y-15343150D01*
X8939586Y-15476484D02*
X8939586Y-15343150D01*
X8939586Y-15276484D02*
X8930063Y-15286008D01*
X8930063Y-15286008D02*
X8939586Y-15295531D01*
X8939586Y-15295531D02*
X8949110Y-15286008D01*
X8949110Y-15286008D02*
X8939586Y-15276484D01*
X8939586Y-15276484D02*
X8939586Y-15295531D01*
X9063396Y-15476484D02*
X9044348Y-15466960D01*
X9044348Y-15466960D02*
X9034824Y-15447912D01*
X9034824Y-15447912D02*
X9034824Y-15276484D01*
X9168158Y-15476484D02*
X9149110Y-15466960D01*
X9149110Y-15466960D02*
X9139586Y-15447912D01*
X9139586Y-15447912D02*
X9139586Y-15276484D01*
X9396729Y-15476484D02*
X9396729Y-15276484D01*
X9396729Y-15276484D02*
X9463396Y-15419341D01*
X9463396Y-15419341D02*
X9530063Y-15276484D01*
X9530063Y-15276484D02*
X9530063Y-15476484D01*
X9711015Y-15476484D02*
X9711015Y-15371722D01*
X9711015Y-15371722D02*
X9701491Y-15352674D01*
X9701491Y-15352674D02*
X9682444Y-15343150D01*
X9682444Y-15343150D02*
X9644348Y-15343150D01*
X9644348Y-15343150D02*
X9625301Y-15352674D01*
X9711015Y-15466960D02*
X9691967Y-15476484D01*
X9691967Y-15476484D02*
X9644348Y-15476484D01*
X9644348Y-15476484D02*
X9625301Y-15466960D01*
X9625301Y-15466960D02*
X9615777Y-15447912D01*
X9615777Y-15447912D02*
X9615777Y-15428865D01*
X9615777Y-15428865D02*
X9625301Y-15409817D01*
X9625301Y-15409817D02*
X9644348Y-15400293D01*
X9644348Y-15400293D02*
X9691967Y-15400293D01*
X9691967Y-15400293D02*
X9711015Y-15390769D01*
X9806253Y-15343150D02*
X9806253Y-15543150D01*
X9806253Y-15352674D02*
X9825301Y-15343150D01*
X9825301Y-15343150D02*
X9863396Y-15343150D01*
X9863396Y-15343150D02*
X9882444Y-15352674D01*
X9882444Y-15352674D02*
X9891967Y-15362198D01*
X9891967Y-15362198D02*
X9901491Y-15381246D01*
X9901491Y-15381246D02*
X9901491Y-15438388D01*
X9901491Y-15438388D02*
X9891967Y-15457436D01*
X9891967Y-15457436D02*
X9882444Y-15466960D01*
X9882444Y-15466960D02*
X9863396Y-15476484D01*
X9863396Y-15476484D02*
X9825301Y-15476484D01*
X9825301Y-15476484D02*
X9806253Y-15466960D01*
X9987205Y-15457436D02*
X9996729Y-15466960D01*
X9996729Y-15466960D02*
X9987205Y-15476484D01*
X9987205Y-15476484D02*
X9977682Y-15466960D01*
X9977682Y-15466960D02*
X9987205Y-15457436D01*
X9987205Y-15457436D02*
X9987205Y-15476484D01*
X9987205Y-15352674D02*
X9996729Y-15362198D01*
X9996729Y-15362198D02*
X9987205Y-15371722D01*
X9987205Y-15371722D02*
X9977682Y-15362198D01*
X9977682Y-15362198D02*
X9987205Y-15352674D01*
X9987205Y-15352674D02*
X9987205Y-15371722D01*
D12*
X8333000Y-15794000D02*
X8355000Y-15816000D01*
X8355000Y-15794000D02*
X8333000Y-15816000D01*
D11*
X8653872Y-15696484D02*
X8672920Y-15696484D01*
X8672920Y-15696484D02*
X8691967Y-15706008D01*
X8691967Y-15706008D02*
X8701491Y-15715531D01*
X8701491Y-15715531D02*
X8711015Y-15734579D01*
X8711015Y-15734579D02*
X8720539Y-15772674D01*
X8720539Y-15772674D02*
X8720539Y-15820293D01*
X8720539Y-15820293D02*
X8711015Y-15858388D01*
X8711015Y-15858388D02*
X8701491Y-15877436D01*
X8701491Y-15877436D02*
X8691967Y-15886960D01*
X8691967Y-15886960D02*
X8672920Y-15896484D01*
X8672920Y-15896484D02*
X8653872Y-15896484D01*
X8653872Y-15896484D02*
X8634824Y-15886960D01*
X8634824Y-15886960D02*
X8625301Y-15877436D01*
X8625301Y-15877436D02*
X8615777Y-15858388D01*
X8615777Y-15858388D02*
X8606253Y-15820293D01*
X8606253Y-15820293D02*
X8606253Y-15772674D01*
X8606253Y-15772674D02*
X8615777Y-15734579D01*
X8615777Y-15734579D02*
X8625301Y-15715531D01*
X8625301Y-15715531D02*
X8634824Y-15706008D01*
X8634824Y-15706008D02*
X8653872Y-15696484D01*
X8806253Y-15877436D02*
X8815777Y-15886960D01*
X8815777Y-15886960D02*
X8806253Y-15896484D01*
X8806253Y-15896484D02*
X8796729Y-15886960D01*
X8796729Y-15886960D02*
X8806253Y-15877436D01*
X8806253Y-15877436D02*
X8806253Y-15896484D01*
X8891967Y-15715531D02*
X8901491Y-15706008D01*
X8901491Y-15706008D02*
X8920539Y-15696484D01*
X8920539Y-15696484D02*
X8968158Y-15696484D01*
X8968158Y-15696484D02*
X8987205Y-15706008D01*
X8987205Y-15706008D02*
X8996729Y-15715531D01*
X8996729Y-15715531D02*
X9006253Y-15734579D01*
X9006253Y-15734579D02*
X9006253Y-15753627D01*
X9006253Y-15753627D02*
X8996729Y-15782198D01*
X8996729Y-15782198D02*
X8882444Y-15896484D01*
X8882444Y-15896484D02*
X9006253Y-15896484D01*
X9082444Y-15715531D02*
X9091967Y-15706008D01*
X9091967Y-15706008D02*
X9111015Y-15696484D01*
X9111015Y-15696484D02*
X9158634Y-15696484D01*
X9158634Y-15696484D02*
X9177682Y-15706008D01*
X9177682Y-15706008D02*
X9187205Y-15715531D01*
X9187205Y-15715531D02*
X9196729Y-15734579D01*
X9196729Y-15734579D02*
X9196729Y-15753627D01*
X9196729Y-15753627D02*
X9187205Y-15782198D01*
X9187205Y-15782198D02*
X9072920Y-15896484D01*
X9072920Y-15896484D02*
X9196729Y-15896484D01*
X9320539Y-15696484D02*
X9339586Y-15696484D01*
X9339586Y-15696484D02*
X9358634Y-15706008D01*
X9358634Y-15706008D02*
X9368158Y-15715531D01*
X9368158Y-15715531D02*
X9377682Y-15734579D01*
X9377682Y-15734579D02*
X9387205Y-15772674D01*
X9387205Y-15772674D02*
X9387205Y-15820293D01*
X9387205Y-15820293D02*
X9377682Y-15858388D01*
X9377682Y-15858388D02*
X9368158Y-15877436D01*
X9368158Y-15877436D02*
X9358634Y-15886960D01*
X9358634Y-15886960D02*
X9339586Y-15896484D01*
X9339586Y-15896484D02*
X9320539Y-15896484D01*
X9320539Y-15896484D02*
X9301491Y-15886960D01*
X9301491Y-15886960D02*
X9291967Y-15877436D01*
X9291967Y-15877436D02*
X9282444Y-15858388D01*
X9282444Y-15858388D02*
X9272920Y-15820293D01*
X9272920Y-15820293D02*
X9272920Y-15772674D01*
X9272920Y-15772674D02*
X9282444Y-15734579D01*
X9282444Y-15734579D02*
X9291967Y-15715531D01*
X9291967Y-15715531D02*
X9301491Y-15706008D01*
X9301491Y-15706008D02*
X9320539Y-15696484D01*
X9472920Y-15896484D02*
X9472920Y-15763150D01*
X9472920Y-15782198D02*
X9482444Y-15772674D01*
X9482444Y-15772674D02*
X9501491Y-15763150D01*
X9501491Y-15763150D02*
X9530063Y-15763150D01*
X9530063Y-15763150D02*
X9549110Y-15772674D01*
X9549110Y-15772674D02*
X9558634Y-15791722D01*
X9558634Y-15791722D02*
X9558634Y-15896484D01*
X9558634Y-15791722D02*
X9568158Y-15772674D01*
X9568158Y-15772674D02*
X9587205Y-15763150D01*
X9587205Y-15763150D02*
X9615777Y-15763150D01*
X9615777Y-15763150D02*
X9634825Y-15772674D01*
X9634825Y-15772674D02*
X9644348Y-15791722D01*
X9644348Y-15791722D02*
X9644348Y-15896484D01*
X9739586Y-15896484D02*
X9739586Y-15763150D01*
X9739586Y-15782198D02*
X9749110Y-15772674D01*
X9749110Y-15772674D02*
X9768158Y-15763150D01*
X9768158Y-15763150D02*
X9796729Y-15763150D01*
X9796729Y-15763150D02*
X9815777Y-15772674D01*
X9815777Y-15772674D02*
X9825301Y-15791722D01*
X9825301Y-15791722D02*
X9825301Y-15896484D01*
X9825301Y-15791722D02*
X9834825Y-15772674D01*
X9834825Y-15772674D02*
X9853872Y-15763150D01*
X9853872Y-15763150D02*
X9882444Y-15763150D01*
X9882444Y-15763150D02*
X9901491Y-15772674D01*
X9901491Y-15772674D02*
X9911015Y-15791722D01*
X9911015Y-15791722D02*
X9911015Y-15896484D01*
X10301491Y-15686960D02*
X10130063Y-15944103D01*
X10558634Y-15696484D02*
X10577682Y-15696484D01*
X10577682Y-15696484D02*
X10596729Y-15706008D01*
X10596729Y-15706008D02*
X10606253Y-15715531D01*
X10606253Y-15715531D02*
X10615777Y-15734579D01*
X10615777Y-15734579D02*
X10625301Y-15772674D01*
X10625301Y-15772674D02*
X10625301Y-15820293D01*
X10625301Y-15820293D02*
X10615777Y-15858388D01*
X10615777Y-15858388D02*
X10606253Y-15877436D01*
X10606253Y-15877436D02*
X10596729Y-15886960D01*
X10596729Y-15886960D02*
X10577682Y-15896484D01*
X10577682Y-15896484D02*
X10558634Y-15896484D01*
X10558634Y-15896484D02*
X10539587Y-15886960D01*
X10539587Y-15886960D02*
X10530063Y-15877436D01*
X10530063Y-15877436D02*
X10520539Y-15858388D01*
X10520539Y-15858388D02*
X10511015Y-15820293D01*
X10511015Y-15820293D02*
X10511015Y-15772674D01*
X10511015Y-15772674D02*
X10520539Y-15734579D01*
X10520539Y-15734579D02*
X10530063Y-15715531D01*
X10530063Y-15715531D02*
X10539587Y-15706008D01*
X10539587Y-15706008D02*
X10558634Y-15696484D01*
X10711015Y-15877436D02*
X10720539Y-15886960D01*
X10720539Y-15886960D02*
X10711015Y-15896484D01*
X10711015Y-15896484D02*
X10701491Y-15886960D01*
X10701491Y-15886960D02*
X10711015Y-15877436D01*
X10711015Y-15877436D02*
X10711015Y-15896484D01*
X10844348Y-15696484D02*
X10863396Y-15696484D01*
X10863396Y-15696484D02*
X10882444Y-15706008D01*
X10882444Y-15706008D02*
X10891968Y-15715531D01*
X10891968Y-15715531D02*
X10901491Y-15734579D01*
X10901491Y-15734579D02*
X10911015Y-15772674D01*
X10911015Y-15772674D02*
X10911015Y-15820293D01*
X10911015Y-15820293D02*
X10901491Y-15858388D01*
X10901491Y-15858388D02*
X10891968Y-15877436D01*
X10891968Y-15877436D02*
X10882444Y-15886960D01*
X10882444Y-15886960D02*
X10863396Y-15896484D01*
X10863396Y-15896484D02*
X10844348Y-15896484D01*
X10844348Y-15896484D02*
X10825301Y-15886960D01*
X10825301Y-15886960D02*
X10815777Y-15877436D01*
X10815777Y-15877436D02*
X10806253Y-15858388D01*
X10806253Y-15858388D02*
X10796729Y-15820293D01*
X10796729Y-15820293D02*
X10796729Y-15772674D01*
X10796729Y-15772674D02*
X10806253Y-15734579D01*
X10806253Y-15734579D02*
X10815777Y-15715531D01*
X10815777Y-15715531D02*
X10825301Y-15706008D01*
X10825301Y-15706008D02*
X10844348Y-15696484D01*
X11034825Y-15696484D02*
X11053872Y-15696484D01*
X11053872Y-15696484D02*
X11072920Y-15706008D01*
X11072920Y-15706008D02*
X11082444Y-15715531D01*
X11082444Y-15715531D02*
X11091968Y-15734579D01*
X11091968Y-15734579D02*
X11101491Y-15772674D01*
X11101491Y-15772674D02*
X11101491Y-15820293D01*
X11101491Y-15820293D02*
X11091968Y-15858388D01*
X11091968Y-15858388D02*
X11082444Y-15877436D01*
X11082444Y-15877436D02*
X11072920Y-15886960D01*
X11072920Y-15886960D02*
X11053872Y-15896484D01*
X11053872Y-15896484D02*
X11034825Y-15896484D01*
X11034825Y-15896484D02*
X11015777Y-15886960D01*
X11015777Y-15886960D02*
X11006253Y-15877436D01*
X11006253Y-15877436D02*
X10996729Y-15858388D01*
X10996729Y-15858388D02*
X10987206Y-15820293D01*
X10987206Y-15820293D02*
X10987206Y-15772674D01*
X10987206Y-15772674D02*
X10996729Y-15734579D01*
X10996729Y-15734579D02*
X11006253Y-15715531D01*
X11006253Y-15715531D02*
X11015777Y-15706008D01*
X11015777Y-15706008D02*
X11034825Y-15696484D01*
X11215777Y-15782198D02*
X11196729Y-15772674D01*
X11196729Y-15772674D02*
X11187206Y-15763150D01*
X11187206Y-15763150D02*
X11177682Y-15744103D01*
X11177682Y-15744103D02*
X11177682Y-15734579D01*
X11177682Y-15734579D02*
X11187206Y-15715531D01*
X11187206Y-15715531D02*
X11196729Y-15706008D01*
X11196729Y-15706008D02*
X11215777Y-15696484D01*
X11215777Y-15696484D02*
X11253872Y-15696484D01*
X11253872Y-15696484D02*
X11272920Y-15706008D01*
X11272920Y-15706008D02*
X11282444Y-15715531D01*
X11282444Y-15715531D02*
X11291967Y-15734579D01*
X11291967Y-15734579D02*
X11291967Y-15744103D01*
X11291967Y-15744103D02*
X11282444Y-15763150D01*
X11282444Y-15763150D02*
X11272920Y-15772674D01*
X11272920Y-15772674D02*
X11253872Y-15782198D01*
X11253872Y-15782198D02*
X11215777Y-15782198D01*
X11215777Y-15782198D02*
X11196729Y-15791722D01*
X11196729Y-15791722D02*
X11187206Y-15801246D01*
X11187206Y-15801246D02*
X11177682Y-15820293D01*
X11177682Y-15820293D02*
X11177682Y-15858388D01*
X11177682Y-15858388D02*
X11187206Y-15877436D01*
X11187206Y-15877436D02*
X11196729Y-15886960D01*
X11196729Y-15886960D02*
X11215777Y-15896484D01*
X11215777Y-15896484D02*
X11253872Y-15896484D01*
X11253872Y-15896484D02*
X11272920Y-15886960D01*
X11272920Y-15886960D02*
X11282444Y-15877436D01*
X11282444Y-15877436D02*
X11291967Y-15858388D01*
X11291967Y-15858388D02*
X11291967Y-15820293D01*
X11291967Y-15820293D02*
X11282444Y-15801246D01*
X11282444Y-15801246D02*
X11272920Y-15791722D01*
X11272920Y-15791722D02*
X11253872Y-15782198D01*
X11358634Y-15696484D02*
X11491967Y-15696484D01*
X11491967Y-15696484D02*
X11406253Y-15896484D01*
X11558634Y-15696484D02*
X11558634Y-15734579D01*
X11634825Y-15696484D02*
X11634825Y-15734579D01*
X11930063Y-15972674D02*
X11920539Y-15963150D01*
X11920539Y-15963150D02*
X11901491Y-15934579D01*
X11901491Y-15934579D02*
X11891968Y-15915531D01*
X11891968Y-15915531D02*
X11882444Y-15886960D01*
X11882444Y-15886960D02*
X11872920Y-15839341D01*
X11872920Y-15839341D02*
X11872920Y-15801246D01*
X11872920Y-15801246D02*
X11882444Y-15753627D01*
X11882444Y-15753627D02*
X11891968Y-15725055D01*
X11891968Y-15725055D02*
X11901491Y-15706008D01*
X11901491Y-15706008D02*
X11920539Y-15677436D01*
X11920539Y-15677436D02*
X11930063Y-15667912D01*
X11987206Y-15696484D02*
X12111015Y-15696484D01*
X12111015Y-15696484D02*
X12044348Y-15772674D01*
X12044348Y-15772674D02*
X12072920Y-15772674D01*
X12072920Y-15772674D02*
X12091968Y-15782198D01*
X12091968Y-15782198D02*
X12101491Y-15791722D01*
X12101491Y-15791722D02*
X12111015Y-15810769D01*
X12111015Y-15810769D02*
X12111015Y-15858388D01*
X12111015Y-15858388D02*
X12101491Y-15877436D01*
X12101491Y-15877436D02*
X12091968Y-15886960D01*
X12091968Y-15886960D02*
X12072920Y-15896484D01*
X12072920Y-15896484D02*
X12015777Y-15896484D01*
X12015777Y-15896484D02*
X11996729Y-15886960D01*
X11996729Y-15886960D02*
X11987206Y-15877436D01*
X12187206Y-15715531D02*
X12196729Y-15706008D01*
X12196729Y-15706008D02*
X12215777Y-15696484D01*
X12215777Y-15696484D02*
X12263396Y-15696484D01*
X12263396Y-15696484D02*
X12282444Y-15706008D01*
X12282444Y-15706008D02*
X12291968Y-15715531D01*
X12291968Y-15715531D02*
X12301491Y-15734579D01*
X12301491Y-15734579D02*
X12301491Y-15753627D01*
X12301491Y-15753627D02*
X12291968Y-15782198D01*
X12291968Y-15782198D02*
X12177682Y-15896484D01*
X12177682Y-15896484D02*
X12301491Y-15896484D01*
X12472920Y-15763150D02*
X12472920Y-15896484D01*
X12425301Y-15686960D02*
X12377682Y-15829817D01*
X12377682Y-15829817D02*
X12501491Y-15829817D01*
X12730063Y-15896484D02*
X12730063Y-15696484D01*
X12815777Y-15896484D02*
X12815777Y-15791722D01*
X12815777Y-15791722D02*
X12806253Y-15772674D01*
X12806253Y-15772674D02*
X12787206Y-15763150D01*
X12787206Y-15763150D02*
X12758634Y-15763150D01*
X12758634Y-15763150D02*
X12739587Y-15772674D01*
X12739587Y-15772674D02*
X12730063Y-15782198D01*
X12939587Y-15896484D02*
X12920539Y-15886960D01*
X12920539Y-15886960D02*
X12911015Y-15877436D01*
X12911015Y-15877436D02*
X12901491Y-15858388D01*
X12901491Y-15858388D02*
X12901491Y-15801246D01*
X12901491Y-15801246D02*
X12911015Y-15782198D01*
X12911015Y-15782198D02*
X12920539Y-15772674D01*
X12920539Y-15772674D02*
X12939587Y-15763150D01*
X12939587Y-15763150D02*
X12968158Y-15763150D01*
X12968158Y-15763150D02*
X12987206Y-15772674D01*
X12987206Y-15772674D02*
X12996730Y-15782198D01*
X12996730Y-15782198D02*
X13006253Y-15801246D01*
X13006253Y-15801246D02*
X13006253Y-15858388D01*
X13006253Y-15858388D02*
X12996730Y-15877436D01*
X12996730Y-15877436D02*
X12987206Y-15886960D01*
X12987206Y-15886960D02*
X12968158Y-15896484D01*
X12968158Y-15896484D02*
X12939587Y-15896484D01*
X13120539Y-15896484D02*
X13101491Y-15886960D01*
X13101491Y-15886960D02*
X13091968Y-15867912D01*
X13091968Y-15867912D02*
X13091968Y-15696484D01*
X13272920Y-15886960D02*
X13253872Y-15896484D01*
X13253872Y-15896484D02*
X13215777Y-15896484D01*
X13215777Y-15896484D02*
X13196730Y-15886960D01*
X13196730Y-15886960D02*
X13187206Y-15867912D01*
X13187206Y-15867912D02*
X13187206Y-15791722D01*
X13187206Y-15791722D02*
X13196730Y-15772674D01*
X13196730Y-15772674D02*
X13215777Y-15763150D01*
X13215777Y-15763150D02*
X13253872Y-15763150D01*
X13253872Y-15763150D02*
X13272920Y-15772674D01*
X13272920Y-15772674D02*
X13282444Y-15791722D01*
X13282444Y-15791722D02*
X13282444Y-15810769D01*
X13282444Y-15810769D02*
X13187206Y-15829817D01*
X13358634Y-15886960D02*
X13377682Y-15896484D01*
X13377682Y-15896484D02*
X13415777Y-15896484D01*
X13415777Y-15896484D02*
X13434825Y-15886960D01*
X13434825Y-15886960D02*
X13444349Y-15867912D01*
X13444349Y-15867912D02*
X13444349Y-15858388D01*
X13444349Y-15858388D02*
X13434825Y-15839341D01*
X13434825Y-15839341D02*
X13415777Y-15829817D01*
X13415777Y-15829817D02*
X13387206Y-15829817D01*
X13387206Y-15829817D02*
X13368158Y-15820293D01*
X13368158Y-15820293D02*
X13358634Y-15801246D01*
X13358634Y-15801246D02*
X13358634Y-15791722D01*
X13358634Y-15791722D02*
X13368158Y-15772674D01*
X13368158Y-15772674D02*
X13387206Y-15763150D01*
X13387206Y-15763150D02*
X13415777Y-15763150D01*
X13415777Y-15763150D02*
X13434825Y-15772674D01*
X13511015Y-15972674D02*
X13520539Y-15963150D01*
X13520539Y-15963150D02*
X13539587Y-15934579D01*
X13539587Y-15934579D02*
X13549111Y-15915531D01*
X13549111Y-15915531D02*
X13558634Y-15886960D01*
X13558634Y-15886960D02*
X13568158Y-15839341D01*
X13568158Y-15839341D02*
X13568158Y-15801246D01*
X13568158Y-15801246D02*
X13558634Y-15753627D01*
X13558634Y-15753627D02*
X13549111Y-15725055D01*
X13549111Y-15725055D02*
X13539587Y-15706008D01*
X13539587Y-15706008D02*
X13520539Y-15677436D01*
X13520539Y-15677436D02*
X13511015Y-15667912D01*
D12*
X8355000Y-16069000D02*
G75*
G02*
X8295000Y-16069000I-30000J0D01*
G01*
X8295000Y-16069000D02*
G75*
G02*
X8355000Y-16069000I30000J0D01*
G01*
D11*
X8653872Y-15960484D02*
X8672920Y-15960484D01*
X8672920Y-15960484D02*
X8691967Y-15970008D01*
X8691967Y-15970008D02*
X8701491Y-15979531D01*
X8701491Y-15979531D02*
X8711015Y-15998579D01*
X8711015Y-15998579D02*
X8720539Y-16036674D01*
X8720539Y-16036674D02*
X8720539Y-16084293D01*
X8720539Y-16084293D02*
X8711015Y-16122388D01*
X8711015Y-16122388D02*
X8701491Y-16141436D01*
X8701491Y-16141436D02*
X8691967Y-16150960D01*
X8691967Y-16150960D02*
X8672920Y-16160484D01*
X8672920Y-16160484D02*
X8653872Y-16160484D01*
X8653872Y-16160484D02*
X8634824Y-16150960D01*
X8634824Y-16150960D02*
X8625301Y-16141436D01*
X8625301Y-16141436D02*
X8615777Y-16122388D01*
X8615777Y-16122388D02*
X8606253Y-16084293D01*
X8606253Y-16084293D02*
X8606253Y-16036674D01*
X8606253Y-16036674D02*
X8615777Y-15998579D01*
X8615777Y-15998579D02*
X8625301Y-15979531D01*
X8625301Y-15979531D02*
X8634824Y-15970008D01*
X8634824Y-15970008D02*
X8653872Y-15960484D01*
X8806253Y-16141436D02*
X8815777Y-16150960D01*
X8815777Y-16150960D02*
X8806253Y-16160484D01*
X8806253Y-16160484D02*
X8796729Y-16150960D01*
X8796729Y-16150960D02*
X8806253Y-16141436D01*
X8806253Y-16141436D02*
X8806253Y-16160484D01*
X8987205Y-15960484D02*
X8949110Y-15960484D01*
X8949110Y-15960484D02*
X8930063Y-15970008D01*
X8930063Y-15970008D02*
X8920539Y-15979531D01*
X8920539Y-15979531D02*
X8901491Y-16008103D01*
X8901491Y-16008103D02*
X8891967Y-16046198D01*
X8891967Y-16046198D02*
X8891967Y-16122388D01*
X8891967Y-16122388D02*
X8901491Y-16141436D01*
X8901491Y-16141436D02*
X8911015Y-16150960D01*
X8911015Y-16150960D02*
X8930063Y-16160484D01*
X8930063Y-16160484D02*
X8968158Y-16160484D01*
X8968158Y-16160484D02*
X8987205Y-16150960D01*
X8987205Y-16150960D02*
X8996729Y-16141436D01*
X8996729Y-16141436D02*
X9006253Y-16122388D01*
X9006253Y-16122388D02*
X9006253Y-16074769D01*
X9006253Y-16074769D02*
X8996729Y-16055722D01*
X8996729Y-16055722D02*
X8987205Y-16046198D01*
X8987205Y-16046198D02*
X8968158Y-16036674D01*
X8968158Y-16036674D02*
X8930063Y-16036674D01*
X8930063Y-16036674D02*
X8911015Y-16046198D01*
X8911015Y-16046198D02*
X8901491Y-16055722D01*
X8901491Y-16055722D02*
X8891967Y-16074769D01*
X9130063Y-15960484D02*
X9149110Y-15960484D01*
X9149110Y-15960484D02*
X9168158Y-15970008D01*
X9168158Y-15970008D02*
X9177682Y-15979531D01*
X9177682Y-15979531D02*
X9187205Y-15998579D01*
X9187205Y-15998579D02*
X9196729Y-16036674D01*
X9196729Y-16036674D02*
X9196729Y-16084293D01*
X9196729Y-16084293D02*
X9187205Y-16122388D01*
X9187205Y-16122388D02*
X9177682Y-16141436D01*
X9177682Y-16141436D02*
X9168158Y-16150960D01*
X9168158Y-16150960D02*
X9149110Y-16160484D01*
X9149110Y-16160484D02*
X9130063Y-16160484D01*
X9130063Y-16160484D02*
X9111015Y-16150960D01*
X9111015Y-16150960D02*
X9101491Y-16141436D01*
X9101491Y-16141436D02*
X9091967Y-16122388D01*
X9091967Y-16122388D02*
X9082444Y-16084293D01*
X9082444Y-16084293D02*
X9082444Y-16036674D01*
X9082444Y-16036674D02*
X9091967Y-15998579D01*
X9091967Y-15998579D02*
X9101491Y-15979531D01*
X9101491Y-15979531D02*
X9111015Y-15970008D01*
X9111015Y-15970008D02*
X9130063Y-15960484D01*
X9320539Y-15960484D02*
X9339586Y-15960484D01*
X9339586Y-15960484D02*
X9358634Y-15970008D01*
X9358634Y-15970008D02*
X9368158Y-15979531D01*
X9368158Y-15979531D02*
X9377682Y-15998579D01*
X9377682Y-15998579D02*
X9387205Y-16036674D01*
X9387205Y-16036674D02*
X9387205Y-16084293D01*
X9387205Y-16084293D02*
X9377682Y-16122388D01*
X9377682Y-16122388D02*
X9368158Y-16141436D01*
X9368158Y-16141436D02*
X9358634Y-16150960D01*
X9358634Y-16150960D02*
X9339586Y-16160484D01*
X9339586Y-16160484D02*
X9320539Y-16160484D01*
X9320539Y-16160484D02*
X9301491Y-16150960D01*
X9301491Y-16150960D02*
X9291967Y-16141436D01*
X9291967Y-16141436D02*
X9282444Y-16122388D01*
X9282444Y-16122388D02*
X9272920Y-16084293D01*
X9272920Y-16084293D02*
X9272920Y-16036674D01*
X9272920Y-16036674D02*
X9282444Y-15998579D01*
X9282444Y-15998579D02*
X9291967Y-15979531D01*
X9291967Y-15979531D02*
X9301491Y-15970008D01*
X9301491Y-15970008D02*
X9320539Y-15960484D01*
X9472920Y-16160484D02*
X9472920Y-16027150D01*
X9472920Y-16046198D02*
X9482444Y-16036674D01*
X9482444Y-16036674D02*
X9501491Y-16027150D01*
X9501491Y-16027150D02*
X9530063Y-16027150D01*
X9530063Y-16027150D02*
X9549110Y-16036674D01*
X9549110Y-16036674D02*
X9558634Y-16055722D01*
X9558634Y-16055722D02*
X9558634Y-16160484D01*
X9558634Y-16055722D02*
X9568158Y-16036674D01*
X9568158Y-16036674D02*
X9587205Y-16027150D01*
X9587205Y-16027150D02*
X9615777Y-16027150D01*
X9615777Y-16027150D02*
X9634825Y-16036674D01*
X9634825Y-16036674D02*
X9644348Y-16055722D01*
X9644348Y-16055722D02*
X9644348Y-16160484D01*
X9739586Y-16160484D02*
X9739586Y-16027150D01*
X9739586Y-16046198D02*
X9749110Y-16036674D01*
X9749110Y-16036674D02*
X9768158Y-16027150D01*
X9768158Y-16027150D02*
X9796729Y-16027150D01*
X9796729Y-16027150D02*
X9815777Y-16036674D01*
X9815777Y-16036674D02*
X9825301Y-16055722D01*
X9825301Y-16055722D02*
X9825301Y-16160484D01*
X9825301Y-16055722D02*
X9834825Y-16036674D01*
X9834825Y-16036674D02*
X9853872Y-16027150D01*
X9853872Y-16027150D02*
X9882444Y-16027150D01*
X9882444Y-16027150D02*
X9901491Y-16036674D01*
X9901491Y-16036674D02*
X9911015Y-16055722D01*
X9911015Y-16055722D02*
X9911015Y-16160484D01*
X10301491Y-15950960D02*
X10130063Y-16208103D01*
X10558634Y-15960484D02*
X10577682Y-15960484D01*
X10577682Y-15960484D02*
X10596729Y-15970008D01*
X10596729Y-15970008D02*
X10606253Y-15979531D01*
X10606253Y-15979531D02*
X10615777Y-15998579D01*
X10615777Y-15998579D02*
X10625301Y-16036674D01*
X10625301Y-16036674D02*
X10625301Y-16084293D01*
X10625301Y-16084293D02*
X10615777Y-16122388D01*
X10615777Y-16122388D02*
X10606253Y-16141436D01*
X10606253Y-16141436D02*
X10596729Y-16150960D01*
X10596729Y-16150960D02*
X10577682Y-16160484D01*
X10577682Y-16160484D02*
X10558634Y-16160484D01*
X10558634Y-16160484D02*
X10539587Y-16150960D01*
X10539587Y-16150960D02*
X10530063Y-16141436D01*
X10530063Y-16141436D02*
X10520539Y-16122388D01*
X10520539Y-16122388D02*
X10511015Y-16084293D01*
X10511015Y-16084293D02*
X10511015Y-16036674D01*
X10511015Y-16036674D02*
X10520539Y-15998579D01*
X10520539Y-15998579D02*
X10530063Y-15979531D01*
X10530063Y-15979531D02*
X10539587Y-15970008D01*
X10539587Y-15970008D02*
X10558634Y-15960484D01*
X10711015Y-16141436D02*
X10720539Y-16150960D01*
X10720539Y-16150960D02*
X10711015Y-16160484D01*
X10711015Y-16160484D02*
X10701491Y-16150960D01*
X10701491Y-16150960D02*
X10711015Y-16141436D01*
X10711015Y-16141436D02*
X10711015Y-16160484D01*
X10844348Y-15960484D02*
X10863396Y-15960484D01*
X10863396Y-15960484D02*
X10882444Y-15970008D01*
X10882444Y-15970008D02*
X10891968Y-15979531D01*
X10891968Y-15979531D02*
X10901491Y-15998579D01*
X10901491Y-15998579D02*
X10911015Y-16036674D01*
X10911015Y-16036674D02*
X10911015Y-16084293D01*
X10911015Y-16084293D02*
X10901491Y-16122388D01*
X10901491Y-16122388D02*
X10891968Y-16141436D01*
X10891968Y-16141436D02*
X10882444Y-16150960D01*
X10882444Y-16150960D02*
X10863396Y-16160484D01*
X10863396Y-16160484D02*
X10844348Y-16160484D01*
X10844348Y-16160484D02*
X10825301Y-16150960D01*
X10825301Y-16150960D02*
X10815777Y-16141436D01*
X10815777Y-16141436D02*
X10806253Y-16122388D01*
X10806253Y-16122388D02*
X10796729Y-16084293D01*
X10796729Y-16084293D02*
X10796729Y-16036674D01*
X10796729Y-16036674D02*
X10806253Y-15998579D01*
X10806253Y-15998579D02*
X10815777Y-15979531D01*
X10815777Y-15979531D02*
X10825301Y-15970008D01*
X10825301Y-15970008D02*
X10844348Y-15960484D01*
X10987206Y-15979531D02*
X10996729Y-15970008D01*
X10996729Y-15970008D02*
X11015777Y-15960484D01*
X11015777Y-15960484D02*
X11063396Y-15960484D01*
X11063396Y-15960484D02*
X11082444Y-15970008D01*
X11082444Y-15970008D02*
X11091968Y-15979531D01*
X11091968Y-15979531D02*
X11101491Y-15998579D01*
X11101491Y-15998579D02*
X11101491Y-16017627D01*
X11101491Y-16017627D02*
X11091968Y-16046198D01*
X11091968Y-16046198D02*
X10977682Y-16160484D01*
X10977682Y-16160484D02*
X11101491Y-16160484D01*
X11168158Y-15960484D02*
X11291967Y-15960484D01*
X11291967Y-15960484D02*
X11225301Y-16036674D01*
X11225301Y-16036674D02*
X11253872Y-16036674D01*
X11253872Y-16036674D02*
X11272920Y-16046198D01*
X11272920Y-16046198D02*
X11282444Y-16055722D01*
X11282444Y-16055722D02*
X11291967Y-16074769D01*
X11291967Y-16074769D02*
X11291967Y-16122388D01*
X11291967Y-16122388D02*
X11282444Y-16141436D01*
X11282444Y-16141436D02*
X11272920Y-16150960D01*
X11272920Y-16150960D02*
X11253872Y-16160484D01*
X11253872Y-16160484D02*
X11196729Y-16160484D01*
X11196729Y-16160484D02*
X11177682Y-16150960D01*
X11177682Y-16150960D02*
X11168158Y-16141436D01*
X11463396Y-15960484D02*
X11425301Y-15960484D01*
X11425301Y-15960484D02*
X11406253Y-15970008D01*
X11406253Y-15970008D02*
X11396729Y-15979531D01*
X11396729Y-15979531D02*
X11377682Y-16008103D01*
X11377682Y-16008103D02*
X11368158Y-16046198D01*
X11368158Y-16046198D02*
X11368158Y-16122388D01*
X11368158Y-16122388D02*
X11377682Y-16141436D01*
X11377682Y-16141436D02*
X11387206Y-16150960D01*
X11387206Y-16150960D02*
X11406253Y-16160484D01*
X11406253Y-16160484D02*
X11444348Y-16160484D01*
X11444348Y-16160484D02*
X11463396Y-16150960D01*
X11463396Y-16150960D02*
X11472920Y-16141436D01*
X11472920Y-16141436D02*
X11482444Y-16122388D01*
X11482444Y-16122388D02*
X11482444Y-16074769D01*
X11482444Y-16074769D02*
X11472920Y-16055722D01*
X11472920Y-16055722D02*
X11463396Y-16046198D01*
X11463396Y-16046198D02*
X11444348Y-16036674D01*
X11444348Y-16036674D02*
X11406253Y-16036674D01*
X11406253Y-16036674D02*
X11387206Y-16046198D01*
X11387206Y-16046198D02*
X11377682Y-16055722D01*
X11377682Y-16055722D02*
X11368158Y-16074769D01*
X11558634Y-15960484D02*
X11558634Y-15998579D01*
X11634825Y-15960484D02*
X11634825Y-15998579D01*
X11930063Y-16236674D02*
X11920539Y-16227150D01*
X11920539Y-16227150D02*
X11901491Y-16198579D01*
X11901491Y-16198579D02*
X11891968Y-16179531D01*
X11891968Y-16179531D02*
X11882444Y-16150960D01*
X11882444Y-16150960D02*
X11872920Y-16103341D01*
X11872920Y-16103341D02*
X11872920Y-16065246D01*
X11872920Y-16065246D02*
X11882444Y-16017627D01*
X11882444Y-16017627D02*
X11891968Y-15989055D01*
X11891968Y-15989055D02*
X11901491Y-15970008D01*
X11901491Y-15970008D02*
X11920539Y-15941436D01*
X11920539Y-15941436D02*
X11930063Y-15931912D01*
X12044348Y-15960484D02*
X12063396Y-15960484D01*
X12063396Y-15960484D02*
X12082444Y-15970008D01*
X12082444Y-15970008D02*
X12091968Y-15979531D01*
X12091968Y-15979531D02*
X12101491Y-15998579D01*
X12101491Y-15998579D02*
X12111015Y-16036674D01*
X12111015Y-16036674D02*
X12111015Y-16084293D01*
X12111015Y-16084293D02*
X12101491Y-16122388D01*
X12101491Y-16122388D02*
X12091968Y-16141436D01*
X12091968Y-16141436D02*
X12082444Y-16150960D01*
X12082444Y-16150960D02*
X12063396Y-16160484D01*
X12063396Y-16160484D02*
X12044348Y-16160484D01*
X12044348Y-16160484D02*
X12025301Y-16150960D01*
X12025301Y-16150960D02*
X12015777Y-16141436D01*
X12015777Y-16141436D02*
X12006253Y-16122388D01*
X12006253Y-16122388D02*
X11996729Y-16084293D01*
X11996729Y-16084293D02*
X11996729Y-16036674D01*
X11996729Y-16036674D02*
X12006253Y-15998579D01*
X12006253Y-15998579D02*
X12015777Y-15979531D01*
X12015777Y-15979531D02*
X12025301Y-15970008D01*
X12025301Y-15970008D02*
X12044348Y-15960484D01*
X12349110Y-16160484D02*
X12349110Y-15960484D01*
X12434825Y-16160484D02*
X12434825Y-16055722D01*
X12434825Y-16055722D02*
X12425301Y-16036674D01*
X12425301Y-16036674D02*
X12406253Y-16027150D01*
X12406253Y-16027150D02*
X12377682Y-16027150D01*
X12377682Y-16027150D02*
X12358634Y-16036674D01*
X12358634Y-16036674D02*
X12349110Y-16046198D01*
X12558634Y-16160484D02*
X12539587Y-16150960D01*
X12539587Y-16150960D02*
X12530063Y-16141436D01*
X12530063Y-16141436D02*
X12520539Y-16122388D01*
X12520539Y-16122388D02*
X12520539Y-16065246D01*
X12520539Y-16065246D02*
X12530063Y-16046198D01*
X12530063Y-16046198D02*
X12539587Y-16036674D01*
X12539587Y-16036674D02*
X12558634Y-16027150D01*
X12558634Y-16027150D02*
X12587206Y-16027150D01*
X12587206Y-16027150D02*
X12606253Y-16036674D01*
X12606253Y-16036674D02*
X12615777Y-16046198D01*
X12615777Y-16046198D02*
X12625301Y-16065246D01*
X12625301Y-16065246D02*
X12625301Y-16122388D01*
X12625301Y-16122388D02*
X12615777Y-16141436D01*
X12615777Y-16141436D02*
X12606253Y-16150960D01*
X12606253Y-16150960D02*
X12587206Y-16160484D01*
X12587206Y-16160484D02*
X12558634Y-16160484D01*
X12739587Y-16160484D02*
X12720539Y-16150960D01*
X12720539Y-16150960D02*
X12711015Y-16131912D01*
X12711015Y-16131912D02*
X12711015Y-15960484D01*
X12891968Y-16150960D02*
X12872920Y-16160484D01*
X12872920Y-16160484D02*
X12834825Y-16160484D01*
X12834825Y-16160484D02*
X12815777Y-16150960D01*
X12815777Y-16150960D02*
X12806253Y-16131912D01*
X12806253Y-16131912D02*
X12806253Y-16055722D01*
X12806253Y-16055722D02*
X12815777Y-16036674D01*
X12815777Y-16036674D02*
X12834825Y-16027150D01*
X12834825Y-16027150D02*
X12872920Y-16027150D01*
X12872920Y-16027150D02*
X12891968Y-16036674D01*
X12891968Y-16036674D02*
X12901491Y-16055722D01*
X12901491Y-16055722D02*
X12901491Y-16074769D01*
X12901491Y-16074769D02*
X12806253Y-16093817D01*
X12977682Y-16150960D02*
X12996730Y-16160484D01*
X12996730Y-16160484D02*
X13034825Y-16160484D01*
X13034825Y-16160484D02*
X13053872Y-16150960D01*
X13053872Y-16150960D02*
X13063396Y-16131912D01*
X13063396Y-16131912D02*
X13063396Y-16122388D01*
X13063396Y-16122388D02*
X13053872Y-16103341D01*
X13053872Y-16103341D02*
X13034825Y-16093817D01*
X13034825Y-16093817D02*
X13006253Y-16093817D01*
X13006253Y-16093817D02*
X12987206Y-16084293D01*
X12987206Y-16084293D02*
X12977682Y-16065246D01*
X12977682Y-16065246D02*
X12977682Y-16055722D01*
X12977682Y-16055722D02*
X12987206Y-16036674D01*
X12987206Y-16036674D02*
X13006253Y-16027150D01*
X13006253Y-16027150D02*
X13034825Y-16027150D01*
X13034825Y-16027150D02*
X13053872Y-16036674D01*
X13301492Y-16084293D02*
X13453873Y-16084293D01*
X13377682Y-16160484D02*
X13377682Y-16008103D01*
X13787206Y-16027150D02*
X13787206Y-16160484D01*
X13739587Y-15950960D02*
X13691968Y-16093817D01*
X13691968Y-16093817D02*
X13815777Y-16093817D01*
X14034825Y-16150960D02*
X14053873Y-16160484D01*
X14053873Y-16160484D02*
X14091968Y-16160484D01*
X14091968Y-16160484D02*
X14111015Y-16150960D01*
X14111015Y-16150960D02*
X14120539Y-16131912D01*
X14120539Y-16131912D02*
X14120539Y-16122388D01*
X14120539Y-16122388D02*
X14111015Y-16103341D01*
X14111015Y-16103341D02*
X14091968Y-16093817D01*
X14091968Y-16093817D02*
X14063396Y-16093817D01*
X14063396Y-16093817D02*
X14044349Y-16084293D01*
X14044349Y-16084293D02*
X14034825Y-16065246D01*
X14034825Y-16065246D02*
X14034825Y-16055722D01*
X14034825Y-16055722D02*
X14044349Y-16036674D01*
X14044349Y-16036674D02*
X14063396Y-16027150D01*
X14063396Y-16027150D02*
X14091968Y-16027150D01*
X14091968Y-16027150D02*
X14111015Y-16036674D01*
X14234825Y-16160484D02*
X14215777Y-16150960D01*
X14215777Y-16150960D02*
X14206254Y-16131912D01*
X14206254Y-16131912D02*
X14206254Y-15960484D01*
X14339587Y-16160484D02*
X14320539Y-16150960D01*
X14320539Y-16150960D02*
X14311015Y-16141436D01*
X14311015Y-16141436D02*
X14301492Y-16122388D01*
X14301492Y-16122388D02*
X14301492Y-16065246D01*
X14301492Y-16065246D02*
X14311015Y-16046198D01*
X14311015Y-16046198D02*
X14320539Y-16036674D01*
X14320539Y-16036674D02*
X14339587Y-16027150D01*
X14339587Y-16027150D02*
X14368158Y-16027150D01*
X14368158Y-16027150D02*
X14387206Y-16036674D01*
X14387206Y-16036674D02*
X14396730Y-16046198D01*
X14396730Y-16046198D02*
X14406254Y-16065246D01*
X14406254Y-16065246D02*
X14406254Y-16122388D01*
X14406254Y-16122388D02*
X14396730Y-16141436D01*
X14396730Y-16141436D02*
X14387206Y-16150960D01*
X14387206Y-16150960D02*
X14368158Y-16160484D01*
X14368158Y-16160484D02*
X14339587Y-16160484D01*
X14463396Y-16027150D02*
X14539587Y-16027150D01*
X14491968Y-15960484D02*
X14491968Y-16131912D01*
X14491968Y-16131912D02*
X14501492Y-16150960D01*
X14501492Y-16150960D02*
X14520539Y-16160484D01*
X14520539Y-16160484D02*
X14539587Y-16160484D01*
X14596730Y-16150960D02*
X14615777Y-16160484D01*
X14615777Y-16160484D02*
X14653873Y-16160484D01*
X14653873Y-16160484D02*
X14672920Y-16150960D01*
X14672920Y-16150960D02*
X14682444Y-16131912D01*
X14682444Y-16131912D02*
X14682444Y-16122388D01*
X14682444Y-16122388D02*
X14672920Y-16103341D01*
X14672920Y-16103341D02*
X14653873Y-16093817D01*
X14653873Y-16093817D02*
X14625301Y-16093817D01*
X14625301Y-16093817D02*
X14606254Y-16084293D01*
X14606254Y-16084293D02*
X14596730Y-16065246D01*
X14596730Y-16065246D02*
X14596730Y-16055722D01*
X14596730Y-16055722D02*
X14606254Y-16036674D01*
X14606254Y-16036674D02*
X14625301Y-16027150D01*
X14625301Y-16027150D02*
X14653873Y-16027150D01*
X14653873Y-16027150D02*
X14672920Y-16036674D01*
X14749111Y-16236674D02*
X14758635Y-16227150D01*
X14758635Y-16227150D02*
X14777682Y-16198579D01*
X14777682Y-16198579D02*
X14787206Y-16179531D01*
X14787206Y-16179531D02*
X14796730Y-16150960D01*
X14796730Y-16150960D02*
X14806254Y-16103341D01*
X14806254Y-16103341D02*
X14806254Y-16065246D01*
X14806254Y-16065246D02*
X14796730Y-16017627D01*
X14796730Y-16017627D02*
X14787206Y-15989055D01*
X14787206Y-15989055D02*
X14777682Y-15970008D01*
X14777682Y-15970008D02*
X14758635Y-15941436D01*
X14758635Y-15941436D02*
X14749111Y-15931912D01*
D12*
X8305000Y-16283000D02*
X8305000Y-16383000D01*
X8255000Y-16333000D02*
X8355000Y-16333000D01*
D11*
X8720539Y-16424484D02*
X8606253Y-16424484D01*
X8663396Y-16424484D02*
X8663396Y-16224484D01*
X8663396Y-16224484D02*
X8644348Y-16253055D01*
X8644348Y-16253055D02*
X8625301Y-16272103D01*
X8625301Y-16272103D02*
X8606253Y-16281627D01*
X8806253Y-16405436D02*
X8815777Y-16414960D01*
X8815777Y-16414960D02*
X8806253Y-16424484D01*
X8806253Y-16424484D02*
X8796729Y-16414960D01*
X8796729Y-16414960D02*
X8806253Y-16405436D01*
X8806253Y-16405436D02*
X8806253Y-16424484D01*
X8939586Y-16224484D02*
X8958634Y-16224484D01*
X8958634Y-16224484D02*
X8977682Y-16234008D01*
X8977682Y-16234008D02*
X8987205Y-16243531D01*
X8987205Y-16243531D02*
X8996729Y-16262579D01*
X8996729Y-16262579D02*
X9006253Y-16300674D01*
X9006253Y-16300674D02*
X9006253Y-16348293D01*
X9006253Y-16348293D02*
X8996729Y-16386388D01*
X8996729Y-16386388D02*
X8987205Y-16405436D01*
X8987205Y-16405436D02*
X8977682Y-16414960D01*
X8977682Y-16414960D02*
X8958634Y-16424484D01*
X8958634Y-16424484D02*
X8939586Y-16424484D01*
X8939586Y-16424484D02*
X8920539Y-16414960D01*
X8920539Y-16414960D02*
X8911015Y-16405436D01*
X8911015Y-16405436D02*
X8901491Y-16386388D01*
X8901491Y-16386388D02*
X8891967Y-16348293D01*
X8891967Y-16348293D02*
X8891967Y-16300674D01*
X8891967Y-16300674D02*
X8901491Y-16262579D01*
X8901491Y-16262579D02*
X8911015Y-16243531D01*
X8911015Y-16243531D02*
X8920539Y-16234008D01*
X8920539Y-16234008D02*
X8939586Y-16224484D01*
X9130063Y-16224484D02*
X9149110Y-16224484D01*
X9149110Y-16224484D02*
X9168158Y-16234008D01*
X9168158Y-16234008D02*
X9177682Y-16243531D01*
X9177682Y-16243531D02*
X9187205Y-16262579D01*
X9187205Y-16262579D02*
X9196729Y-16300674D01*
X9196729Y-16300674D02*
X9196729Y-16348293D01*
X9196729Y-16348293D02*
X9187205Y-16386388D01*
X9187205Y-16386388D02*
X9177682Y-16405436D01*
X9177682Y-16405436D02*
X9168158Y-16414960D01*
X9168158Y-16414960D02*
X9149110Y-16424484D01*
X9149110Y-16424484D02*
X9130063Y-16424484D01*
X9130063Y-16424484D02*
X9111015Y-16414960D01*
X9111015Y-16414960D02*
X9101491Y-16405436D01*
X9101491Y-16405436D02*
X9091967Y-16386388D01*
X9091967Y-16386388D02*
X9082444Y-16348293D01*
X9082444Y-16348293D02*
X9082444Y-16300674D01*
X9082444Y-16300674D02*
X9091967Y-16262579D01*
X9091967Y-16262579D02*
X9101491Y-16243531D01*
X9101491Y-16243531D02*
X9111015Y-16234008D01*
X9111015Y-16234008D02*
X9130063Y-16224484D01*
X9320539Y-16224484D02*
X9339586Y-16224484D01*
X9339586Y-16224484D02*
X9358634Y-16234008D01*
X9358634Y-16234008D02*
X9368158Y-16243531D01*
X9368158Y-16243531D02*
X9377682Y-16262579D01*
X9377682Y-16262579D02*
X9387205Y-16300674D01*
X9387205Y-16300674D02*
X9387205Y-16348293D01*
X9387205Y-16348293D02*
X9377682Y-16386388D01*
X9377682Y-16386388D02*
X9368158Y-16405436D01*
X9368158Y-16405436D02*
X9358634Y-16414960D01*
X9358634Y-16414960D02*
X9339586Y-16424484D01*
X9339586Y-16424484D02*
X9320539Y-16424484D01*
X9320539Y-16424484D02*
X9301491Y-16414960D01*
X9301491Y-16414960D02*
X9291967Y-16405436D01*
X9291967Y-16405436D02*
X9282444Y-16386388D01*
X9282444Y-16386388D02*
X9272920Y-16348293D01*
X9272920Y-16348293D02*
X9272920Y-16300674D01*
X9272920Y-16300674D02*
X9282444Y-16262579D01*
X9282444Y-16262579D02*
X9291967Y-16243531D01*
X9291967Y-16243531D02*
X9301491Y-16234008D01*
X9301491Y-16234008D02*
X9320539Y-16224484D01*
X9472920Y-16424484D02*
X9472920Y-16291150D01*
X9472920Y-16310198D02*
X9482444Y-16300674D01*
X9482444Y-16300674D02*
X9501491Y-16291150D01*
X9501491Y-16291150D02*
X9530063Y-16291150D01*
X9530063Y-16291150D02*
X9549110Y-16300674D01*
X9549110Y-16300674D02*
X9558634Y-16319722D01*
X9558634Y-16319722D02*
X9558634Y-16424484D01*
X9558634Y-16319722D02*
X9568158Y-16300674D01*
X9568158Y-16300674D02*
X9587205Y-16291150D01*
X9587205Y-16291150D02*
X9615777Y-16291150D01*
X9615777Y-16291150D02*
X9634825Y-16300674D01*
X9634825Y-16300674D02*
X9644348Y-16319722D01*
X9644348Y-16319722D02*
X9644348Y-16424484D01*
X9739586Y-16424484D02*
X9739586Y-16291150D01*
X9739586Y-16310198D02*
X9749110Y-16300674D01*
X9749110Y-16300674D02*
X9768158Y-16291150D01*
X9768158Y-16291150D02*
X9796729Y-16291150D01*
X9796729Y-16291150D02*
X9815777Y-16300674D01*
X9815777Y-16300674D02*
X9825301Y-16319722D01*
X9825301Y-16319722D02*
X9825301Y-16424484D01*
X9825301Y-16319722D02*
X9834825Y-16300674D01*
X9834825Y-16300674D02*
X9853872Y-16291150D01*
X9853872Y-16291150D02*
X9882444Y-16291150D01*
X9882444Y-16291150D02*
X9901491Y-16300674D01*
X9901491Y-16300674D02*
X9911015Y-16319722D01*
X9911015Y-16319722D02*
X9911015Y-16424484D01*
X10301491Y-16214960D02*
X10130063Y-16472103D01*
X10558634Y-16224484D02*
X10577682Y-16224484D01*
X10577682Y-16224484D02*
X10596729Y-16234008D01*
X10596729Y-16234008D02*
X10606253Y-16243531D01*
X10606253Y-16243531D02*
X10615777Y-16262579D01*
X10615777Y-16262579D02*
X10625301Y-16300674D01*
X10625301Y-16300674D02*
X10625301Y-16348293D01*
X10625301Y-16348293D02*
X10615777Y-16386388D01*
X10615777Y-16386388D02*
X10606253Y-16405436D01*
X10606253Y-16405436D02*
X10596729Y-16414960D01*
X10596729Y-16414960D02*
X10577682Y-16424484D01*
X10577682Y-16424484D02*
X10558634Y-16424484D01*
X10558634Y-16424484D02*
X10539587Y-16414960D01*
X10539587Y-16414960D02*
X10530063Y-16405436D01*
X10530063Y-16405436D02*
X10520539Y-16386388D01*
X10520539Y-16386388D02*
X10511015Y-16348293D01*
X10511015Y-16348293D02*
X10511015Y-16300674D01*
X10511015Y-16300674D02*
X10520539Y-16262579D01*
X10520539Y-16262579D02*
X10530063Y-16243531D01*
X10530063Y-16243531D02*
X10539587Y-16234008D01*
X10539587Y-16234008D02*
X10558634Y-16224484D01*
X10711015Y-16405436D02*
X10720539Y-16414960D01*
X10720539Y-16414960D02*
X10711015Y-16424484D01*
X10711015Y-16424484D02*
X10701491Y-16414960D01*
X10701491Y-16414960D02*
X10711015Y-16405436D01*
X10711015Y-16405436D02*
X10711015Y-16424484D01*
X10844348Y-16224484D02*
X10863396Y-16224484D01*
X10863396Y-16224484D02*
X10882444Y-16234008D01*
X10882444Y-16234008D02*
X10891968Y-16243531D01*
X10891968Y-16243531D02*
X10901491Y-16262579D01*
X10901491Y-16262579D02*
X10911015Y-16300674D01*
X10911015Y-16300674D02*
X10911015Y-16348293D01*
X10911015Y-16348293D02*
X10901491Y-16386388D01*
X10901491Y-16386388D02*
X10891968Y-16405436D01*
X10891968Y-16405436D02*
X10882444Y-16414960D01*
X10882444Y-16414960D02*
X10863396Y-16424484D01*
X10863396Y-16424484D02*
X10844348Y-16424484D01*
X10844348Y-16424484D02*
X10825301Y-16414960D01*
X10825301Y-16414960D02*
X10815777Y-16405436D01*
X10815777Y-16405436D02*
X10806253Y-16386388D01*
X10806253Y-16386388D02*
X10796729Y-16348293D01*
X10796729Y-16348293D02*
X10796729Y-16300674D01*
X10796729Y-16300674D02*
X10806253Y-16262579D01*
X10806253Y-16262579D02*
X10815777Y-16243531D01*
X10815777Y-16243531D02*
X10825301Y-16234008D01*
X10825301Y-16234008D02*
X10844348Y-16224484D01*
X10977682Y-16224484D02*
X11101491Y-16224484D01*
X11101491Y-16224484D02*
X11034825Y-16300674D01*
X11034825Y-16300674D02*
X11063396Y-16300674D01*
X11063396Y-16300674D02*
X11082444Y-16310198D01*
X11082444Y-16310198D02*
X11091968Y-16319722D01*
X11091968Y-16319722D02*
X11101491Y-16338769D01*
X11101491Y-16338769D02*
X11101491Y-16386388D01*
X11101491Y-16386388D02*
X11091968Y-16405436D01*
X11091968Y-16405436D02*
X11082444Y-16414960D01*
X11082444Y-16414960D02*
X11063396Y-16424484D01*
X11063396Y-16424484D02*
X11006253Y-16424484D01*
X11006253Y-16424484D02*
X10987206Y-16414960D01*
X10987206Y-16414960D02*
X10977682Y-16405436D01*
X11196729Y-16424484D02*
X11234825Y-16424484D01*
X11234825Y-16424484D02*
X11253872Y-16414960D01*
X11253872Y-16414960D02*
X11263396Y-16405436D01*
X11263396Y-16405436D02*
X11282444Y-16376865D01*
X11282444Y-16376865D02*
X11291967Y-16338769D01*
X11291967Y-16338769D02*
X11291967Y-16262579D01*
X11291967Y-16262579D02*
X11282444Y-16243531D01*
X11282444Y-16243531D02*
X11272920Y-16234008D01*
X11272920Y-16234008D02*
X11253872Y-16224484D01*
X11253872Y-16224484D02*
X11215777Y-16224484D01*
X11215777Y-16224484D02*
X11196729Y-16234008D01*
X11196729Y-16234008D02*
X11187206Y-16243531D01*
X11187206Y-16243531D02*
X11177682Y-16262579D01*
X11177682Y-16262579D02*
X11177682Y-16310198D01*
X11177682Y-16310198D02*
X11187206Y-16329246D01*
X11187206Y-16329246D02*
X11196729Y-16338769D01*
X11196729Y-16338769D02*
X11215777Y-16348293D01*
X11215777Y-16348293D02*
X11253872Y-16348293D01*
X11253872Y-16348293D02*
X11272920Y-16338769D01*
X11272920Y-16338769D02*
X11282444Y-16329246D01*
X11282444Y-16329246D02*
X11291967Y-16310198D01*
X11463396Y-16291150D02*
X11463396Y-16424484D01*
X11415777Y-16214960D02*
X11368158Y-16357817D01*
X11368158Y-16357817D02*
X11491967Y-16357817D01*
X11558634Y-16224484D02*
X11558634Y-16262579D01*
X11634825Y-16224484D02*
X11634825Y-16262579D01*
X11930063Y-16500674D02*
X11920539Y-16491150D01*
X11920539Y-16491150D02*
X11901491Y-16462579D01*
X11901491Y-16462579D02*
X11891968Y-16443531D01*
X11891968Y-16443531D02*
X11882444Y-16414960D01*
X11882444Y-16414960D02*
X11872920Y-16367341D01*
X11872920Y-16367341D02*
X11872920Y-16329246D01*
X11872920Y-16329246D02*
X11882444Y-16281627D01*
X11882444Y-16281627D02*
X11891968Y-16253055D01*
X11891968Y-16253055D02*
X11901491Y-16234008D01*
X11901491Y-16234008D02*
X11920539Y-16205436D01*
X11920539Y-16205436D02*
X11930063Y-16195912D01*
X12091968Y-16291150D02*
X12091968Y-16424484D01*
X12044348Y-16214960D02*
X11996729Y-16357817D01*
X11996729Y-16357817D02*
X12120539Y-16357817D01*
X12234825Y-16224484D02*
X12253872Y-16224484D01*
X12253872Y-16224484D02*
X12272920Y-16234008D01*
X12272920Y-16234008D02*
X12282444Y-16243531D01*
X12282444Y-16243531D02*
X12291968Y-16262579D01*
X12291968Y-16262579D02*
X12301491Y-16300674D01*
X12301491Y-16300674D02*
X12301491Y-16348293D01*
X12301491Y-16348293D02*
X12291968Y-16386388D01*
X12291968Y-16386388D02*
X12282444Y-16405436D01*
X12282444Y-16405436D02*
X12272920Y-16414960D01*
X12272920Y-16414960D02*
X12253872Y-16424484D01*
X12253872Y-16424484D02*
X12234825Y-16424484D01*
X12234825Y-16424484D02*
X12215777Y-16414960D01*
X12215777Y-16414960D02*
X12206253Y-16405436D01*
X12206253Y-16405436D02*
X12196729Y-16386388D01*
X12196729Y-16386388D02*
X12187206Y-16348293D01*
X12187206Y-16348293D02*
X12187206Y-16300674D01*
X12187206Y-16300674D02*
X12196729Y-16262579D01*
X12196729Y-16262579D02*
X12206253Y-16243531D01*
X12206253Y-16243531D02*
X12215777Y-16234008D01*
X12215777Y-16234008D02*
X12234825Y-16224484D01*
X12539587Y-16424484D02*
X12539587Y-16224484D01*
X12625301Y-16424484D02*
X12625301Y-16319722D01*
X12625301Y-16319722D02*
X12615777Y-16300674D01*
X12615777Y-16300674D02*
X12596730Y-16291150D01*
X12596730Y-16291150D02*
X12568158Y-16291150D01*
X12568158Y-16291150D02*
X12549110Y-16300674D01*
X12549110Y-16300674D02*
X12539587Y-16310198D01*
X12749110Y-16424484D02*
X12730063Y-16414960D01*
X12730063Y-16414960D02*
X12720539Y-16405436D01*
X12720539Y-16405436D02*
X12711015Y-16386388D01*
X12711015Y-16386388D02*
X12711015Y-16329246D01*
X12711015Y-16329246D02*
X12720539Y-16310198D01*
X12720539Y-16310198D02*
X12730063Y-16300674D01*
X12730063Y-16300674D02*
X12749110Y-16291150D01*
X12749110Y-16291150D02*
X12777682Y-16291150D01*
X12777682Y-16291150D02*
X12796730Y-16300674D01*
X12796730Y-16300674D02*
X12806253Y-16310198D01*
X12806253Y-16310198D02*
X12815777Y-16329246D01*
X12815777Y-16329246D02*
X12815777Y-16386388D01*
X12815777Y-16386388D02*
X12806253Y-16405436D01*
X12806253Y-16405436D02*
X12796730Y-16414960D01*
X12796730Y-16414960D02*
X12777682Y-16424484D01*
X12777682Y-16424484D02*
X12749110Y-16424484D01*
X12930063Y-16424484D02*
X12911015Y-16414960D01*
X12911015Y-16414960D02*
X12901491Y-16395912D01*
X12901491Y-16395912D02*
X12901491Y-16224484D01*
X13082444Y-16414960D02*
X13063396Y-16424484D01*
X13063396Y-16424484D02*
X13025301Y-16424484D01*
X13025301Y-16424484D02*
X13006253Y-16414960D01*
X13006253Y-16414960D02*
X12996730Y-16395912D01*
X12996730Y-16395912D02*
X12996730Y-16319722D01*
X12996730Y-16319722D02*
X13006253Y-16300674D01*
X13006253Y-16300674D02*
X13025301Y-16291150D01*
X13025301Y-16291150D02*
X13063396Y-16291150D01*
X13063396Y-16291150D02*
X13082444Y-16300674D01*
X13082444Y-16300674D02*
X13091968Y-16319722D01*
X13091968Y-16319722D02*
X13091968Y-16338769D01*
X13091968Y-16338769D02*
X12996730Y-16357817D01*
X13168158Y-16414960D02*
X13187206Y-16424484D01*
X13187206Y-16424484D02*
X13225301Y-16424484D01*
X13225301Y-16424484D02*
X13244349Y-16414960D01*
X13244349Y-16414960D02*
X13253872Y-16395912D01*
X13253872Y-16395912D02*
X13253872Y-16386388D01*
X13253872Y-16386388D02*
X13244349Y-16367341D01*
X13244349Y-16367341D02*
X13225301Y-16357817D01*
X13225301Y-16357817D02*
X13196730Y-16357817D01*
X13196730Y-16357817D02*
X13177682Y-16348293D01*
X13177682Y-16348293D02*
X13168158Y-16329246D01*
X13168158Y-16329246D02*
X13168158Y-16319722D01*
X13168158Y-16319722D02*
X13177682Y-16300674D01*
X13177682Y-16300674D02*
X13196730Y-16291150D01*
X13196730Y-16291150D02*
X13225301Y-16291150D01*
X13225301Y-16291150D02*
X13244349Y-16300674D01*
X13320539Y-16500674D02*
X13330063Y-16491150D01*
X13330063Y-16491150D02*
X13349111Y-16462579D01*
X13349111Y-16462579D02*
X13358634Y-16443531D01*
X13358634Y-16443531D02*
X13368158Y-16414960D01*
X13368158Y-16414960D02*
X13377682Y-16367341D01*
X13377682Y-16367341D02*
X13377682Y-16329246D01*
X13377682Y-16329246D02*
X13368158Y-16281627D01*
X13368158Y-16281627D02*
X13358634Y-16253055D01*
X13358634Y-16253055D02*
X13349111Y-16234008D01*
X13349111Y-16234008D02*
X13330063Y-16205436D01*
X13330063Y-16205436D02*
X13320539Y-16195912D01*
M02*
