%TF.GenerationSoftware,KiCad,Pcbnew,9.0.6*%
%TF.CreationDate,2026-01-06T10:28:57+00:00*%
%TF.ProjectId,PyBoardTester,5079426f-6172-4645-9465-737465722e6b,rev?*%
%TF.SameCoordinates,Original*%
%TF.FileFunction,Legend,Bot*%
%TF.FilePolarity,Positive*%
%FSLAX46Y46*%
G04 Gerber Fmt 4.6, Leading zero omitted, Abs format (unit mm)*
G04 Created by KiCad (PCBNEW 9.0.6) date 2026-01-06 10:28:57*
%MOMM*%
%LPD*%
G01*
G04 APERTURE LIST*
%ADD10R,1.700000X1.700000*%
%ADD11C,1.700000*%
%ADD12C,2.000000*%
%ADD13C,0.650000*%
%ADD14O,2.100000X1.000000*%
%ADD15O,1.800000X1.000000*%
%TA.AperFunction,Profile*%
%ADD16C,0.500000*%
%TD*%
G04 APERTURE END LIST*
%LPC*%
D10*
%TO.C,J3*%
X155314000Y-50194800D03*
D11*
X155314000Y-52734800D03*
X155314000Y-55274800D03*
X155314000Y-57814800D03*
X155314000Y-60354800D03*
X155314000Y-62894800D03*
X155314000Y-65434800D03*
X155314000Y-67974800D03*
X155314000Y-70514800D03*
X155314000Y-73054800D03*
X155314000Y-75594800D03*
X155314000Y-78134800D03*
X155314000Y-80674800D03*
X155314000Y-83214800D03*
X155314000Y-85754800D03*
X155314000Y-88294800D03*
%TD*%
D10*
%TO.C,J4*%
X178250000Y-118550000D03*
D11*
X175710000Y-118550000D03*
X173170000Y-118550000D03*
%TD*%
D12*
%TO.C,TP27*%
X116790681Y-85109856D03*
%TD*%
D10*
%TO.C,J1*%
X157490000Y-124075000D03*
D11*
X157490000Y-126615000D03*
X154950000Y-124075000D03*
X154950000Y-126615000D03*
X152410000Y-124075000D03*
X152410000Y-126615000D03*
%TD*%
D13*
%TO.C,J5*%
X191070000Y-139840000D03*
X191070000Y-134060000D03*
D14*
X190570000Y-141270000D03*
D15*
X194750000Y-141270000D03*
D14*
X190570000Y-132630000D03*
D15*
X194750000Y-132630000D03*
%TD*%
D12*
%TO.C,TP6*%
X165814000Y-53368133D03*
%TD*%
D10*
%TO.C,J2*%
X127380000Y-50206800D03*
D11*
X127380000Y-52746800D03*
X127380000Y-55286800D03*
X127380000Y-57826800D03*
X127380000Y-60366800D03*
X127380000Y-62906800D03*
X127380000Y-65446800D03*
X127380000Y-67986800D03*
X127380000Y-70526800D03*
X127380000Y-73066800D03*
X127380000Y-75606800D03*
X127380000Y-78146800D03*
X127380000Y-80686800D03*
X127380000Y-83226800D03*
X127380000Y-85766800D03*
X127380000Y-88306800D03*
%TD*%
%LPD*%
D16*
X197350000Y-38700000D02*
X197350000Y-149400000D01*
X85800000Y-151400000D02*
G75*
G02*
X83800000Y-149400000I0J2000000D01*
G01*
X85792517Y-36714214D02*
X195250000Y-36700000D01*
X195350000Y-151400000D02*
X85800000Y-151400000D01*
X195250000Y-36700000D02*
G75*
G02*
X197349980Y-38700000I97600J-2000000D01*
G01*
X83800000Y-149400000D02*
X83800000Y-38714214D01*
X197350000Y-149400000D02*
G75*
G02*
X195350000Y-151400000I-2000000J0D01*
G01*
X83800000Y-38714214D02*
G75*
G02*
X85800000Y-36714200I2000000J14D01*
G01*
M02*
