M48
; DRILL file {KiCad 9.0.4} date 2025-11-21T09:51:15+0000
; FORMAT={-:-/ absolute / inch / decimal}
; #@! TF.CreationDate,2025-11-21T09:51:15+00:00
; #@! TF.GenerationSoftware,Kicad,Pcbnew,9.0.4
; #@! TF.FileFunction,Plated,1,2,PTH
FMAT,2
INCH
; #@! TA.AperFunction,Plated,PTH,ViaDrill
T1C0.0087
; #@! TA.AperFunction,Plated,PTH,ComponentDrill
T2C0.0394
%
G90
G05
T1
X2.2407Y-4.7323
X3.4331Y-4.0583
X3.4606Y-3.8583
X3.498Y-3.7697
X4.0714Y-4.2579
X4.0714Y-4.6575
X4.1305Y-4.4587
X4.1836Y-4.3583
X5.2348Y-3.4823
T2
X2.7733Y-4.7329
X3.1902Y-3.3588
X3.1902Y-3.4588
X3.1902Y-3.5588
X3.1902Y-3.6588
X3.1902Y-3.7588
X3.1902Y-3.8588
X3.1902Y-3.9588
X3.1902Y-4.0588
X3.1902Y-4.1588
X3.1902Y-4.2588
X3.1902Y-4.3588
X3.1902Y-4.4588
X3.1902Y-4.5588
X3.1902Y-4.6588
X3.1902Y-4.7588
X3.1902Y-4.8588
X4.2899Y-3.3583
X4.2899Y-3.4583
X4.2899Y-3.5583
X4.2899Y-3.6583
X4.2899Y-3.7583
X4.2899Y-3.8583
X4.2899Y-3.9583
X4.2899Y-4.0583
X4.2899Y-4.1583
X4.2899Y-4.2583
X4.2899Y-4.3583
X4.2899Y-4.4583
X4.2899Y-4.5583
X4.2899Y-4.6583
X4.2899Y-4.7583
X4.2899Y-4.8583
X4.7033Y-3.4832
M30
