%TF.GenerationSoftware,KiCad,Pcbnew,9.0.6*%
%TF.CreationDate,2026-01-15T14:05:37+00:00*%
%TF.ProjectId,PyBoardTester,5079426f-6172-4645-9465-737465722e6b,rev?*%
%TF.SameCoordinates,Original*%
%TF.FileFunction,Plated,1,4,PTH,Mixed*%
%TF.FilePolarity,Positive*%
%FSLAX46Y46*%
G04 Gerber Fmt 4.6, Leading zero omitted, Abs format (unit mm)*
G04 Created by KiCad (PCBNEW 9.0.6) date 2026-01-15 14:05:37*
%MOMM*%
%LPD*%
G01*
G04 APERTURE LIST*
%TA.AperFunction,ViaDrill*%
%ADD10C,0.220000*%
%TD*%
G04 aperture for slot hole*
%TA.AperFunction,ComponentDrill*%
%ADD11C,0.600000*%
%TD*%
%TA.AperFunction,ComponentDrill*%
%ADD12C,1.000000*%
%TD*%
G04 APERTURE END LIST*
D10*
X86175000Y-149400000D03*
X86625000Y-64700000D03*
X86694469Y-39664003D03*
X86825000Y-104700000D03*
X86925000Y-84325000D03*
X87050000Y-53675000D03*
X87625000Y-125200000D03*
X96350000Y-72250000D03*
X96425000Y-140225000D03*
X97400000Y-46350000D03*
X99275000Y-90525000D03*
X100750000Y-100075000D03*
X100850000Y-111500000D03*
X103325000Y-38950000D03*
X104450000Y-124300000D03*
X105600000Y-59900000D03*
X106250000Y-83450000D03*
X111500000Y-134400000D03*
X113550000Y-148750000D03*
X113900000Y-44250000D03*
X114000000Y-100900000D03*
X116200000Y-114850000D03*
X119650000Y-93700000D03*
X120000000Y-127350000D03*
X121350000Y-114050000D03*
X121800000Y-38700000D03*
X122300000Y-110700000D03*
X122510000Y-108450000D03*
X122550000Y-105900000D03*
X122600000Y-117456800D03*
X122700000Y-115150000D03*
X123300000Y-50481467D03*
X123450000Y-117900000D03*
X123600000Y-101850000D03*
X123900000Y-89300000D03*
X123900000Y-94700000D03*
X124300000Y-112950000D03*
X124750000Y-108400000D03*
X124750000Y-115006800D03*
X124900000Y-119750000D03*
X125300000Y-103800000D03*
X129600000Y-74050000D03*
X129750000Y-71700000D03*
X130200000Y-63600000D03*
X130400000Y-118950000D03*
X130400000Y-130950000D03*
X130450000Y-115050000D03*
X130450000Y-136300000D03*
X130500000Y-113200000D03*
X130550000Y-124800000D03*
X131200000Y-66900000D03*
X131300000Y-105650000D03*
X131300000Y-138600000D03*
X131800000Y-119000000D03*
X131850000Y-117600000D03*
X131900000Y-139400000D03*
X131950000Y-108300000D03*
X132000000Y-113056800D03*
X132000000Y-115000000D03*
X132016000Y-119850000D03*
X132100000Y-106325000D03*
X132600000Y-129100000D03*
X132675000Y-103900000D03*
X132850000Y-44350000D03*
X132850000Y-137400000D03*
X133000000Y-90750000D03*
X133025000Y-149425000D03*
X133050000Y-82600000D03*
X133050000Y-97650000D03*
X133200000Y-129900000D03*
X133300000Y-79550000D03*
X133300000Y-105050000D03*
X133350000Y-68950000D03*
X133350000Y-131500000D03*
X133363500Y-135500000D03*
X133600000Y-107200000D03*
X133750000Y-66750000D03*
X133950000Y-61700000D03*
X134250000Y-62894800D03*
X134250000Y-130000000D03*
X134850000Y-134200000D03*
X134950000Y-125950000D03*
X135050000Y-132400000D03*
X135150000Y-119300000D03*
X135200000Y-60644800D03*
X135350000Y-130200000D03*
X135700000Y-128250000D03*
X135850000Y-135125000D03*
X136400000Y-59900000D03*
X136500000Y-66800000D03*
X136500000Y-73450000D03*
X136550000Y-83550000D03*
X136750000Y-114806800D03*
X136800000Y-68800000D03*
X136800000Y-104550000D03*
X136850000Y-94150000D03*
X137200000Y-117600000D03*
X137300000Y-137600000D03*
X137800000Y-106975000D03*
X138350000Y-129850000D03*
X138350000Y-131750000D03*
X138350000Y-133600000D03*
X138450000Y-136750000D03*
X138850000Y-137850000D03*
X139500000Y-119100000D03*
X139550000Y-138600000D03*
X139700000Y-116150000D03*
X140150000Y-139400000D03*
X140200000Y-123000000D03*
X140200000Y-129850000D03*
X140200000Y-131750000D03*
X140200000Y-133600000D03*
X140328500Y-126671500D03*
X140486622Y-119836063D03*
X140700000Y-113400000D03*
X140750000Y-112350000D03*
X140900000Y-108800000D03*
X141175000Y-38900000D03*
X141350000Y-119800000D03*
X141400000Y-122300000D03*
X141650000Y-107343700D03*
X141730999Y-126941690D03*
X141750000Y-78600000D03*
X142050000Y-61850000D03*
X142050000Y-137849000D03*
X142100000Y-129850000D03*
X142100000Y-131750000D03*
X142100000Y-133600000D03*
X142200000Y-138950000D03*
X142300000Y-117350000D03*
X142800000Y-97950000D03*
X143359022Y-139200000D03*
X143800000Y-136050000D03*
X144100000Y-138550000D03*
X144150000Y-135050000D03*
X144700000Y-130350000D03*
X145100000Y-108450000D03*
X145100000Y-132250000D03*
X145200000Y-114500000D03*
X145500000Y-139050000D03*
X145800000Y-134465000D03*
X146300000Y-126250000D03*
X146600000Y-122600000D03*
X146950000Y-75750000D03*
X147312500Y-108511200D03*
X147362500Y-114561200D03*
X147450000Y-127600000D03*
X147500000Y-92350000D03*
X147650000Y-69100000D03*
X147650000Y-83650000D03*
X147650000Y-110750000D03*
X147700000Y-102450000D03*
X147700000Y-130450000D03*
X147750000Y-61800000D03*
X147750000Y-117400000D03*
X147800000Y-119350000D03*
X148365000Y-132865000D03*
X148450000Y-141850000D03*
X148950000Y-136400000D03*
X149150000Y-78150000D03*
X149200000Y-103250000D03*
X149250000Y-71400000D03*
X149300000Y-105100000D03*
X149600000Y-118950000D03*
X149600000Y-137264000D03*
X149700000Y-108350000D03*
X149700000Y-114350000D03*
X149764000Y-73044800D03*
X149764000Y-83194800D03*
X149850000Y-117350000D03*
X149900000Y-66550000D03*
X150100000Y-84700000D03*
X150350000Y-119800000D03*
X150650000Y-127350000D03*
X150850000Y-44650000D03*
X150850000Y-114250000D03*
X151078367Y-110271633D03*
X151264000Y-78144800D03*
X151350000Y-132200000D03*
X151950000Y-82200000D03*
X152150000Y-139150000D03*
X152614000Y-75594800D03*
X153500000Y-56700000D03*
X154800000Y-105700000D03*
X154850000Y-121900000D03*
X155562500Y-117561200D03*
X155750000Y-132100000D03*
X156100000Y-136825000D03*
X156100000Y-149250000D03*
X157150000Y-119300000D03*
X157312500Y-108311200D03*
X157312500Y-114261200D03*
X157700000Y-71950000D03*
X157750000Y-80700000D03*
X157900000Y-63700000D03*
X157950000Y-89750000D03*
X158000000Y-54300000D03*
X158000000Y-95400000D03*
X158100000Y-101600000D03*
X158150000Y-105800000D03*
X158300000Y-135700000D03*
X158850000Y-51750000D03*
X159600000Y-124600000D03*
X159700000Y-105500000D03*
X159700000Y-112200000D03*
X159712500Y-110311200D03*
X159712500Y-116161200D03*
X160250000Y-39175000D03*
X160600000Y-86250000D03*
X160700000Y-77550000D03*
X160750000Y-57550000D03*
X160750000Y-66850000D03*
X160850000Y-98650000D03*
X160850000Y-105850000D03*
X161000000Y-92050000D03*
X161400000Y-146350000D03*
X163875000Y-136850000D03*
X164950000Y-141650000D03*
X165100000Y-105400000D03*
X165150000Y-119300000D03*
X165400000Y-108750000D03*
X165450000Y-125800000D03*
X165500000Y-112550000D03*
X165550000Y-115900000D03*
X166500000Y-132450000D03*
X166700000Y-117200000D03*
X166750000Y-120950000D03*
X166800000Y-130900000D03*
X166900000Y-125950000D03*
X166950000Y-106000000D03*
X167000000Y-111400000D03*
X167000000Y-128400000D03*
X167300000Y-146550000D03*
X168300000Y-119350000D03*
X168350000Y-132150000D03*
X168350000Y-134450000D03*
X168650000Y-122850000D03*
X168670000Y-127830000D03*
X168700000Y-108600000D03*
X168700000Y-114450000D03*
X168700000Y-130100000D03*
X169750000Y-104850000D03*
X169850000Y-44550000D03*
X170150000Y-110100000D03*
X170300000Y-117200000D03*
X170300000Y-144900000D03*
X170582500Y-146550000D03*
X170700000Y-93350000D03*
X170700000Y-100000000D03*
X170700000Y-119500000D03*
X170850000Y-126050000D03*
X170850000Y-126850000D03*
X170950000Y-134200000D03*
X172450000Y-70750000D03*
X172900000Y-118350000D03*
X172900000Y-134150000D03*
X172900000Y-141400000D03*
X173100000Y-121550000D03*
X173950000Y-123350000D03*
X174100000Y-83750000D03*
X174582500Y-131600000D03*
X174920000Y-126950000D03*
X175450000Y-58700000D03*
X176750000Y-110450000D03*
X176800000Y-48150000D03*
X177150000Y-70650000D03*
X177500000Y-145350000D03*
X177580000Y-126950000D03*
X178800000Y-39075000D03*
X179725000Y-73650000D03*
X180000000Y-64450000D03*
X180265000Y-70427600D03*
X180500000Y-84800000D03*
X180600000Y-51100000D03*
X180700000Y-78350000D03*
X180800000Y-92550000D03*
X180800000Y-100550000D03*
X180825000Y-108575000D03*
X180850000Y-67150000D03*
X180875000Y-134725000D03*
X180900000Y-128225000D03*
X181075000Y-121200000D03*
X181200000Y-141450000D03*
X181209384Y-137309384D03*
X181375000Y-138150000D03*
X181475000Y-80075000D03*
X181550000Y-64050000D03*
X181625000Y-149475000D03*
X181650000Y-83200000D03*
X182370000Y-138220000D03*
X183000000Y-139700000D03*
X183145384Y-140700000D03*
X183150000Y-141700000D03*
X183550000Y-76050000D03*
X184650000Y-132850000D03*
X185000000Y-138155000D03*
X185100000Y-72050000D03*
X185250000Y-113500000D03*
X185250000Y-130750000D03*
X185350000Y-88600000D03*
X185350000Y-96800000D03*
X185450000Y-104450000D03*
X185450000Y-123950000D03*
X187667500Y-129900000D03*
X187717500Y-143900000D03*
X187767500Y-145800000D03*
X187900000Y-51250000D03*
X187925000Y-77700000D03*
X187975000Y-84900000D03*
X188000000Y-61750000D03*
X188000000Y-75200000D03*
X188250000Y-140150000D03*
X188300000Y-133250000D03*
X189050000Y-45050000D03*
X189850000Y-126300000D03*
X190350000Y-147100000D03*
X193875000Y-118300000D03*
X194175000Y-110000000D03*
X194275000Y-99100000D03*
X194300000Y-88200000D03*
X194375000Y-148850000D03*
X194600000Y-39250000D03*
X194600000Y-75800000D03*
X194725000Y-57900000D03*
D11*
%TO.C,J5*%
X191120000Y-132630000D02*
X190020000Y-132630000D01*
X191120000Y-141270000D02*
X190020000Y-141270000D01*
X195150000Y-132630000D02*
X194350000Y-132630000D01*
X195150000Y-141270000D02*
X194350000Y-141270000D01*
D12*
%TO.C,TP27*%
X116790681Y-85109856D03*
%TO.C,J2*%
X127380000Y-50206800D03*
X127380000Y-52746800D03*
X127380000Y-55286800D03*
X127380000Y-57826800D03*
X127380000Y-60366800D03*
X127380000Y-62906800D03*
X127380000Y-65446800D03*
X127380000Y-67986800D03*
X127380000Y-70526800D03*
X127380000Y-73066800D03*
X127380000Y-75606800D03*
X127380000Y-78146800D03*
X127380000Y-80686800D03*
X127380000Y-83226800D03*
X127380000Y-85766800D03*
X127380000Y-88306800D03*
%TO.C,J1*%
X152410000Y-124075000D03*
X152410000Y-126615000D03*
X154950000Y-124075000D03*
X154950000Y-126615000D03*
%TO.C,J3*%
X155314000Y-50194800D03*
X155314000Y-52734800D03*
X155314000Y-55274800D03*
X155314000Y-57814800D03*
X155314000Y-60354800D03*
X155314000Y-62894800D03*
X155314000Y-65434800D03*
X155314000Y-67974800D03*
X155314000Y-70514800D03*
X155314000Y-73054800D03*
X155314000Y-75594800D03*
X155314000Y-78134800D03*
X155314000Y-80674800D03*
X155314000Y-83214800D03*
X155314000Y-85754800D03*
X155314000Y-88294800D03*
%TO.C,J1*%
X157490000Y-124075000D03*
X157490000Y-126615000D03*
%TO.C,TP6*%
X165814000Y-53368133D03*
M02*
