%TF.GenerationSoftware,KiCad,Pcbnew,9.0.6*%
%TF.CreationDate,2026-01-06T10:28:57+00:00*%
%TF.ProjectId,PyBoardTester,5079426f-6172-4645-9465-737465722e6b,rev?*%
%TF.SameCoordinates,Original*%
%TF.FileFunction,Copper,L3,Inr*%
%TF.FilePolarity,Positive*%
%FSLAX46Y46*%
G04 Gerber Fmt 4.6, Leading zero omitted, Abs format (unit mm)*
G04 Created by KiCad (PCBNEW 9.0.6) date 2026-01-06 10:28:57*
%MOMM*%
%LPD*%
G01*
G04 APERTURE LIST*
%TA.AperFunction,ComponentPad*%
%ADD10R,1.700000X1.700000*%
%TD*%
%TA.AperFunction,ComponentPad*%
%ADD11C,1.700000*%
%TD*%
%TA.AperFunction,ComponentPad*%
%ADD12C,2.000000*%
%TD*%
%TA.AperFunction,HeatsinkPad*%
%ADD13O,2.100000X1.000000*%
%TD*%
%TA.AperFunction,HeatsinkPad*%
%ADD14O,1.800000X1.000000*%
%TD*%
%TA.AperFunction,ViaPad*%
%ADD15C,0.550000*%
%TD*%
%TA.AperFunction,Conductor*%
%ADD16C,0.300000*%
%TD*%
%TA.AperFunction,Conductor*%
%ADD17C,0.220000*%
%TD*%
%TA.AperFunction,Profile*%
%ADD18C,0.500000*%
%TD*%
G04 APERTURE END LIST*
D10*
%TO.N,V+#1*%
%TO.C,J3*%
X155314000Y-50194800D03*
D11*
%TO.N,+3V3#1*%
X155314000Y-52734800D03*
%TO.N,GND#1*%
X155314000Y-55274800D03*
%TO.N,/~{RST}#1 actuador*%
X155314000Y-57814800D03*
%TO.N,/module on test/PB1-Y12*%
X155314000Y-60354800D03*
%TO.N,/module on test/PB0-Y11*%
X155314000Y-62894800D03*
%TO.N,/module on test/PB11-Y10*%
X155314000Y-65434800D03*
%TO.N,/module on test/PB10-Y9*%
X155314000Y-67974800D03*
%TO.N,/module on test/PA3-X4*%
X155314000Y-70514800D03*
%TO.N,/module on test/PA2-X3*%
X155314000Y-73054800D03*
%TO.N,/module on test/PA1-X2*%
X155314000Y-75594800D03*
%TO.N,/module on test/PA0-X1*%
X155314000Y-78134800D03*
%TO.N,/module on test/PA3-X4*%
X155314000Y-80674800D03*
%TO.N,/module on test/PA2-X3*%
X155314000Y-83214800D03*
%TO.N,/module on test/PA1-X2*%
X155314000Y-85754800D03*
%TO.N,/module on test/PA0-X1*%
X155314000Y-88294800D03*
%TD*%
D10*
%TO.N,USB+5V*%
%TO.C,J4*%
X178250000Y-118550000D03*
D11*
%TO.N,Vin*%
X175710000Y-118550000D03*
%TO.N,V+#2*%
X173170000Y-118550000D03*
%TD*%
D12*
%TO.N,GND*%
%TO.C,TP27*%
X116790681Y-85109856D03*
%TD*%
D10*
%TO.N,/PDI_DATA*%
%TO.C,J1*%
X157490000Y-124075000D03*
D11*
%TO.N,+3V3*%
X157490000Y-126615000D03*
%TO.N,unconnected-(J1-Pin_3-Pad3)*%
X154950000Y-124075000D03*
%TO.N,unconnected-(J1-Pin_4-Pad4)*%
X154950000Y-126615000D03*
%TO.N,/PDI_CLOCK*%
X152410000Y-124075000D03*
%TO.N,GND*%
X152410000Y-126615000D03*
%TD*%
D13*
%TO.N,Net-(J5-SHIELD)*%
%TO.C,J5*%
X190570000Y-141270000D03*
D14*
X194750000Y-141270000D03*
D13*
X190570000Y-132630000D03*
D14*
X194750000Y-132630000D03*
%TD*%
D12*
%TO.N,GND#1*%
%TO.C,TP6*%
X165814000Y-53368133D03*
%TD*%
D10*
%TO.N,/module on test/PC6-Y1*%
%TO.C,J2*%
X127380000Y-50206800D03*
D11*
%TO.N,/module on test/PC7-Y2*%
X127380000Y-52746800D03*
%TO.N,/module on test/PB12-Y5*%
X127380000Y-55286800D03*
%TO.N,/module on test/PB13-Y6*%
X127380000Y-57826800D03*
%TO.N,/module on test/PB12-Y5*%
X127380000Y-60366800D03*
%TO.N,/module on test/PB13-Y6*%
X127380000Y-62906800D03*
%TO.N,/module on test/PB10-Y9*%
X127380000Y-65446800D03*
%TO.N,/module on test/PB11-Y10*%
X127380000Y-67986800D03*
%TO.N,/module on test/PB0-Y11*%
X127380000Y-70526800D03*
%TO.N,/module on test/PB1-Y12*%
X127380000Y-73066800D03*
%TO.N,/module on test/PC4-X11*%
X127380000Y-75606800D03*
%TO.N,/module on test/PC5-X12*%
X127380000Y-78146800D03*
%TO.N,/~{RST}#2 feedback*%
X127380000Y-80686800D03*
%TO.N,GND*%
X127380000Y-83226800D03*
%TO.N,+3V3#2*%
X127380000Y-85766800D03*
%TO.N,V+#2*%
X127380000Y-88306800D03*
%TD*%
D15*
%TO.N,+3V3#2*%
X121350000Y-114050000D03*
%TO.N,V+#2*%
X122550000Y-105900000D03*
X123450000Y-117900000D03*
%TO.N,V+#1*%
X159700000Y-105500000D03*
%TO.N,+3V3#1*%
X159700000Y-112200000D03*
%TO.N,/module on test/PB1-Y12*%
X135200000Y-60644800D03*
%TO.N,/module on test/PB0-Y11*%
X134250000Y-62894800D03*
%TO.N,/module on test/PB13-Y6*%
X135350000Y-130200000D03*
%TO.N,/module on test/PB10-Y9*%
X134250000Y-130000000D03*
%TO.N,/~{RST}#2 feedback*%
X132600000Y-129100000D03*
%TO.N,GND*%
X150650000Y-127350000D03*
X133050000Y-82600000D03*
X157750000Y-80700000D03*
X170950000Y-134200000D03*
X157950000Y-89750000D03*
X158150000Y-105800000D03*
X133300000Y-105050000D03*
X181550000Y-122750000D03*
X169750000Y-104850000D03*
X157150000Y-119300000D03*
X131200000Y-66900000D03*
X149850000Y-117350000D03*
X185100000Y-72050000D03*
X145200000Y-114500000D03*
X140200000Y-133600000D03*
X187767500Y-145800000D03*
X147800000Y-119350000D03*
X147362500Y-114561200D03*
X131950000Y-108300000D03*
X133363500Y-135500000D03*
X140200000Y-129850000D03*
X190550000Y-98950000D03*
X160750000Y-57550000D03*
X177500000Y-133350000D03*
X190450000Y-88350000D03*
X180550000Y-137600000D03*
X181200000Y-141450000D03*
X130400000Y-118950000D03*
X175450000Y-58700000D03*
X176800000Y-48150000D03*
X132900000Y-146000000D03*
X147500000Y-92350000D03*
X147650000Y-69100000D03*
X133950000Y-61700000D03*
X185250000Y-130750000D03*
X124900000Y-119750000D03*
X187900000Y-51250000D03*
X136800000Y-104550000D03*
X174100000Y-83750000D03*
X181750000Y-84450000D03*
X187667500Y-129900000D03*
X157900000Y-63700000D03*
X136850000Y-94150000D03*
X173950000Y-123350000D03*
X133050000Y-97650000D03*
X138350000Y-133600000D03*
X173100000Y-121550000D03*
X181750000Y-127600000D03*
X150850000Y-44650000D03*
X166500000Y-132450000D03*
X185450000Y-104450000D03*
X188000000Y-75200000D03*
X172450000Y-70750000D03*
X177500000Y-145350000D03*
X136500000Y-73450000D03*
X140750000Y-112350000D03*
X138350000Y-129850000D03*
X190150000Y-118150000D03*
X119650000Y-93700000D03*
X170700000Y-93350000D03*
X120650000Y-121700000D03*
X142100000Y-131750000D03*
X100850000Y-111500000D03*
X132000000Y-115000000D03*
X129750000Y-71700000D03*
X147750000Y-61800000D03*
X170700000Y-100000000D03*
X189050000Y-45050000D03*
X124750000Y-115006800D03*
X122700000Y-115150000D03*
X123600000Y-101850000D03*
X168350000Y-132150000D03*
X133000000Y-90750000D03*
X165150000Y-119300000D03*
X132850000Y-44350000D03*
X181550000Y-99900000D03*
X142800000Y-97950000D03*
X142100000Y-129850000D03*
X146950000Y-75750000D03*
X170850000Y-126050000D03*
X185000000Y-138155000D03*
X154800000Y-105700000D03*
X149900000Y-66550000D03*
X170300000Y-117200000D03*
X157150000Y-138000000D03*
X141400000Y-122300000D03*
X140200000Y-131750000D03*
X136800000Y-68800000D03*
X132000000Y-113056800D03*
X165100000Y-105400000D03*
X183550000Y-76050000D03*
X159712500Y-110311200D03*
X136500000Y-66800000D03*
X141750000Y-78600000D03*
X130550000Y-124800000D03*
X160700000Y-77550000D03*
X150100000Y-84700000D03*
X155750000Y-132100000D03*
X185250000Y-113500000D03*
X158000000Y-54300000D03*
X97400000Y-46350000D03*
X147650000Y-83650000D03*
X169850000Y-44550000D03*
X172900000Y-134150000D03*
X185350000Y-88600000D03*
X96350000Y-72250000D03*
X179900000Y-71250000D03*
X130450000Y-115050000D03*
X142100000Y-133600000D03*
X180700000Y-64700000D03*
X149700000Y-108350000D03*
X157700000Y-71950000D03*
X149150000Y-78150000D03*
X149200000Y-103250000D03*
X146600000Y-122600000D03*
X147312500Y-108511200D03*
X133300000Y-79550000D03*
X158100000Y-101600000D03*
X113900000Y-44250000D03*
X147650000Y-110750000D03*
X136550000Y-83550000D03*
X140200000Y-123000000D03*
X151950000Y-82200000D03*
X170582500Y-146550000D03*
X140450000Y-119250000D03*
X149700000Y-114350000D03*
X137800000Y-106975000D03*
X96850000Y-101950000D03*
X142200000Y-138950000D03*
X105600000Y-59900000D03*
X147700000Y-102450000D03*
X136750000Y-114806800D03*
X132100000Y-106325000D03*
X159712500Y-116161200D03*
X170850000Y-126850000D03*
X97250000Y-123100000D03*
X180700000Y-78350000D03*
X155562500Y-117561200D03*
X142300000Y-117350000D03*
X185350000Y-96800000D03*
X168350000Y-134450000D03*
X159600000Y-124600000D03*
X145500000Y-139050000D03*
X106250000Y-83450000D03*
X159800000Y-136150000D03*
X124750000Y-108400000D03*
X147450000Y-127600000D03*
X130450000Y-136300000D03*
X160600000Y-86250000D03*
X189850000Y-126300000D03*
X96500000Y-143600000D03*
X174582500Y-131600000D03*
X137300000Y-137600000D03*
X165500000Y-112550000D03*
X129600000Y-74050000D03*
X176750000Y-110450000D03*
X187717500Y-143900000D03*
X142050000Y-61850000D03*
X161000000Y-92050000D03*
X149250000Y-71400000D03*
X125300000Y-103800000D03*
X190450000Y-109850000D03*
X169000000Y-137650000D03*
X136400000Y-59900000D03*
X188250000Y-140150000D03*
X139950000Y-115900000D03*
X170150000Y-110100000D03*
X130200000Y-63600000D03*
X188300000Y-133250000D03*
X190350000Y-147100000D03*
X123900000Y-89300000D03*
X111750000Y-139900000D03*
X122300000Y-110700000D03*
X170600000Y-119100000D03*
X105500000Y-131500000D03*
X165550000Y-115900000D03*
X140900000Y-108800000D03*
X124300000Y-112950000D03*
X135700000Y-128250000D03*
X131800000Y-119000000D03*
X133600000Y-107200000D03*
X151350000Y-132200000D03*
X122600000Y-117456800D03*
X185400000Y-82100000D03*
X133750000Y-66750000D03*
X157312500Y-114261200D03*
X114000000Y-100900000D03*
X170300000Y-144900000D03*
X181650000Y-107450000D03*
X138350000Y-131750000D03*
X160750000Y-66850000D03*
X135150000Y-119300000D03*
X165450000Y-125800000D03*
X132850000Y-137400000D03*
X122510000Y-108450000D03*
X174920000Y-126950000D03*
X161400000Y-146350000D03*
X147750000Y-117400000D03*
X164550000Y-137250000D03*
X123900000Y-94700000D03*
X154850000Y-121900000D03*
X184650000Y-132850000D03*
X177580000Y-126950000D03*
X134950000Y-125950000D03*
X153500000Y-56700000D03*
X158850000Y-51750000D03*
X131850000Y-117600000D03*
X157312500Y-108311200D03*
X160850000Y-98650000D03*
X181700000Y-114500000D03*
X137200000Y-117600000D03*
X133350000Y-68950000D03*
X188000000Y-61750000D03*
X165400000Y-108750000D03*
X148450000Y-141850000D03*
X116200000Y-114850000D03*
X190650000Y-77700000D03*
X180600000Y-51100000D03*
X135050000Y-132400000D03*
X185450000Y-123950000D03*
X152150000Y-139150000D03*
X130400000Y-130950000D03*
X145100000Y-108450000D03*
X158000000Y-95400000D03*
X160850000Y-105850000D03*
X147700000Y-130450000D03*
X150350000Y-119800000D03*
X181650000Y-92700000D03*
%TO.N,/STATE_LED*%
X141730999Y-126941690D03*
X146750000Y-134200000D03*
%TO.N,/~{RST}#1 actuador*%
X147800000Y-133600000D03*
%TO.N,/V+#1_chck*%
X141650000Y-107343700D03*
X139000000Y-125550000D03*
%TO.N,/+3V3#1_chck*%
X140700000Y-113400000D03*
X138285000Y-124650000D03*
%TO.N,/V+#1_ok*%
X138450000Y-136750000D03*
X148950000Y-136400000D03*
X149300000Y-105100000D03*
%TO.N,/+3V3#1_ok*%
X138850000Y-137850000D03*
X149600000Y-118950000D03*
X149600000Y-137264000D03*
%TO.N,/V+#2_ok*%
X139550000Y-138600000D03*
X131300000Y-138600000D03*
X132675000Y-103900000D03*
%TO.N,/+3V3#2_ok*%
X131900000Y-120500000D03*
X131900000Y-139400000D03*
X140150000Y-139400000D03*
%TO.N,/module on test/PB11-Y10*%
X133200000Y-129900000D03*
%TO.N,/module on test/PA1-X2*%
X152614000Y-75594800D03*
%TO.N,/module on test/PA0-X1*%
X151264000Y-78144800D03*
%TO.N,/module on test/PA2-X3*%
X149764000Y-73044800D03*
X149764000Y-83194800D03*
%TO.N,+3V3*%
X144700000Y-130350000D03*
X146300000Y-126250000D03*
X150850000Y-114250000D03*
X167300000Y-146550000D03*
X166700000Y-117200000D03*
X133350000Y-131500000D03*
X166900000Y-125950000D03*
X142050000Y-137849000D03*
X145075000Y-132675000D03*
X167000000Y-111400000D03*
X131300000Y-105650000D03*
X168700000Y-108600000D03*
X166750000Y-120950000D03*
X166950000Y-106000000D03*
X168700000Y-130100000D03*
X168670000Y-127830000D03*
X168300000Y-119350000D03*
X151078367Y-110271633D03*
X166800000Y-130900000D03*
X130500000Y-113200000D03*
X167000000Y-128400000D03*
X168650000Y-122850000D03*
X140328500Y-126671500D03*
X168700000Y-114450000D03*
%TO.N,/FTDI_CTS*%
X164950000Y-141650000D03*
X172900000Y-141400000D03*
%TO.N,/RST#1_LED*%
X143359022Y-139200000D03*
X182375000Y-74525000D03*
X183150000Y-141700000D03*
%TO.N,/RST#2_LED*%
X144100000Y-138550000D03*
X182400000Y-71350000D03*
X183145384Y-140700000D03*
%TO.N,/SUPPLY_LED*%
X183000000Y-139700000D03*
X181650000Y-67250000D03*
X143800000Y-136050000D03*
%TO.N,/IOs_LED*%
X144150000Y-135050000D03*
X182370000Y-138220000D03*
X182450000Y-65000000D03*
%TD*%
D16*
%TO.N,V+#2*%
X123874000Y-118324000D02*
X172944000Y-118324000D01*
X123450000Y-117900000D02*
X123874000Y-118324000D01*
X172944000Y-118324000D02*
X173170000Y-118550000D01*
D17*
%TO.N,/module on test/PB10-Y9*%
X130946800Y-65446800D02*
X127380000Y-65446800D01*
X133474800Y-67974800D02*
X130946800Y-65446800D01*
X155314000Y-67974800D02*
X133474800Y-67974800D01*
%TO.N,/V+#1_ok*%
X148950000Y-136400000D02*
X148600000Y-136750000D01*
X148600000Y-136750000D02*
X138450000Y-136750000D01*
%TO.N,/+3V3#1_ok*%
X139436000Y-137264000D02*
X138850000Y-137850000D01*
X149600000Y-137264000D02*
X139436000Y-137264000D01*
%TO.N,/V+#2_ok*%
X131300000Y-138600000D02*
X139550000Y-138600000D01*
%TO.N,/+3V3#2_ok*%
X140150000Y-139400000D02*
X131900000Y-139400000D01*
%TO.N,+3V3*%
X166700000Y-128700000D02*
X167050000Y-128700000D01*
X145236000Y-129814000D02*
X166986000Y-129814000D01*
X131300000Y-105650000D02*
X138550000Y-105650000D01*
X151703934Y-110897200D02*
X166797200Y-110897200D01*
X151078367Y-110271633D02*
X151703934Y-110897200D01*
X149950000Y-128450000D02*
X166700000Y-128450000D01*
X140328500Y-126671500D02*
X140328500Y-127878500D01*
X140328500Y-127878500D02*
X141500000Y-129050000D01*
X150100000Y-131350000D02*
X167800000Y-131350000D01*
X149850000Y-130500000D02*
X167800000Y-130500000D01*
X141500000Y-129050000D02*
X166350000Y-129050000D01*
X138550000Y-105650000D02*
X139500000Y-106600000D01*
X139500000Y-106600000D02*
X167000000Y-106600000D01*
X166350000Y-129050000D02*
X166700000Y-128700000D01*
X145075000Y-132675000D02*
X145500000Y-132250000D01*
X166797200Y-110897200D02*
X166850000Y-110950000D01*
X150850000Y-114250000D02*
X151550000Y-113550000D01*
X133700000Y-131150000D02*
X149200000Y-131150000D01*
X166714000Y-111614000D02*
X167000000Y-111900000D01*
X166700000Y-128450000D02*
X167200000Y-127950000D01*
X151550000Y-113550000D02*
X167100000Y-113550000D01*
X131264000Y-111614000D02*
X166714000Y-111614000D01*
X157490000Y-126615000D02*
X168365000Y-126615000D01*
X133350000Y-131500000D02*
X133700000Y-131150000D01*
X147750000Y-126250000D02*
X149950000Y-128450000D01*
X145500000Y-132250000D02*
X149200000Y-132250000D01*
X130500000Y-112378000D02*
X131264000Y-111614000D01*
X144700000Y-130350000D02*
X145236000Y-129814000D01*
X149200000Y-131150000D02*
X149850000Y-130500000D01*
X146300000Y-126250000D02*
X147750000Y-126250000D01*
X130500000Y-113200000D02*
X130500000Y-112378000D01*
X149200000Y-132250000D02*
X150100000Y-131350000D01*
%TO.N,/FTDI_CTS*%
X172900000Y-141400000D02*
X172500000Y-141400000D01*
X172250000Y-141650000D02*
X164950000Y-141650000D01*
X172500000Y-141400000D02*
X172250000Y-141650000D01*
%TO.N,/RST#1_LED*%
X181800000Y-140350000D02*
X144509022Y-140350000D01*
X183150000Y-141700000D02*
X181800000Y-140350000D01*
X144509022Y-140350000D02*
X143359022Y-139200000D01*
%TO.N,/RST#2_LED*%
X145400000Y-139850000D02*
X144100000Y-138550000D01*
X183145384Y-140700000D02*
X182295384Y-139850000D01*
X182295384Y-139850000D02*
X145400000Y-139850000D01*
%TO.N,/SUPPLY_LED*%
X150000000Y-135700000D02*
X144150000Y-135700000D01*
X144150000Y-135700000D02*
X143800000Y-136050000D01*
X153600000Y-139300000D02*
X150000000Y-135700000D01*
X183000000Y-139700000D02*
X182600000Y-139300000D01*
X182600000Y-139300000D02*
X153600000Y-139300000D01*
%TO.N,/IOs_LED*%
X150345384Y-135050000D02*
X144150000Y-135050000D01*
X154045384Y-138750000D02*
X150345384Y-135050000D01*
X181840000Y-138750000D02*
X154045384Y-138750000D01*
X182370000Y-138220000D02*
X181840000Y-138750000D01*
%TD*%
%TA.AperFunction,Conductor*%
%TO.N,+3V3*%
G36*
X169143039Y-118694185D02*
G01*
X169188794Y-118746989D01*
X169200000Y-118798500D01*
X169200000Y-131426000D01*
X169180315Y-131493039D01*
X169127511Y-131538794D01*
X169076000Y-131550000D01*
X166374000Y-131550000D01*
X166306961Y-131530315D01*
X166261206Y-131477511D01*
X166250000Y-131426000D01*
X166250000Y-118798500D01*
X166269685Y-118731461D01*
X166322489Y-118685706D01*
X166374000Y-118674500D01*
X169076000Y-118674500D01*
X169143039Y-118694185D01*
G37*
%TD.AperFunction*%
%TA.AperFunction,Conductor*%
G36*
X169143039Y-105569685D02*
G01*
X169188794Y-105622489D01*
X169200000Y-105674000D01*
X169200000Y-117849500D01*
X169180315Y-117916539D01*
X169127511Y-117962294D01*
X169076000Y-117973500D01*
X166374000Y-117973500D01*
X166306961Y-117953815D01*
X166261206Y-117901011D01*
X166250000Y-117849500D01*
X166250000Y-105674000D01*
X166269685Y-105606961D01*
X166322489Y-105561206D01*
X166374000Y-105550000D01*
X169076000Y-105550000D01*
X169143039Y-105569685D01*
G37*
%TD.AperFunction*%
%TD*%
%TA.AperFunction,Conductor*%
%TO.N,GND*%
G36*
X149554064Y-130144185D02*
G01*
X149599819Y-130196989D01*
X149609763Y-130266147D01*
X149580738Y-130329703D01*
X149574706Y-130336181D01*
X149107705Y-130803181D01*
X149046382Y-130836666D01*
X149020024Y-130839500D01*
X145180367Y-130839500D01*
X145113328Y-130819815D01*
X145067573Y-130767011D01*
X145057629Y-130697853D01*
X145077859Y-130649827D01*
X145076431Y-130649003D01*
X145100039Y-130608112D01*
X145143095Y-130533536D01*
X145175500Y-130412601D01*
X145175500Y-130364975D01*
X145184144Y-130335534D01*
X145190668Y-130305548D01*
X145194422Y-130300532D01*
X145195185Y-130297936D01*
X145211819Y-130277294D01*
X145328294Y-130160819D01*
X145389617Y-130127334D01*
X145415975Y-130124500D01*
X149487025Y-130124500D01*
X149554064Y-130144185D01*
G37*
%TD.AperFunction*%
%TA.AperFunction,Conductor*%
G36*
X191742448Y-42669685D02*
G01*
X191788203Y-42722489D01*
X191799407Y-42774588D01*
X191650561Y-74076929D01*
X191376004Y-131816194D01*
X191356000Y-131883139D01*
X191302980Y-131928642D01*
X191233775Y-131938257D01*
X191227815Y-131937222D01*
X191188993Y-131929500D01*
X189951007Y-131929500D01*
X189951005Y-131929500D01*
X189815677Y-131956418D01*
X189815667Y-131956421D01*
X189688195Y-132009221D01*
X189688182Y-132009228D01*
X189573458Y-132085885D01*
X189573454Y-132085888D01*
X189475888Y-132183454D01*
X189475885Y-132183458D01*
X189399228Y-132298182D01*
X189399221Y-132298195D01*
X189346421Y-132425667D01*
X189346418Y-132425677D01*
X189319500Y-132561004D01*
X189319500Y-132561007D01*
X189319500Y-132698993D01*
X189319500Y-132698995D01*
X189319499Y-132698995D01*
X189346418Y-132834322D01*
X189346421Y-132834332D01*
X189399221Y-132961804D01*
X189399228Y-132961817D01*
X189475885Y-133076541D01*
X189475888Y-133076545D01*
X189573454Y-133174111D01*
X189573458Y-133174114D01*
X189688182Y-133250771D01*
X189688195Y-133250778D01*
X189815667Y-133303578D01*
X189815672Y-133303580D01*
X189815676Y-133303580D01*
X189815677Y-133303581D01*
X189951004Y-133330500D01*
X190822732Y-133330500D01*
X190889771Y-133350185D01*
X190935526Y-133402989D01*
X190945470Y-133472147D01*
X190916445Y-133535703D01*
X190874168Y-133566187D01*
X190874203Y-133566248D01*
X190873608Y-133566591D01*
X190870182Y-133569062D01*
X190867163Y-133570312D01*
X190747338Y-133639492D01*
X190747333Y-133639496D01*
X190649496Y-133737333D01*
X190649492Y-133737338D01*
X190580313Y-133857161D01*
X190580312Y-133857164D01*
X190544500Y-133990817D01*
X190544500Y-134129183D01*
X190580249Y-134262599D01*
X190580312Y-134262835D01*
X190580313Y-134262838D01*
X190649492Y-134382661D01*
X190649494Y-134382664D01*
X190649495Y-134382665D01*
X190747335Y-134480505D01*
X190747336Y-134480506D01*
X190747338Y-134480507D01*
X190767184Y-134491965D01*
X190867164Y-134549688D01*
X191000817Y-134585500D01*
X191000819Y-134585500D01*
X191139180Y-134585500D01*
X191139183Y-134585500D01*
X191206259Y-134567527D01*
X191276105Y-134569190D01*
X191333967Y-134608352D01*
X191361472Y-134672580D01*
X191362348Y-134687892D01*
X191340857Y-139207529D01*
X191320853Y-139274474D01*
X191267833Y-139319977D01*
X191198628Y-139329592D01*
X191184771Y-139326715D01*
X191139183Y-139314500D01*
X191000817Y-139314500D01*
X190867164Y-139350312D01*
X190867161Y-139350313D01*
X190747338Y-139419492D01*
X190747333Y-139419496D01*
X190649496Y-139517333D01*
X190649492Y-139517338D01*
X190580313Y-139637161D01*
X190580312Y-139637164D01*
X190544500Y-139770817D01*
X190544500Y-139909183D01*
X190579334Y-140039184D01*
X190580312Y-140042835D01*
X190580313Y-140042838D01*
X190649492Y-140162661D01*
X190649494Y-140162664D01*
X190649495Y-140162665D01*
X190747335Y-140260505D01*
X190867164Y-140329688D01*
X190867167Y-140329689D01*
X190870182Y-140330938D01*
X190872337Y-140332675D01*
X190874203Y-140333752D01*
X190874035Y-140334042D01*
X190924587Y-140374778D01*
X190946653Y-140441072D01*
X190929375Y-140508771D01*
X190878239Y-140556383D01*
X190822732Y-140569500D01*
X189951005Y-140569500D01*
X189815677Y-140596418D01*
X189815667Y-140596421D01*
X189688195Y-140649221D01*
X189688182Y-140649228D01*
X189573458Y-140725885D01*
X189573454Y-140725888D01*
X189475888Y-140823454D01*
X189475885Y-140823458D01*
X189399228Y-140938182D01*
X189399221Y-140938195D01*
X189346421Y-141065667D01*
X189346418Y-141065677D01*
X189319500Y-141201004D01*
X189319500Y-141201007D01*
X189319500Y-141338993D01*
X189319500Y-141338995D01*
X189319499Y-141338995D01*
X189346418Y-141474322D01*
X189346421Y-141474332D01*
X189399221Y-141601804D01*
X189399228Y-141601817D01*
X189475885Y-141716541D01*
X189475888Y-141716545D01*
X189573454Y-141814111D01*
X189573458Y-141814114D01*
X189688182Y-141890771D01*
X189688195Y-141890778D01*
X189811773Y-141941965D01*
X189815672Y-141943580D01*
X189815676Y-141943580D01*
X189815677Y-141943581D01*
X189951004Y-141970500D01*
X189951007Y-141970500D01*
X191188990Y-141970500D01*
X191188993Y-141970500D01*
X191188995Y-141970499D01*
X191190969Y-141970305D01*
X191191998Y-141970500D01*
X191195085Y-141970500D01*
X191195085Y-141971085D01*
X191259616Y-141983319D01*
X191310329Y-142031381D01*
X191327130Y-142094297D01*
X191300587Y-147676590D01*
X191280583Y-147743535D01*
X191227563Y-147789038D01*
X191176588Y-147800000D01*
X93824000Y-147800000D01*
X93756961Y-147780315D01*
X93711206Y-147727511D01*
X93700000Y-147676000D01*
X93700000Y-146487399D01*
X166824500Y-146487399D01*
X166824500Y-146612601D01*
X166856905Y-146733536D01*
X166919505Y-146841964D01*
X167008036Y-146930495D01*
X167116464Y-146993095D01*
X167237399Y-147025500D01*
X167237401Y-147025500D01*
X167362599Y-147025500D01*
X167362601Y-147025500D01*
X167483536Y-146993095D01*
X167591964Y-146930495D01*
X167680495Y-146841964D01*
X167743095Y-146733536D01*
X167775500Y-146612601D01*
X167775500Y-146487399D01*
X167743095Y-146366464D01*
X167680495Y-146258036D01*
X167591964Y-146169505D01*
X167483536Y-146106905D01*
X167483537Y-146106905D01*
X167443224Y-146096103D01*
X167362601Y-146074500D01*
X167237399Y-146074500D01*
X167156775Y-146096103D01*
X167116463Y-146106905D01*
X167008037Y-146169504D01*
X167008034Y-146169506D01*
X166919506Y-146258034D01*
X166919504Y-146258037D01*
X166856905Y-146366463D01*
X166856905Y-146366464D01*
X166824500Y-146487399D01*
X93700000Y-146487399D01*
X93700000Y-141587399D01*
X164474500Y-141587399D01*
X164474500Y-141712601D01*
X164506905Y-141833536D01*
X164569505Y-141941964D01*
X164658036Y-142030495D01*
X164766464Y-142093095D01*
X164887399Y-142125500D01*
X164887401Y-142125500D01*
X165012599Y-142125500D01*
X165012601Y-142125500D01*
X165133536Y-142093095D01*
X165241964Y-142030495D01*
X165275640Y-141996819D01*
X165336963Y-141963334D01*
X165363321Y-141960500D01*
X172290876Y-141960500D01*
X172290879Y-141960500D01*
X172369849Y-141939340D01*
X172440652Y-141898462D01*
X172509427Y-141829686D01*
X172570749Y-141796202D01*
X172640441Y-141801186D01*
X172659107Y-141809981D01*
X172693240Y-141829687D01*
X172716464Y-141843095D01*
X172837399Y-141875500D01*
X172837401Y-141875500D01*
X172962599Y-141875500D01*
X172962601Y-141875500D01*
X173083536Y-141843095D01*
X173191964Y-141780495D01*
X173280495Y-141691964D01*
X173343095Y-141583536D01*
X173375500Y-141462601D01*
X173375500Y-141337399D01*
X173343095Y-141216464D01*
X173280495Y-141108036D01*
X173191964Y-141019505D01*
X173083536Y-140956905D01*
X173083537Y-140956905D01*
X173043224Y-140946103D01*
X172962601Y-140924500D01*
X172837399Y-140924500D01*
X172756775Y-140946103D01*
X172716463Y-140956905D01*
X172608037Y-141019504D01*
X172608034Y-141019506D01*
X172574360Y-141053181D01*
X172513037Y-141086666D01*
X172486679Y-141089500D01*
X172459118Y-141089500D01*
X172437958Y-141095170D01*
X172437957Y-141095169D01*
X172380156Y-141110658D01*
X172380149Y-141110661D01*
X172309352Y-141151535D01*
X172309349Y-141151537D01*
X172309349Y-141151538D01*
X172309348Y-141151539D01*
X172157703Y-141303182D01*
X172096382Y-141336666D01*
X172070024Y-141339500D01*
X165363321Y-141339500D01*
X165296282Y-141319815D01*
X165275640Y-141303181D01*
X165241965Y-141269506D01*
X165241964Y-141269505D01*
X165133536Y-141206905D01*
X165133537Y-141206905D01*
X165093224Y-141196103D01*
X165012601Y-141174500D01*
X164887399Y-141174500D01*
X164806775Y-141196103D01*
X164766463Y-141206905D01*
X164658037Y-141269504D01*
X164658034Y-141269506D01*
X164569506Y-141358034D01*
X164569504Y-141358037D01*
X164506905Y-141466463D01*
X164506905Y-141466464D01*
X164474500Y-141587399D01*
X93700000Y-141587399D01*
X93700000Y-138537399D01*
X130824500Y-138537399D01*
X130824500Y-138662601D01*
X130856905Y-138783536D01*
X130919505Y-138891964D01*
X131008036Y-138980495D01*
X131116464Y-139043095D01*
X131237399Y-139075500D01*
X131237401Y-139075500D01*
X131333076Y-139075500D01*
X131400115Y-139095185D01*
X131445870Y-139147989D01*
X131455814Y-139217147D01*
X131452851Y-139231591D01*
X131424500Y-139337399D01*
X131424500Y-139462601D01*
X131456905Y-139583536D01*
X131519505Y-139691964D01*
X131608036Y-139780495D01*
X131716464Y-139843095D01*
X131837399Y-139875500D01*
X131837401Y-139875500D01*
X131962599Y-139875500D01*
X131962601Y-139875500D01*
X132083536Y-139843095D01*
X132191964Y-139780495D01*
X132225640Y-139746819D01*
X132286963Y-139713334D01*
X132313321Y-139710500D01*
X139736679Y-139710500D01*
X139803718Y-139730185D01*
X139824360Y-139746819D01*
X139858036Y-139780495D01*
X139966464Y-139843095D01*
X140087399Y-139875500D01*
X140087401Y-139875500D01*
X140212599Y-139875500D01*
X140212601Y-139875500D01*
X140333536Y-139843095D01*
X140441964Y-139780495D01*
X140530495Y-139691964D01*
X140593095Y-139583536D01*
X140625500Y-139462601D01*
X140625500Y-139337399D01*
X140593095Y-139216464D01*
X140530495Y-139108036D01*
X140441964Y-139019505D01*
X140333536Y-138956905D01*
X140333537Y-138956905D01*
X140293224Y-138946103D01*
X140212601Y-138924500D01*
X140116924Y-138924500D01*
X140049885Y-138904815D01*
X140004130Y-138852011D01*
X139994186Y-138782853D01*
X139997149Y-138768406D01*
X140005555Y-138737036D01*
X140025500Y-138662601D01*
X140025500Y-138537399D01*
X139993095Y-138416464D01*
X139930495Y-138308036D01*
X139841964Y-138219505D01*
X139733536Y-138156905D01*
X139733537Y-138156905D01*
X139674044Y-138140964D01*
X139612601Y-138124500D01*
X139487399Y-138124500D01*
X139487393Y-138124500D01*
X139459259Y-138132039D01*
X139425309Y-138131230D01*
X139391321Y-138130969D01*
X139390450Y-138130399D01*
X139389410Y-138130375D01*
X139361272Y-138111330D01*
X139332835Y-138092745D01*
X139332410Y-138091795D01*
X139331548Y-138091212D01*
X139318176Y-138059984D01*
X139304298Y-138028968D01*
X139304375Y-138027753D01*
X139304045Y-138026983D01*
X139304569Y-137993675D01*
X139305602Y-137986857D01*
X139325500Y-137912601D01*
X139325500Y-137855627D01*
X139326901Y-137846387D01*
X139337870Y-137822846D01*
X139345185Y-137797937D01*
X139355365Y-137785302D01*
X139356413Y-137783056D01*
X139357968Y-137782072D01*
X139361819Y-137777295D01*
X139528295Y-137610819D01*
X139589618Y-137577334D01*
X139615976Y-137574500D01*
X141469679Y-137574500D01*
X141536718Y-137594185D01*
X141582473Y-137646989D01*
X141592417Y-137716147D01*
X141589453Y-137730595D01*
X141574500Y-137786396D01*
X141574500Y-137786399D01*
X141574500Y-137911601D01*
X141606905Y-138032536D01*
X141669505Y-138140964D01*
X141758036Y-138229495D01*
X141866464Y-138292095D01*
X141987399Y-138324500D01*
X141987401Y-138324500D01*
X142112599Y-138324500D01*
X142112601Y-138324500D01*
X142233536Y-138292095D01*
X142341964Y-138229495D01*
X142430495Y-138140964D01*
X142493095Y-138032536D01*
X142525500Y-137911601D01*
X142525500Y-137786399D01*
X142510547Y-137730594D01*
X142512209Y-137660745D01*
X142551370Y-137602882D01*
X142615599Y-137575377D01*
X142630321Y-137574500D01*
X149186679Y-137574500D01*
X149253718Y-137594185D01*
X149274360Y-137610819D01*
X149308036Y-137644495D01*
X149416464Y-137707095D01*
X149537399Y-137739500D01*
X149537401Y-137739500D01*
X149662599Y-137739500D01*
X149662601Y-137739500D01*
X149783536Y-137707095D01*
X149891964Y-137644495D01*
X149980495Y-137555964D01*
X150043095Y-137447536D01*
X150075500Y-137326601D01*
X150075500Y-137201399D01*
X150043095Y-137080464D01*
X149980495Y-136972036D01*
X149891964Y-136883505D01*
X149783536Y-136820905D01*
X149783537Y-136820905D01*
X149743224Y-136810103D01*
X149662601Y-136788500D01*
X149537399Y-136788500D01*
X149537398Y-136788500D01*
X149515854Y-136794273D01*
X149446004Y-136792610D01*
X149388142Y-136753447D01*
X149360638Y-136689219D01*
X149372225Y-136620317D01*
X149376374Y-136612498D01*
X149393095Y-136583536D01*
X149425500Y-136462601D01*
X149425500Y-136337399D01*
X149393095Y-136216464D01*
X149393091Y-136216457D01*
X149381569Y-136196499D01*
X149365096Y-136128599D01*
X149387949Y-136062572D01*
X149442870Y-136019382D01*
X149488956Y-136010500D01*
X149820024Y-136010500D01*
X149887063Y-136030185D01*
X149907705Y-136046819D01*
X151605386Y-137744500D01*
X153188706Y-139327819D01*
X153222191Y-139389142D01*
X153217207Y-139458834D01*
X153175335Y-139514767D01*
X153109871Y-139539184D01*
X153101025Y-139539500D01*
X145579975Y-139539500D01*
X145512936Y-139519815D01*
X145492294Y-139503181D01*
X144611819Y-138622705D01*
X144578334Y-138561382D01*
X144575500Y-138535024D01*
X144575500Y-138487400D01*
X144562665Y-138439500D01*
X144543095Y-138366464D01*
X144480495Y-138258036D01*
X144391964Y-138169505D01*
X144283536Y-138106905D01*
X144283537Y-138106905D01*
X144230691Y-138092745D01*
X144162601Y-138074500D01*
X144037399Y-138074500D01*
X143969309Y-138092745D01*
X143916463Y-138106905D01*
X143808037Y-138169504D01*
X143808034Y-138169506D01*
X143719506Y-138258034D01*
X143719504Y-138258037D01*
X143656905Y-138366463D01*
X143624500Y-138487400D01*
X143624500Y-138617261D01*
X143604815Y-138684300D01*
X143552011Y-138730055D01*
X143482853Y-138739999D01*
X143468411Y-138737037D01*
X143421623Y-138724500D01*
X143296421Y-138724500D01*
X143215797Y-138746103D01*
X143175485Y-138756905D01*
X143067059Y-138819504D01*
X143067056Y-138819506D01*
X142978528Y-138908034D01*
X142978526Y-138908037D01*
X142915927Y-139016463D01*
X142903774Y-139061819D01*
X142883522Y-139137399D01*
X142883522Y-139262601D01*
X142915927Y-139383536D01*
X142978527Y-139491964D01*
X143067058Y-139580495D01*
X143175486Y-139643095D01*
X143296421Y-139675500D01*
X143344046Y-139675500D01*
X143411085Y-139695185D01*
X143431727Y-139711819D01*
X143880409Y-140160500D01*
X144318371Y-140598462D01*
X144389173Y-140639340D01*
X144468144Y-140660500D01*
X144549901Y-140660500D01*
X181620024Y-140660500D01*
X181687063Y-140680185D01*
X181707705Y-140696819D01*
X182638181Y-141627295D01*
X182671666Y-141688618D01*
X182674500Y-141714976D01*
X182674500Y-141762601D01*
X182706905Y-141883536D01*
X182769505Y-141991964D01*
X182858036Y-142080495D01*
X182966464Y-142143095D01*
X183087399Y-142175500D01*
X183087401Y-142175500D01*
X183212599Y-142175500D01*
X183212601Y-142175500D01*
X183333536Y-142143095D01*
X183441964Y-142080495D01*
X183530495Y-141991964D01*
X183593095Y-141883536D01*
X183625500Y-141762601D01*
X183625500Y-141637399D01*
X183593095Y-141516464D01*
X183530495Y-141408036D01*
X183441964Y-141319505D01*
X183441963Y-141319504D01*
X183441960Y-141319502D01*
X183418667Y-141306054D01*
X183370451Y-141255487D01*
X183357229Y-141186880D01*
X183383197Y-141122015D01*
X183418667Y-141091279D01*
X183437348Y-141080495D01*
X183525879Y-140991964D01*
X183588479Y-140883536D01*
X183620884Y-140762601D01*
X183620884Y-140637399D01*
X183588479Y-140516464D01*
X183525879Y-140408036D01*
X183437348Y-140319505D01*
X183437347Y-140319504D01*
X183387878Y-140290944D01*
X183333600Y-140259606D01*
X183285385Y-140209041D01*
X183272161Y-140140434D01*
X183298129Y-140075569D01*
X183307903Y-140064555D01*
X183380495Y-139991964D01*
X183443095Y-139883536D01*
X183475500Y-139762601D01*
X183475500Y-139637399D01*
X183443095Y-139516464D01*
X183380495Y-139408036D01*
X183291964Y-139319505D01*
X183183536Y-139256905D01*
X183183537Y-139256905D01*
X183143224Y-139246103D01*
X183062601Y-139224500D01*
X183062599Y-139224500D01*
X183014976Y-139224500D01*
X182947937Y-139204815D01*
X182927295Y-139188181D01*
X182790653Y-139051539D01*
X182790648Y-139051535D01*
X182719851Y-139010661D01*
X182719850Y-139010660D01*
X182719849Y-139010660D01*
X182640879Y-138989500D01*
X182640878Y-138989500D01*
X182640877Y-138989500D01*
X182338976Y-138989500D01*
X182317730Y-138983261D01*
X182295642Y-138981682D01*
X182284858Y-138973609D01*
X182271937Y-138969815D01*
X182257437Y-138953081D01*
X182239709Y-138939810D01*
X182235001Y-138927189D01*
X182226182Y-138917011D01*
X182223030Y-138895093D01*
X182215292Y-138874346D01*
X182218154Y-138861185D01*
X182216238Y-138847853D01*
X182225437Y-138827709D01*
X182230144Y-138806073D01*
X182243412Y-138788347D01*
X182245263Y-138784297D01*
X182251295Y-138777819D01*
X182297295Y-138731819D01*
X182358618Y-138698334D01*
X182384976Y-138695500D01*
X182432599Y-138695500D01*
X182432601Y-138695500D01*
X182553536Y-138663095D01*
X182661964Y-138600495D01*
X182750495Y-138511964D01*
X182813095Y-138403536D01*
X182845500Y-138282601D01*
X182845500Y-138157399D01*
X182813095Y-138036464D01*
X182750495Y-137928036D01*
X182661964Y-137839505D01*
X182553536Y-137776905D01*
X182553537Y-137776905D01*
X182513224Y-137766103D01*
X182432601Y-137744500D01*
X182307399Y-137744500D01*
X182226775Y-137766103D01*
X182186463Y-137776905D01*
X182078037Y-137839504D01*
X182078034Y-137839506D01*
X181989506Y-137928034D01*
X181989504Y-137928037D01*
X181926905Y-138036463D01*
X181926905Y-138036464D01*
X181894633Y-138156905D01*
X181894500Y-138157400D01*
X181894500Y-138205024D01*
X181885855Y-138234464D01*
X181879332Y-138264451D01*
X181875577Y-138269466D01*
X181874815Y-138272063D01*
X181858181Y-138292705D01*
X181747705Y-138403181D01*
X181686382Y-138436666D01*
X181660024Y-138439500D01*
X154225360Y-138439500D01*
X154158321Y-138419815D01*
X154137679Y-138403181D01*
X150536037Y-134801539D01*
X150536032Y-134801535D01*
X150465235Y-134760661D01*
X150465234Y-134760660D01*
X150465233Y-134760660D01*
X150386263Y-134739500D01*
X150386262Y-134739500D01*
X150386261Y-134739500D01*
X147182321Y-134739500D01*
X147115282Y-134719815D01*
X147069527Y-134667011D01*
X147059583Y-134597853D01*
X147088608Y-134534297D01*
X147094640Y-134527819D01*
X147130495Y-134491964D01*
X147193095Y-134383536D01*
X147225500Y-134262601D01*
X147225500Y-134137399D01*
X147193095Y-134016464D01*
X147130495Y-133908036D01*
X147041964Y-133819505D01*
X146933536Y-133756905D01*
X146933537Y-133756905D01*
X146893224Y-133746103D01*
X146812601Y-133724500D01*
X146687399Y-133724500D01*
X146606775Y-133746103D01*
X146566463Y-133756905D01*
X146458037Y-133819504D01*
X146458034Y-133819506D01*
X146369506Y-133908034D01*
X146369504Y-133908037D01*
X146306905Y-134016463D01*
X146306905Y-134016464D01*
X146274500Y-134137399D01*
X146274500Y-134262601D01*
X146306905Y-134383536D01*
X146362890Y-134480507D01*
X146369504Y-134491962D01*
X146369506Y-134491965D01*
X146405360Y-134527819D01*
X146438845Y-134589142D01*
X146433861Y-134658834D01*
X146391989Y-134714767D01*
X146326525Y-134739184D01*
X146317679Y-134739500D01*
X144563321Y-134739500D01*
X144496282Y-134719815D01*
X144475640Y-134703181D01*
X144441965Y-134669506D01*
X144441964Y-134669505D01*
X144333536Y-134606905D01*
X144333537Y-134606905D01*
X144293224Y-134596103D01*
X144212601Y-134574500D01*
X144087399Y-134574500D01*
X144006775Y-134596103D01*
X143966463Y-134606905D01*
X143858037Y-134669504D01*
X143858034Y-134669506D01*
X143769506Y-134758034D01*
X143769504Y-134758037D01*
X143706905Y-134866463D01*
X143706905Y-134866464D01*
X143674500Y-134987399D01*
X143674500Y-135112601D01*
X143706905Y-135233536D01*
X143769504Y-135341962D01*
X143769506Y-135341965D01*
X143794247Y-135366706D01*
X143827732Y-135428029D01*
X143822748Y-135497721D01*
X143780876Y-135553654D01*
X143738661Y-135574162D01*
X143737400Y-135574500D01*
X143737399Y-135574500D01*
X143616464Y-135606905D01*
X143616462Y-135606905D01*
X143616462Y-135606906D01*
X143508037Y-135669504D01*
X143508034Y-135669506D01*
X143419506Y-135758034D01*
X143419504Y-135758037D01*
X143356905Y-135866463D01*
X143356905Y-135866464D01*
X143324500Y-135987399D01*
X143324500Y-136112601D01*
X143328787Y-136128599D01*
X143356905Y-136233537D01*
X143356908Y-136233542D01*
X143368431Y-136253501D01*
X143384904Y-136321401D01*
X143362051Y-136387428D01*
X143307130Y-136430618D01*
X143261044Y-136439500D01*
X138863321Y-136439500D01*
X138796282Y-136419815D01*
X138775640Y-136403181D01*
X138741965Y-136369506D01*
X138741964Y-136369505D01*
X138633536Y-136306905D01*
X138633537Y-136306905D01*
X138593224Y-136296103D01*
X138512601Y-136274500D01*
X138387399Y-136274500D01*
X138306775Y-136296103D01*
X138266463Y-136306905D01*
X138158037Y-136369504D01*
X138158034Y-136369506D01*
X138069506Y-136458034D01*
X138069504Y-136458037D01*
X138006905Y-136566463D01*
X138006905Y-136566464D01*
X137974500Y-136687399D01*
X137974500Y-136812601D01*
X138006905Y-136933536D01*
X138069505Y-137041964D01*
X138158036Y-137130495D01*
X138266464Y-137193095D01*
X138387399Y-137225500D01*
X138387401Y-137225500D01*
X138517891Y-137225500D01*
X138584930Y-137245185D01*
X138630685Y-137297989D01*
X138640629Y-137367147D01*
X138611604Y-137430703D01*
X138579890Y-137456888D01*
X138558036Y-137469504D01*
X138469506Y-137558034D01*
X138469504Y-137558037D01*
X138406905Y-137666463D01*
X138406905Y-137666464D01*
X138374500Y-137787399D01*
X138374500Y-137912601D01*
X138406905Y-138033536D01*
X138440540Y-138091795D01*
X138447299Y-138103501D01*
X138463771Y-138171401D01*
X138440918Y-138237428D01*
X138385996Y-138280618D01*
X138339911Y-138289500D01*
X131713321Y-138289500D01*
X131646282Y-138269815D01*
X131625640Y-138253181D01*
X131591965Y-138219506D01*
X131591964Y-138219505D01*
X131483536Y-138156905D01*
X131483537Y-138156905D01*
X131424044Y-138140964D01*
X131362601Y-138124500D01*
X131237399Y-138124500D01*
X131175956Y-138140964D01*
X131116463Y-138156905D01*
X131008037Y-138219504D01*
X131008034Y-138219506D01*
X130919506Y-138308034D01*
X130919504Y-138308037D01*
X130856905Y-138416463D01*
X130856905Y-138416464D01*
X130824500Y-138537399D01*
X93700000Y-138537399D01*
X93700000Y-133537399D01*
X147324500Y-133537399D01*
X147324500Y-133662601D01*
X147356905Y-133783536D01*
X147419505Y-133891964D01*
X147508036Y-133980495D01*
X147616464Y-134043095D01*
X147737399Y-134075500D01*
X147737401Y-134075500D01*
X147862599Y-134075500D01*
X147862601Y-134075500D01*
X147983536Y-134043095D01*
X148091964Y-133980495D01*
X148180495Y-133891964D01*
X148243095Y-133783536D01*
X148275500Y-133662601D01*
X148275500Y-133537399D01*
X148243095Y-133416464D01*
X148180495Y-133308036D01*
X148091964Y-133219505D01*
X147983536Y-133156905D01*
X147983537Y-133156905D01*
X147943224Y-133146103D01*
X147862601Y-133124500D01*
X147737399Y-133124500D01*
X147656775Y-133146103D01*
X147616463Y-133156905D01*
X147508037Y-133219504D01*
X147508034Y-133219506D01*
X147419506Y-133308034D01*
X147419504Y-133308037D01*
X147356905Y-133416463D01*
X147356905Y-133416464D01*
X147324500Y-133537399D01*
X93700000Y-133537399D01*
X93700000Y-124587399D01*
X137809500Y-124587399D01*
X137809500Y-124712601D01*
X137841905Y-124833536D01*
X137904505Y-124941964D01*
X137993036Y-125030495D01*
X138101464Y-125093095D01*
X138222399Y-125125500D01*
X138222401Y-125125500D01*
X138347600Y-125125500D01*
X138347601Y-125125500D01*
X138468536Y-125093095D01*
X138468538Y-125093093D01*
X138470627Y-125092534D01*
X138540477Y-125094196D01*
X138598340Y-125133357D01*
X138625845Y-125197585D01*
X138614259Y-125266488D01*
X138610110Y-125274306D01*
X138556907Y-125366459D01*
X138556905Y-125366462D01*
X138550157Y-125391647D01*
X138524500Y-125487399D01*
X138524500Y-125612601D01*
X138556905Y-125733536D01*
X138619505Y-125841964D01*
X138708036Y-125930495D01*
X138816464Y-125993095D01*
X138937399Y-126025500D01*
X138937401Y-126025500D01*
X139062599Y-126025500D01*
X139062601Y-126025500D01*
X139183536Y-125993095D01*
X139291964Y-125930495D01*
X139380495Y-125841964D01*
X139443095Y-125733536D01*
X139475500Y-125612601D01*
X139475500Y-125487399D01*
X139443095Y-125366464D01*
X139380495Y-125258036D01*
X139291964Y-125169505D01*
X139183536Y-125106905D01*
X139183537Y-125106905D01*
X139131997Y-125093095D01*
X139062601Y-125074500D01*
X138937399Y-125074500D01*
X138816464Y-125106905D01*
X138816463Y-125106905D01*
X138814371Y-125107466D01*
X138744521Y-125105803D01*
X138686658Y-125066641D01*
X138659154Y-125002412D01*
X138670740Y-124933510D01*
X138674890Y-124925692D01*
X138700480Y-124881366D01*
X138728095Y-124833536D01*
X138760500Y-124712601D01*
X138760500Y-124587399D01*
X138728095Y-124466464D01*
X138665495Y-124358036D01*
X138576964Y-124269505D01*
X138468536Y-124206905D01*
X138468537Y-124206905D01*
X138428224Y-124196103D01*
X138347601Y-124174500D01*
X138222399Y-124174500D01*
X138141775Y-124196103D01*
X138101463Y-124206905D01*
X137993037Y-124269504D01*
X137993034Y-124269506D01*
X137904506Y-124358034D01*
X137904504Y-124358037D01*
X137841905Y-124466463D01*
X137841905Y-124466464D01*
X137809500Y-124587399D01*
X93700000Y-124587399D01*
X93700000Y-120437399D01*
X131424500Y-120437399D01*
X131424500Y-120562601D01*
X131456905Y-120683536D01*
X131519505Y-120791964D01*
X131608036Y-120880495D01*
X131716464Y-120943095D01*
X131837399Y-120975500D01*
X131837401Y-120975500D01*
X131962599Y-120975500D01*
X131962601Y-120975500D01*
X132083536Y-120943095D01*
X132191964Y-120880495D01*
X132280495Y-120791964D01*
X132343095Y-120683536D01*
X132375500Y-120562601D01*
X132375500Y-120437399D01*
X132343095Y-120316464D01*
X132280495Y-120208036D01*
X132191964Y-120119505D01*
X132083536Y-120056905D01*
X132083537Y-120056905D01*
X132043224Y-120046103D01*
X131962601Y-120024500D01*
X131837399Y-120024500D01*
X131756775Y-120046103D01*
X131716463Y-120056905D01*
X131608037Y-120119504D01*
X131608034Y-120119506D01*
X131519506Y-120208034D01*
X131519504Y-120208037D01*
X131456905Y-120316463D01*
X131456905Y-120316464D01*
X131424500Y-120437399D01*
X93700000Y-120437399D01*
X93700000Y-117837399D01*
X122974500Y-117837399D01*
X122974500Y-117962601D01*
X123006905Y-118083536D01*
X123069505Y-118191964D01*
X123158036Y-118280495D01*
X123266464Y-118343095D01*
X123387399Y-118375500D01*
X123387401Y-118375500D01*
X123394517Y-118376437D01*
X123458413Y-118404703D01*
X123466013Y-118411695D01*
X123658788Y-118604470D01*
X123719462Y-118639500D01*
X123738712Y-118650614D01*
X123827856Y-118674500D01*
X123827857Y-118674500D01*
X123920144Y-118674500D01*
X149019947Y-118674500D01*
X149086986Y-118694185D01*
X149132741Y-118746989D01*
X149142685Y-118816147D01*
X149139721Y-118830595D01*
X149124500Y-118887396D01*
X149124500Y-118887399D01*
X149124500Y-119012601D01*
X149156905Y-119133536D01*
X149219505Y-119241964D01*
X149308036Y-119330495D01*
X149416464Y-119393095D01*
X149537399Y-119425500D01*
X149537401Y-119425500D01*
X149662599Y-119425500D01*
X149662601Y-119425500D01*
X149783536Y-119393095D01*
X149891964Y-119330495D01*
X149980495Y-119241964D01*
X150043095Y-119133536D01*
X150075500Y-119012601D01*
X150075500Y-118887399D01*
X150060279Y-118830594D01*
X150061941Y-118760745D01*
X150101102Y-118702882D01*
X150165331Y-118675377D01*
X150180053Y-118674500D01*
X165920500Y-118674500D01*
X165987539Y-118694185D01*
X166033294Y-118746989D01*
X166044500Y-118798500D01*
X166044500Y-126180500D01*
X166024815Y-126247539D01*
X165972011Y-126293294D01*
X165920500Y-126304500D01*
X159074000Y-126304500D01*
X159006961Y-126284815D01*
X158961206Y-126232011D01*
X158950000Y-126180500D01*
X158950000Y-122750000D01*
X151050000Y-122700000D01*
X151050000Y-125250000D01*
X151610371Y-125250000D01*
X151677410Y-125269685D01*
X151723165Y-125322489D01*
X151733109Y-125391647D01*
X151704084Y-125455203D01*
X151683255Y-125474319D01*
X151648282Y-125499727D01*
X151648282Y-125499728D01*
X152280591Y-126132037D01*
X152217007Y-126149075D01*
X152102993Y-126214901D01*
X152009901Y-126307993D01*
X151944075Y-126422007D01*
X151927037Y-126485591D01*
X151294728Y-125853282D01*
X151294727Y-125853282D01*
X151255380Y-125907439D01*
X151158904Y-126096782D01*
X151093242Y-126298869D01*
X151093242Y-126298872D01*
X151060000Y-126508753D01*
X151060000Y-126721246D01*
X151093242Y-126931127D01*
X151093242Y-126931130D01*
X151158904Y-127133217D01*
X151255375Y-127322550D01*
X151294728Y-127376716D01*
X151927037Y-126744408D01*
X151944075Y-126807993D01*
X152009901Y-126922007D01*
X152102993Y-127015099D01*
X152217007Y-127080925D01*
X152280589Y-127097962D01*
X151648282Y-127730269D01*
X151648282Y-127730270D01*
X151702449Y-127769624D01*
X151891782Y-127866095D01*
X151988649Y-127897569D01*
X152046324Y-127937006D01*
X152073523Y-128001365D01*
X152061609Y-128070211D01*
X152014365Y-128121687D01*
X151950331Y-128139500D01*
X150129975Y-128139500D01*
X150062936Y-128119815D01*
X150042294Y-128103181D01*
X148530676Y-126591562D01*
X147940653Y-126001539D01*
X147940648Y-126001535D01*
X147869851Y-125960661D01*
X147869850Y-125960660D01*
X147869849Y-125960660D01*
X147790879Y-125939500D01*
X147790878Y-125939500D01*
X147790877Y-125939500D01*
X146713321Y-125939500D01*
X146646282Y-125919815D01*
X146625640Y-125903181D01*
X146591965Y-125869506D01*
X146591964Y-125869505D01*
X146483536Y-125806905D01*
X146483537Y-125806905D01*
X146443224Y-125796103D01*
X146362601Y-125774500D01*
X146237399Y-125774500D01*
X146156775Y-125796103D01*
X146116463Y-125806905D01*
X146008037Y-125869504D01*
X146008034Y-125869506D01*
X145919506Y-125958034D01*
X145919504Y-125958037D01*
X145856905Y-126066463D01*
X145856905Y-126066464D01*
X145824500Y-126187399D01*
X145824500Y-126312601D01*
X145856905Y-126433536D01*
X145919505Y-126541964D01*
X146008036Y-126630495D01*
X146116464Y-126693095D01*
X146237399Y-126725500D01*
X146237401Y-126725500D01*
X146362599Y-126725500D01*
X146362601Y-126725500D01*
X146483536Y-126693095D01*
X146591964Y-126630495D01*
X146625640Y-126596819D01*
X146686963Y-126563334D01*
X146713321Y-126560500D01*
X147570024Y-126560500D01*
X147637063Y-126580185D01*
X147657705Y-126596819D01*
X149588706Y-128527819D01*
X149622191Y-128589142D01*
X149617207Y-128658834D01*
X149575335Y-128714767D01*
X149509871Y-128739184D01*
X149501025Y-128739500D01*
X141679976Y-128739500D01*
X141612937Y-128719815D01*
X141592295Y-128703181D01*
X140675319Y-127786205D01*
X140641834Y-127724882D01*
X140639000Y-127698524D01*
X140639000Y-127084821D01*
X140658685Y-127017782D01*
X140675319Y-126997140D01*
X140689998Y-126982461D01*
X140708995Y-126963464D01*
X140757708Y-126879089D01*
X141255499Y-126879089D01*
X141255499Y-127004291D01*
X141287904Y-127125226D01*
X141350504Y-127233654D01*
X141439035Y-127322185D01*
X141547463Y-127384785D01*
X141668398Y-127417190D01*
X141668400Y-127417190D01*
X141793598Y-127417190D01*
X141793600Y-127417190D01*
X141914535Y-127384785D01*
X142022963Y-127322185D01*
X142111494Y-127233654D01*
X142174094Y-127125226D01*
X142206499Y-127004291D01*
X142206499Y-126879089D01*
X142174094Y-126758154D01*
X142111494Y-126649726D01*
X142022963Y-126561195D01*
X141914535Y-126498595D01*
X141914536Y-126498595D01*
X141850949Y-126481557D01*
X141793600Y-126466190D01*
X141668398Y-126466190D01*
X141611049Y-126481557D01*
X141547462Y-126498595D01*
X141439036Y-126561194D01*
X141439033Y-126561196D01*
X141350505Y-126649724D01*
X141350503Y-126649727D01*
X141287904Y-126758153D01*
X141274549Y-126807993D01*
X141255499Y-126879089D01*
X140757708Y-126879089D01*
X140771595Y-126855036D01*
X140804000Y-126734101D01*
X140804000Y-126608899D01*
X140771595Y-126487964D01*
X140708995Y-126379536D01*
X140620464Y-126291005D01*
X140512036Y-126228405D01*
X140512037Y-126228405D01*
X140461639Y-126214901D01*
X140391101Y-126196000D01*
X140265899Y-126196000D01*
X140195361Y-126214901D01*
X140144963Y-126228405D01*
X140036537Y-126291004D01*
X140036534Y-126291006D01*
X139948006Y-126379534D01*
X139948004Y-126379537D01*
X139885405Y-126487963D01*
X139875239Y-126525904D01*
X139853000Y-126608899D01*
X139853000Y-126734101D01*
X139885405Y-126855036D01*
X139932556Y-126936706D01*
X139948004Y-126963462D01*
X139948006Y-126963465D01*
X139981681Y-126997140D01*
X140015166Y-127058463D01*
X140018000Y-127084821D01*
X140018000Y-127837621D01*
X140018000Y-127919379D01*
X140039160Y-127998349D01*
X140039161Y-127998350D01*
X140039161Y-127998351D01*
X140080035Y-128069148D01*
X140080039Y-128069153D01*
X141309343Y-129298458D01*
X141309347Y-129298461D01*
X141309348Y-129298462D01*
X141350226Y-129322062D01*
X141380152Y-129339340D01*
X141437961Y-129354829D01*
X141459121Y-129360500D01*
X141459122Y-129360500D01*
X144951025Y-129360500D01*
X145018064Y-129380185D01*
X145063819Y-129432989D01*
X145073763Y-129502147D01*
X145044738Y-129565703D01*
X145038706Y-129572181D01*
X144772705Y-129838181D01*
X144711382Y-129871666D01*
X144685024Y-129874500D01*
X144637399Y-129874500D01*
X144556775Y-129896103D01*
X144516463Y-129906905D01*
X144408037Y-129969504D01*
X144408034Y-129969506D01*
X144319506Y-130058034D01*
X144319504Y-130058037D01*
X144256905Y-130166463D01*
X144243155Y-130217778D01*
X144224500Y-130287399D01*
X144224500Y-130412601D01*
X144232671Y-130443094D01*
X144256905Y-130533536D01*
X144323569Y-130649003D01*
X144321862Y-130649988D01*
X144343202Y-130705173D01*
X144329169Y-130773619D01*
X144280359Y-130823613D01*
X144219633Y-130839500D01*
X135656128Y-130839500D01*
X135589089Y-130819815D01*
X135543334Y-130767011D01*
X135533390Y-130697853D01*
X135562415Y-130634297D01*
X135594129Y-130608112D01*
X135641964Y-130580495D01*
X135730495Y-130491964D01*
X135793095Y-130383536D01*
X135825500Y-130262601D01*
X135825500Y-130137399D01*
X135793095Y-130016464D01*
X135730495Y-129908036D01*
X135641964Y-129819505D01*
X135533536Y-129756905D01*
X135533537Y-129756905D01*
X135493224Y-129746103D01*
X135412601Y-129724500D01*
X135287399Y-129724500D01*
X135206775Y-129746103D01*
X135166463Y-129756905D01*
X135058037Y-129819504D01*
X135058034Y-129819506D01*
X134969506Y-129908034D01*
X134969500Y-129908042D01*
X134947152Y-129946750D01*
X134896585Y-129994965D01*
X134827978Y-130008187D01*
X134763113Y-129982219D01*
X134722585Y-129925304D01*
X134719998Y-129916867D01*
X134693095Y-129816464D01*
X134630495Y-129708036D01*
X134541964Y-129619505D01*
X134433536Y-129556905D01*
X134433537Y-129556905D01*
X134381997Y-129543095D01*
X134312601Y-129524500D01*
X134187399Y-129524500D01*
X134118003Y-129543095D01*
X134066463Y-129556905D01*
X133958037Y-129619504D01*
X133958034Y-129619506D01*
X133869506Y-129708034D01*
X133869500Y-129708042D01*
X133861250Y-129722331D01*
X133810681Y-129770544D01*
X133742074Y-129783764D01*
X133677210Y-129757793D01*
X133646478Y-129722325D01*
X133643095Y-129716466D01*
X133643095Y-129716464D01*
X133580495Y-129608036D01*
X133491964Y-129519505D01*
X133383536Y-129456905D01*
X133383537Y-129456905D01*
X133343224Y-129446103D01*
X133262601Y-129424500D01*
X133166924Y-129424500D01*
X133099885Y-129404815D01*
X133054130Y-129352011D01*
X133044186Y-129282853D01*
X133047149Y-129268406D01*
X133075500Y-129162601D01*
X133075500Y-129037399D01*
X133043095Y-128916464D01*
X132980495Y-128808036D01*
X132891964Y-128719505D01*
X132783536Y-128656905D01*
X132783537Y-128656905D01*
X132743224Y-128646103D01*
X132662601Y-128624500D01*
X132537399Y-128624500D01*
X132456775Y-128646103D01*
X132416463Y-128656905D01*
X132308037Y-128719504D01*
X132308034Y-128719506D01*
X132219506Y-128808034D01*
X132219504Y-128808037D01*
X132156905Y-128916463D01*
X132156905Y-128916464D01*
X132124500Y-129037399D01*
X132124500Y-129162601D01*
X132156905Y-129283536D01*
X132219505Y-129391964D01*
X132308036Y-129480495D01*
X132416464Y-129543095D01*
X132537399Y-129575500D01*
X132537401Y-129575500D01*
X132633076Y-129575500D01*
X132700115Y-129595185D01*
X132745870Y-129647989D01*
X132755814Y-129717147D01*
X132752851Y-129731591D01*
X132724500Y-129837399D01*
X132724500Y-129962601D01*
X132756905Y-130083536D01*
X132819505Y-130191964D01*
X132908036Y-130280495D01*
X133016464Y-130343095D01*
X133137399Y-130375500D01*
X133137401Y-130375500D01*
X133262599Y-130375500D01*
X133262601Y-130375500D01*
X133383536Y-130343095D01*
X133491964Y-130280495D01*
X133580495Y-130191964D01*
X133588745Y-130177673D01*
X133639312Y-130129458D01*
X133707919Y-130116234D01*
X133772784Y-130142202D01*
X133803521Y-130177674D01*
X133806904Y-130183534D01*
X133806905Y-130183536D01*
X133869505Y-130291964D01*
X133958036Y-130380495D01*
X134066464Y-130443095D01*
X134187399Y-130475500D01*
X134187401Y-130475500D01*
X134312599Y-130475500D01*
X134312601Y-130475500D01*
X134433536Y-130443095D01*
X134541964Y-130380495D01*
X134630495Y-130291964D01*
X134652845Y-130253251D01*
X134703411Y-130205035D01*
X134772018Y-130191811D01*
X134836883Y-130217778D01*
X134877412Y-130274692D01*
X134880006Y-130283150D01*
X134906905Y-130383536D01*
X134969505Y-130491964D01*
X135058036Y-130580495D01*
X135105871Y-130608112D01*
X135154087Y-130658679D01*
X135167311Y-130727286D01*
X135141343Y-130792151D01*
X135084429Y-130832680D01*
X135043872Y-130839500D01*
X133659122Y-130839500D01*
X133580150Y-130860660D01*
X133509349Y-130901538D01*
X133509346Y-130901540D01*
X133422706Y-130988181D01*
X133361383Y-131021666D01*
X133335025Y-131024500D01*
X133287399Y-131024500D01*
X133210259Y-131045170D01*
X133166463Y-131056905D01*
X133058037Y-131119504D01*
X133058034Y-131119506D01*
X132969506Y-131208034D01*
X132969504Y-131208037D01*
X132906905Y-131316463D01*
X132906905Y-131316464D01*
X132874500Y-131437399D01*
X132874500Y-131562601D01*
X132906905Y-131683536D01*
X132969505Y-131791964D01*
X133058036Y-131880495D01*
X133166464Y-131943095D01*
X133287399Y-131975500D01*
X133287401Y-131975500D01*
X133412599Y-131975500D01*
X133412601Y-131975500D01*
X133533536Y-131943095D01*
X133641964Y-131880495D01*
X133730495Y-131791964D01*
X133793095Y-131683536D01*
X133825500Y-131562601D01*
X133825500Y-131562599D01*
X133827603Y-131554751D01*
X133830412Y-131555503D01*
X133853024Y-131504407D01*
X133911353Y-131465943D01*
X133947687Y-131460500D01*
X149249006Y-131460500D01*
X149249006Y-131463424D01*
X149304131Y-131471996D01*
X149356407Y-131518353D01*
X149375322Y-131585614D01*
X149354870Y-131652424D01*
X149339011Y-131671874D01*
X149107705Y-131903181D01*
X149046382Y-131936666D01*
X149020024Y-131939500D01*
X145459122Y-131939500D01*
X145380150Y-131960660D01*
X145309349Y-132001538D01*
X145309346Y-132001540D01*
X145147706Y-132163181D01*
X145086383Y-132196666D01*
X145060025Y-132199500D01*
X145012399Y-132199500D01*
X144931775Y-132221103D01*
X144891463Y-132231905D01*
X144783037Y-132294504D01*
X144783034Y-132294506D01*
X144694506Y-132383034D01*
X144694504Y-132383037D01*
X144631905Y-132491463D01*
X144631905Y-132491464D01*
X144599500Y-132612399D01*
X144599500Y-132737601D01*
X144631905Y-132858536D01*
X144694505Y-132966964D01*
X144783036Y-133055495D01*
X144891464Y-133118095D01*
X145012399Y-133150500D01*
X145012401Y-133150500D01*
X145137599Y-133150500D01*
X145137601Y-133150500D01*
X145258536Y-133118095D01*
X145366964Y-133055495D01*
X145455495Y-132966964D01*
X145518095Y-132858536D01*
X145550500Y-132737601D01*
X145550500Y-132689975D01*
X145559144Y-132660534D01*
X145565668Y-132630548D01*
X145569422Y-132625532D01*
X145570185Y-132622936D01*
X145586819Y-132602294D01*
X145592294Y-132596819D01*
X145653617Y-132563334D01*
X145679975Y-132560500D01*
X149240876Y-132560500D01*
X149240879Y-132560500D01*
X149319849Y-132539340D01*
X149390652Y-132498462D01*
X150192295Y-131696819D01*
X150253618Y-131663334D01*
X150279976Y-131660500D01*
X166098051Y-131660500D01*
X166161207Y-131679044D01*
X166161505Y-131678513D01*
X166163835Y-131679816D01*
X166165090Y-131680185D01*
X166167428Y-131681826D01*
X166169245Y-131682842D01*
X166169246Y-131682843D01*
X166249063Y-131727490D01*
X166316102Y-131747175D01*
X166374000Y-131755500D01*
X166374004Y-131755500D01*
X169075991Y-131755500D01*
X169076000Y-131755500D01*
X169119684Y-131750803D01*
X169148875Y-131744452D01*
X169171174Y-131739602D01*
X169171190Y-131739598D01*
X169171195Y-131739597D01*
X169181373Y-131737110D01*
X169262085Y-131694100D01*
X169314889Y-131648345D01*
X169332843Y-131630754D01*
X169377490Y-131550937D01*
X169397175Y-131483898D01*
X169405500Y-131426000D01*
X169405500Y-118798500D01*
X169425185Y-118731461D01*
X169477989Y-118685706D01*
X169529500Y-118674500D01*
X171726000Y-118674500D01*
X171793039Y-118694185D01*
X171838794Y-118746989D01*
X171850000Y-118798500D01*
X171850000Y-119900000D01*
X179600000Y-119900000D01*
X179600000Y-117200000D01*
X171850000Y-117200000D01*
X171850000Y-117849500D01*
X171830315Y-117916539D01*
X171777511Y-117962294D01*
X171726000Y-117973500D01*
X169529500Y-117973500D01*
X169462461Y-117953815D01*
X169416706Y-117901011D01*
X169405500Y-117849500D01*
X169405500Y-105674008D01*
X169405499Y-105673992D01*
X169400803Y-105630316D01*
X169391467Y-105587399D01*
X169389602Y-105578825D01*
X169388789Y-105575500D01*
X169387110Y-105568627D01*
X169344100Y-105487915D01*
X169298345Y-105435111D01*
X169298339Y-105435104D01*
X169280757Y-105417160D01*
X169280756Y-105417159D01*
X169280754Y-105417157D01*
X169280752Y-105417156D01*
X169280750Y-105417154D01*
X169200940Y-105372511D01*
X169200935Y-105372509D01*
X169133903Y-105352826D01*
X169133899Y-105352825D01*
X169133898Y-105352825D01*
X169076000Y-105344500D01*
X166374000Y-105344500D01*
X166373992Y-105344500D01*
X166330313Y-105349197D01*
X166278825Y-105360397D01*
X166268627Y-105362890D01*
X166268624Y-105362891D01*
X166187916Y-105405899D01*
X166187913Y-105405901D01*
X166135104Y-105451660D01*
X166117160Y-105469242D01*
X166117154Y-105469249D01*
X166072511Y-105549059D01*
X166072509Y-105549064D01*
X166052826Y-105616096D01*
X166052825Y-105616101D01*
X166052825Y-105616102D01*
X166044502Y-105673992D01*
X166044500Y-105674003D01*
X166044500Y-106165500D01*
X166024815Y-106232539D01*
X165972011Y-106278294D01*
X165920500Y-106289500D01*
X139679975Y-106289500D01*
X139612936Y-106269815D01*
X139592294Y-106253181D01*
X139176513Y-105837400D01*
X138740652Y-105401538D01*
X138740651Y-105401537D01*
X138740648Y-105401535D01*
X138669851Y-105360661D01*
X138669850Y-105360660D01*
X138669849Y-105360660D01*
X138590879Y-105339500D01*
X138590878Y-105339500D01*
X138590877Y-105339500D01*
X131713321Y-105339500D01*
X131646282Y-105319815D01*
X131625640Y-105303181D01*
X131591965Y-105269506D01*
X131591964Y-105269505D01*
X131483536Y-105206905D01*
X131483537Y-105206905D01*
X131443224Y-105196103D01*
X131362601Y-105174500D01*
X131237399Y-105174500D01*
X131156775Y-105196103D01*
X131116463Y-105206905D01*
X131008037Y-105269504D01*
X131008034Y-105269506D01*
X130919506Y-105358034D01*
X130919504Y-105358037D01*
X130856905Y-105466463D01*
X130851157Y-105487915D01*
X130824500Y-105587399D01*
X130824500Y-105712601D01*
X130856905Y-105833536D01*
X130919505Y-105941964D01*
X131008036Y-106030495D01*
X131116464Y-106093095D01*
X131237399Y-106125500D01*
X131237401Y-106125500D01*
X131362599Y-106125500D01*
X131362601Y-106125500D01*
X131483536Y-106093095D01*
X131591964Y-106030495D01*
X131625640Y-105996819D01*
X131686963Y-105963334D01*
X131713321Y-105960500D01*
X138370024Y-105960500D01*
X138437063Y-105980185D01*
X138457705Y-105996819D01*
X139309349Y-106848462D01*
X139380151Y-106889340D01*
X139459122Y-106910500D01*
X141136274Y-106910500D01*
X141203313Y-106930185D01*
X141249068Y-106982989D01*
X141259012Y-107052147D01*
X141243661Y-107096500D01*
X141206906Y-107160161D01*
X141206905Y-107160162D01*
X141185301Y-107240787D01*
X141174500Y-107281099D01*
X141174500Y-107406301D01*
X141206905Y-107527236D01*
X141269505Y-107635664D01*
X141358036Y-107724195D01*
X141466464Y-107786795D01*
X141587399Y-107819200D01*
X141587401Y-107819200D01*
X141712599Y-107819200D01*
X141712601Y-107819200D01*
X141833536Y-107786795D01*
X141941964Y-107724195D01*
X142030495Y-107635664D01*
X142093095Y-107527236D01*
X142125500Y-107406301D01*
X142125500Y-107281099D01*
X142093095Y-107160164D01*
X142056338Y-107096499D01*
X142039866Y-107028599D01*
X142062719Y-106962573D01*
X142117640Y-106919382D01*
X142163726Y-106910500D01*
X165920500Y-106910500D01*
X165987539Y-106930185D01*
X166033294Y-106982989D01*
X166044500Y-107034500D01*
X166044500Y-110462700D01*
X166024815Y-110529739D01*
X165972011Y-110575494D01*
X165920500Y-110586700D01*
X151883910Y-110586700D01*
X151816871Y-110567015D01*
X151796229Y-110550381D01*
X151590186Y-110344338D01*
X151556701Y-110283015D01*
X151553867Y-110256657D01*
X151553867Y-110209033D01*
X151553867Y-110209032D01*
X151521462Y-110088097D01*
X151458862Y-109979669D01*
X151370331Y-109891138D01*
X151261903Y-109828538D01*
X151261904Y-109828538D01*
X151221591Y-109817736D01*
X151140968Y-109796133D01*
X151015766Y-109796133D01*
X150935142Y-109817736D01*
X150894830Y-109828538D01*
X150786404Y-109891137D01*
X150786401Y-109891139D01*
X150697873Y-109979667D01*
X150697871Y-109979670D01*
X150635272Y-110088096D01*
X150635272Y-110088097D01*
X150602867Y-110209032D01*
X150602867Y-110334234D01*
X150635272Y-110455169D01*
X150697872Y-110563597D01*
X150786403Y-110652128D01*
X150894831Y-110714728D01*
X151015766Y-110747133D01*
X151063391Y-110747133D01*
X151130430Y-110766818D01*
X151151072Y-110783452D01*
X151459438Y-111091819D01*
X151492923Y-111153142D01*
X151487939Y-111222834D01*
X151446067Y-111278767D01*
X151380603Y-111303184D01*
X151371757Y-111303500D01*
X131223118Y-111303500D01*
X131201958Y-111309170D01*
X131201957Y-111309169D01*
X131144150Y-111324660D01*
X131114227Y-111341935D01*
X131114228Y-111341936D01*
X131073348Y-111365538D01*
X131073345Y-111365540D01*
X130251539Y-112187346D01*
X130251535Y-112187351D01*
X130210659Y-112258152D01*
X130210658Y-112258152D01*
X130194130Y-112319844D01*
X130194129Y-112319849D01*
X130189500Y-112337122D01*
X130189500Y-112786679D01*
X130169815Y-112853718D01*
X130153181Y-112874360D01*
X130119506Y-112908034D01*
X130119504Y-112908037D01*
X130056905Y-113016463D01*
X130056905Y-113016464D01*
X130024500Y-113137399D01*
X130024500Y-113262601D01*
X130056905Y-113383536D01*
X130119505Y-113491964D01*
X130208036Y-113580495D01*
X130316464Y-113643095D01*
X130437399Y-113675500D01*
X130437401Y-113675500D01*
X130562599Y-113675500D01*
X130562601Y-113675500D01*
X130683536Y-113643095D01*
X130791964Y-113580495D01*
X130880495Y-113491964D01*
X130943095Y-113383536D01*
X130955458Y-113337399D01*
X140224500Y-113337399D01*
X140224500Y-113462601D01*
X140256905Y-113583536D01*
X140319505Y-113691964D01*
X140408036Y-113780495D01*
X140516464Y-113843095D01*
X140637399Y-113875500D01*
X140637401Y-113875500D01*
X140762599Y-113875500D01*
X140762601Y-113875500D01*
X140883536Y-113843095D01*
X140991964Y-113780495D01*
X141080495Y-113691964D01*
X141143095Y-113583536D01*
X141175500Y-113462601D01*
X141175500Y-113337399D01*
X141143095Y-113216464D01*
X141080495Y-113108036D01*
X140991964Y-113019505D01*
X140883536Y-112956905D01*
X140883537Y-112956905D01*
X140843224Y-112946103D01*
X140762601Y-112924500D01*
X140637399Y-112924500D01*
X140556775Y-112946103D01*
X140516463Y-112956905D01*
X140408037Y-113019504D01*
X140408034Y-113019506D01*
X140319506Y-113108034D01*
X140319504Y-113108037D01*
X140256905Y-113216463D01*
X140245062Y-113260661D01*
X140224500Y-113337399D01*
X130955458Y-113337399D01*
X130975500Y-113262601D01*
X130975500Y-113137399D01*
X130943095Y-113016464D01*
X130880495Y-112908036D01*
X130846819Y-112874360D01*
X130832115Y-112847432D01*
X130815523Y-112821614D01*
X130814631Y-112815413D01*
X130813334Y-112813037D01*
X130810500Y-112786679D01*
X130810500Y-112557976D01*
X130830185Y-112490937D01*
X130846819Y-112470295D01*
X131356295Y-111960819D01*
X131417618Y-111927334D01*
X131443976Y-111924500D01*
X159119947Y-111924500D01*
X159186986Y-111944185D01*
X159232741Y-111996989D01*
X159242685Y-112066147D01*
X159239721Y-112080595D01*
X159224500Y-112137396D01*
X159224500Y-112137399D01*
X159224500Y-112262601D01*
X159256905Y-112383536D01*
X159319505Y-112491964D01*
X159408036Y-112580495D01*
X159516464Y-112643095D01*
X159637399Y-112675500D01*
X159637401Y-112675500D01*
X159762599Y-112675500D01*
X159762601Y-112675500D01*
X159883536Y-112643095D01*
X159991964Y-112580495D01*
X160080495Y-112491964D01*
X160143095Y-112383536D01*
X160175500Y-112262601D01*
X160175500Y-112137399D01*
X160160279Y-112080594D01*
X160161941Y-112010745D01*
X160201102Y-111952882D01*
X160265331Y-111925377D01*
X160280053Y-111924500D01*
X165920500Y-111924500D01*
X165987539Y-111944185D01*
X166033294Y-111996989D01*
X166044500Y-112048500D01*
X166044500Y-113115500D01*
X166024815Y-113182539D01*
X165972011Y-113228294D01*
X165920500Y-113239500D01*
X151509122Y-113239500D01*
X151430152Y-113260660D01*
X151430150Y-113260661D01*
X151430149Y-113260661D01*
X151359352Y-113301535D01*
X151359347Y-113301539D01*
X151359348Y-113301539D01*
X150922705Y-113738181D01*
X150861382Y-113771666D01*
X150835024Y-113774500D01*
X150787399Y-113774500D01*
X150706775Y-113796103D01*
X150666463Y-113806905D01*
X150558037Y-113869504D01*
X150558034Y-113869506D01*
X150469506Y-113958034D01*
X150469504Y-113958037D01*
X150406905Y-114066463D01*
X150406905Y-114066464D01*
X150374500Y-114187399D01*
X150374500Y-114312601D01*
X150406905Y-114433536D01*
X150469505Y-114541964D01*
X150558036Y-114630495D01*
X150666464Y-114693095D01*
X150787399Y-114725500D01*
X150787401Y-114725500D01*
X150912599Y-114725500D01*
X150912601Y-114725500D01*
X151033536Y-114693095D01*
X151141964Y-114630495D01*
X151230495Y-114541964D01*
X151293095Y-114433536D01*
X151325500Y-114312601D01*
X151325500Y-114264975D01*
X151345185Y-114197936D01*
X151361819Y-114177294D01*
X151642294Y-113896819D01*
X151703617Y-113863334D01*
X151729975Y-113860500D01*
X165920500Y-113860500D01*
X165987539Y-113880185D01*
X166033294Y-113932989D01*
X166044500Y-113984500D01*
X166044500Y-117849500D01*
X166024815Y-117916539D01*
X165972011Y-117962294D01*
X165920500Y-117973500D01*
X124070544Y-117973500D01*
X124041103Y-117964855D01*
X124011117Y-117958332D01*
X124006101Y-117954577D01*
X124003505Y-117953815D01*
X123982863Y-117937181D01*
X123961695Y-117916013D01*
X123928210Y-117854690D01*
X123926437Y-117844517D01*
X123925500Y-117837401D01*
X123925500Y-117837400D01*
X123925500Y-117837399D01*
X123893095Y-117716464D01*
X123830495Y-117608036D01*
X123741964Y-117519505D01*
X123633536Y-117456905D01*
X123633537Y-117456905D01*
X123593224Y-117446103D01*
X123512601Y-117424500D01*
X123387399Y-117424500D01*
X123306775Y-117446103D01*
X123266463Y-117456905D01*
X123158037Y-117519504D01*
X123158034Y-117519506D01*
X123069506Y-117608034D01*
X123069504Y-117608037D01*
X123006905Y-117716463D01*
X123006905Y-117716464D01*
X122974500Y-117837399D01*
X93700000Y-117837399D01*
X93700000Y-113987399D01*
X120874500Y-113987399D01*
X120874500Y-114112601D01*
X120906905Y-114233536D01*
X120969505Y-114341964D01*
X121058036Y-114430495D01*
X121166464Y-114493095D01*
X121287399Y-114525500D01*
X121287401Y-114525500D01*
X121412599Y-114525500D01*
X121412601Y-114525500D01*
X121533536Y-114493095D01*
X121641964Y-114430495D01*
X121730495Y-114341964D01*
X121793095Y-114233536D01*
X121825500Y-114112601D01*
X121825500Y-113987399D01*
X121793095Y-113866464D01*
X121730495Y-113758036D01*
X121641964Y-113669505D01*
X121533536Y-113606905D01*
X121533537Y-113606905D01*
X121493224Y-113596103D01*
X121412601Y-113574500D01*
X121287399Y-113574500D01*
X121206775Y-113596103D01*
X121166463Y-113606905D01*
X121058037Y-113669504D01*
X121058034Y-113669506D01*
X120969506Y-113758034D01*
X120969504Y-113758037D01*
X120906905Y-113866463D01*
X120906905Y-113866464D01*
X120874500Y-113987399D01*
X93700000Y-113987399D01*
X93700000Y-105837399D01*
X122074500Y-105837399D01*
X122074500Y-105962601D01*
X122106905Y-106083536D01*
X122169505Y-106191964D01*
X122258036Y-106280495D01*
X122366464Y-106343095D01*
X122487399Y-106375500D01*
X122487401Y-106375500D01*
X122612599Y-106375500D01*
X122612601Y-106375500D01*
X122733536Y-106343095D01*
X122841964Y-106280495D01*
X122930495Y-106191964D01*
X122993095Y-106083536D01*
X123025500Y-105962601D01*
X123025500Y-105837399D01*
X122993095Y-105716464D01*
X122930495Y-105608036D01*
X122841964Y-105519505D01*
X122733536Y-105456905D01*
X122733537Y-105456905D01*
X122693224Y-105446103D01*
X122612601Y-105424500D01*
X122487399Y-105424500D01*
X122406775Y-105446103D01*
X122366463Y-105456905D01*
X122258037Y-105519504D01*
X122258034Y-105519506D01*
X122169506Y-105608034D01*
X122169504Y-105608037D01*
X122106905Y-105716463D01*
X122106905Y-105716464D01*
X122074500Y-105837399D01*
X93700000Y-105837399D01*
X93700000Y-105037399D01*
X148824500Y-105037399D01*
X148824500Y-105162601D01*
X148856905Y-105283536D01*
X148919505Y-105391964D01*
X149008036Y-105480495D01*
X149116464Y-105543095D01*
X149237399Y-105575500D01*
X149237401Y-105575500D01*
X149362599Y-105575500D01*
X149362601Y-105575500D01*
X149483536Y-105543095D01*
X149591964Y-105480495D01*
X149635060Y-105437399D01*
X159224500Y-105437399D01*
X159224500Y-105562601D01*
X159256905Y-105683536D01*
X159319505Y-105791964D01*
X159408036Y-105880495D01*
X159516464Y-105943095D01*
X159637399Y-105975500D01*
X159637401Y-105975500D01*
X159762599Y-105975500D01*
X159762601Y-105975500D01*
X159883536Y-105943095D01*
X159991964Y-105880495D01*
X160080495Y-105791964D01*
X160143095Y-105683536D01*
X160175500Y-105562601D01*
X160175500Y-105437399D01*
X160143095Y-105316464D01*
X160080495Y-105208036D01*
X159991964Y-105119505D01*
X159883536Y-105056905D01*
X159883537Y-105056905D01*
X159843224Y-105046103D01*
X159762601Y-105024500D01*
X159637399Y-105024500D01*
X159556775Y-105046103D01*
X159516463Y-105056905D01*
X159408037Y-105119504D01*
X159408034Y-105119506D01*
X159319506Y-105208034D01*
X159319504Y-105208037D01*
X159256905Y-105316463D01*
X159245062Y-105360661D01*
X159224500Y-105437399D01*
X149635060Y-105437399D01*
X149680495Y-105391964D01*
X149684854Y-105384413D01*
X149694752Y-105367271D01*
X149714703Y-105332712D01*
X149743095Y-105283536D01*
X149775500Y-105162601D01*
X149775500Y-105037399D01*
X149743095Y-104916464D01*
X149680495Y-104808036D01*
X149591964Y-104719505D01*
X149483536Y-104656905D01*
X149483537Y-104656905D01*
X149443224Y-104646103D01*
X149362601Y-104624500D01*
X149237399Y-104624500D01*
X149156775Y-104646103D01*
X149116463Y-104656905D01*
X149008037Y-104719504D01*
X149008034Y-104719506D01*
X148919506Y-104808034D01*
X148919504Y-104808037D01*
X148856905Y-104916463D01*
X148856905Y-104916464D01*
X148824500Y-105037399D01*
X93700000Y-105037399D01*
X93700000Y-103837399D01*
X132199500Y-103837399D01*
X132199500Y-103962601D01*
X132231905Y-104083536D01*
X132294505Y-104191964D01*
X132383036Y-104280495D01*
X132491464Y-104343095D01*
X132612399Y-104375500D01*
X132612401Y-104375500D01*
X132737599Y-104375500D01*
X132737601Y-104375500D01*
X132858536Y-104343095D01*
X132966964Y-104280495D01*
X133055495Y-104191964D01*
X133118095Y-104083536D01*
X133150500Y-103962601D01*
X133150500Y-103837399D01*
X133118095Y-103716464D01*
X133055495Y-103608036D01*
X132966964Y-103519505D01*
X132858536Y-103456905D01*
X132858537Y-103456905D01*
X132818224Y-103446103D01*
X132737601Y-103424500D01*
X132612399Y-103424500D01*
X132531775Y-103446103D01*
X132491463Y-103456905D01*
X132383037Y-103519504D01*
X132383034Y-103519506D01*
X132294506Y-103608034D01*
X132294504Y-103608037D01*
X132231905Y-103716463D01*
X132231905Y-103716464D01*
X132199500Y-103837399D01*
X93700000Y-103837399D01*
X93700000Y-88203330D01*
X126329500Y-88203330D01*
X126329500Y-88410269D01*
X126369868Y-88613212D01*
X126369870Y-88613220D01*
X126449058Y-88804396D01*
X126564024Y-88976457D01*
X126710342Y-89122775D01*
X126710345Y-89122777D01*
X126882402Y-89237741D01*
X127073580Y-89316930D01*
X127216202Y-89345299D01*
X127276530Y-89357299D01*
X127276534Y-89357300D01*
X127276535Y-89357300D01*
X127483466Y-89357300D01*
X127483467Y-89357299D01*
X127686420Y-89316930D01*
X127877598Y-89237741D01*
X128049655Y-89122777D01*
X128195977Y-88976455D01*
X128310941Y-88804398D01*
X128390130Y-88613220D01*
X128430500Y-88410265D01*
X128430500Y-88203335D01*
X128430499Y-88203330D01*
X128430499Y-88203327D01*
X128428113Y-88191330D01*
X154263500Y-88191330D01*
X154263500Y-88398269D01*
X154303868Y-88601212D01*
X154303870Y-88601220D01*
X154383058Y-88792396D01*
X154498024Y-88964457D01*
X154644342Y-89110775D01*
X154644345Y-89110777D01*
X154816402Y-89225741D01*
X155007580Y-89304930D01*
X155210530Y-89345299D01*
X155210534Y-89345300D01*
X155210535Y-89345300D01*
X155417466Y-89345300D01*
X155417467Y-89345299D01*
X155620420Y-89304930D01*
X155811598Y-89225741D01*
X155983655Y-89110777D01*
X156129977Y-88964455D01*
X156244941Y-88792398D01*
X156324130Y-88601220D01*
X156364500Y-88398265D01*
X156364500Y-88191335D01*
X156324130Y-87988380D01*
X156244941Y-87797202D01*
X156129977Y-87625145D01*
X156129975Y-87625142D01*
X155983657Y-87478824D01*
X155829556Y-87375858D01*
X155811598Y-87363859D01*
X155620420Y-87284670D01*
X155620412Y-87284668D01*
X155417469Y-87244300D01*
X155417465Y-87244300D01*
X155210535Y-87244300D01*
X155210530Y-87244300D01*
X155007587Y-87284668D01*
X155007579Y-87284670D01*
X154816403Y-87363858D01*
X154644342Y-87478824D01*
X154498024Y-87625142D01*
X154383058Y-87797203D01*
X154303870Y-87988379D01*
X154303868Y-87988387D01*
X154263500Y-88191330D01*
X128428113Y-88191330D01*
X128390131Y-88000387D01*
X128390130Y-88000380D01*
X128310941Y-87809202D01*
X128195977Y-87637145D01*
X128195975Y-87637142D01*
X128049657Y-87490824D01*
X127963626Y-87433341D01*
X127877598Y-87375859D01*
X127848625Y-87363858D01*
X127686420Y-87296670D01*
X127686412Y-87296668D01*
X127483469Y-87256300D01*
X127483465Y-87256300D01*
X127276535Y-87256300D01*
X127276530Y-87256300D01*
X127073587Y-87296668D01*
X127073579Y-87296670D01*
X126882403Y-87375858D01*
X126710342Y-87490824D01*
X126564024Y-87637142D01*
X126449058Y-87809203D01*
X126369870Y-88000379D01*
X126369868Y-88000387D01*
X126329500Y-88203330D01*
X93700000Y-88203330D01*
X93700000Y-84991803D01*
X115290681Y-84991803D01*
X115290681Y-85227908D01*
X115327615Y-85461103D01*
X115400578Y-85685658D01*
X115507768Y-85896030D01*
X115568019Y-85978960D01*
X115568021Y-85978961D01*
X116307718Y-85239264D01*
X116324756Y-85302849D01*
X116390582Y-85416863D01*
X116483674Y-85509955D01*
X116597688Y-85575781D01*
X116661271Y-85592818D01*
X115921574Y-86332514D01*
X116004509Y-86392770D01*
X116214878Y-86499958D01*
X116439433Y-86572921D01*
X116439432Y-86572921D01*
X116672629Y-86609856D01*
X116908733Y-86609856D01*
X117141928Y-86572921D01*
X117366483Y-86499958D01*
X117576844Y-86392774D01*
X117576850Y-86392770D01*
X117659785Y-86332514D01*
X117659786Y-86332514D01*
X116920089Y-85592818D01*
X116983674Y-85575781D01*
X117097688Y-85509955D01*
X117190780Y-85416863D01*
X117256606Y-85302849D01*
X117273643Y-85239265D01*
X118013339Y-85978961D01*
X118013339Y-85978960D01*
X118073595Y-85896025D01*
X118073599Y-85896019D01*
X118180783Y-85685658D01*
X118202467Y-85618925D01*
X118253746Y-85461103D01*
X118290681Y-85227908D01*
X118290681Y-84991803D01*
X118253746Y-84758608D01*
X118180783Y-84534053D01*
X118073595Y-84323684D01*
X118013339Y-84240750D01*
X118013339Y-84240749D01*
X117273643Y-84980446D01*
X117256606Y-84916863D01*
X117190780Y-84802849D01*
X117097688Y-84709757D01*
X116983674Y-84643931D01*
X116920090Y-84626893D01*
X117659786Y-83887196D01*
X117659785Y-83887194D01*
X117576855Y-83826943D01*
X117366483Y-83719753D01*
X117141928Y-83646790D01*
X117141929Y-83646790D01*
X116908733Y-83609856D01*
X116672629Y-83609856D01*
X116439433Y-83646790D01*
X116214878Y-83719753D01*
X116004511Y-83826940D01*
X115921575Y-83887196D01*
X116661272Y-84626893D01*
X116597688Y-84643931D01*
X116483674Y-84709757D01*
X116390582Y-84802849D01*
X116324756Y-84916863D01*
X116307718Y-84980446D01*
X115568021Y-84240750D01*
X115507765Y-84323686D01*
X115400578Y-84534053D01*
X115327615Y-84758608D01*
X115290681Y-84991803D01*
X93700000Y-84991803D01*
X93700000Y-83120553D01*
X126030000Y-83120553D01*
X126030000Y-83333046D01*
X126063242Y-83542927D01*
X126063242Y-83542930D01*
X126128904Y-83745017D01*
X126225375Y-83934350D01*
X126264728Y-83988516D01*
X126897037Y-83356208D01*
X126914075Y-83419793D01*
X126979901Y-83533807D01*
X127072993Y-83626899D01*
X127187007Y-83692725D01*
X127250590Y-83709762D01*
X126618282Y-84342069D01*
X126618282Y-84342070D01*
X126672449Y-84381424D01*
X126861782Y-84477895D01*
X127037973Y-84535143D01*
X127095648Y-84574580D01*
X127122847Y-84638939D01*
X127110932Y-84707785D01*
X127063688Y-84759261D01*
X127047108Y-84767635D01*
X126882403Y-84835857D01*
X126710342Y-84950824D01*
X126564024Y-85097142D01*
X126449058Y-85269203D01*
X126369870Y-85460379D01*
X126369868Y-85460387D01*
X126329500Y-85663330D01*
X126329500Y-85870269D01*
X126369868Y-86073212D01*
X126369870Y-86073220D01*
X126449058Y-86264396D01*
X126564024Y-86436457D01*
X126710342Y-86582775D01*
X126710345Y-86582777D01*
X126882402Y-86697741D01*
X127073580Y-86776930D01*
X127216202Y-86805299D01*
X127276530Y-86817299D01*
X127276534Y-86817300D01*
X127276535Y-86817300D01*
X127483466Y-86817300D01*
X127483467Y-86817299D01*
X127686420Y-86776930D01*
X127877598Y-86697741D01*
X128049655Y-86582777D01*
X128195977Y-86436455D01*
X128310941Y-86264398D01*
X128390130Y-86073220D01*
X128430500Y-85870265D01*
X128430500Y-85663335D01*
X128430499Y-85663330D01*
X128430499Y-85663327D01*
X128428113Y-85651330D01*
X154263500Y-85651330D01*
X154263500Y-85858269D01*
X154303868Y-86061212D01*
X154303870Y-86061220D01*
X154383058Y-86252396D01*
X154498024Y-86424457D01*
X154644342Y-86570775D01*
X154644345Y-86570777D01*
X154816402Y-86685741D01*
X155007580Y-86764930D01*
X155210530Y-86805299D01*
X155210534Y-86805300D01*
X155210535Y-86805300D01*
X155417466Y-86805300D01*
X155417467Y-86805299D01*
X155620420Y-86764930D01*
X155811598Y-86685741D01*
X155983655Y-86570777D01*
X156129977Y-86424455D01*
X156244941Y-86252398D01*
X156324130Y-86061220D01*
X156364500Y-85858265D01*
X156364500Y-85651335D01*
X156324130Y-85448380D01*
X156244941Y-85257202D01*
X156129977Y-85085145D01*
X156129975Y-85085142D01*
X155983657Y-84938824D01*
X155829554Y-84835857D01*
X155811598Y-84823859D01*
X155620420Y-84744670D01*
X155620412Y-84744668D01*
X155417469Y-84704300D01*
X155417465Y-84704300D01*
X155210535Y-84704300D01*
X155210530Y-84704300D01*
X155007587Y-84744668D01*
X155007579Y-84744670D01*
X154816403Y-84823858D01*
X154644342Y-84938824D01*
X154498024Y-85085142D01*
X154383058Y-85257203D01*
X154303870Y-85448379D01*
X154303868Y-85448387D01*
X154263500Y-85651330D01*
X128428113Y-85651330D01*
X128399991Y-85509955D01*
X128390130Y-85460380D01*
X128310941Y-85269202D01*
X128195977Y-85097145D01*
X128195975Y-85097142D01*
X128049657Y-84950824D01*
X127963626Y-84893341D01*
X127877598Y-84835859D01*
X127877593Y-84835857D01*
X127797905Y-84802849D01*
X127712890Y-84767634D01*
X127658488Y-84723794D01*
X127636423Y-84657500D01*
X127653702Y-84589801D01*
X127704839Y-84542190D01*
X127722026Y-84535143D01*
X127898217Y-84477895D01*
X128087554Y-84381422D01*
X128141716Y-84342070D01*
X128141717Y-84342070D01*
X127509408Y-83709762D01*
X127572993Y-83692725D01*
X127687007Y-83626899D01*
X127780099Y-83533807D01*
X127845925Y-83419793D01*
X127862962Y-83356208D01*
X128495270Y-83988517D01*
X128495270Y-83988516D01*
X128534622Y-83934354D01*
X128631095Y-83745017D01*
X128696757Y-83542930D01*
X128696757Y-83542927D01*
X128730000Y-83333046D01*
X128730000Y-83132199D01*
X149288500Y-83132199D01*
X149288500Y-83257401D01*
X149320905Y-83378336D01*
X149383505Y-83486764D01*
X149472036Y-83575295D01*
X149580464Y-83637895D01*
X149701399Y-83670300D01*
X149701401Y-83670300D01*
X149826599Y-83670300D01*
X149826601Y-83670300D01*
X149947536Y-83637895D01*
X150055964Y-83575295D01*
X150144495Y-83486764D01*
X150207095Y-83378336D01*
X150239500Y-83257401D01*
X150239500Y-83132199D01*
X150233908Y-83111330D01*
X154263500Y-83111330D01*
X154263500Y-83318269D01*
X154303868Y-83521212D01*
X154303870Y-83521220D01*
X154383059Y-83712398D01*
X154392682Y-83726800D01*
X154498024Y-83884457D01*
X154644342Y-84030775D01*
X154644345Y-84030777D01*
X154816402Y-84145741D01*
X155007580Y-84224930D01*
X155210530Y-84265299D01*
X155210534Y-84265300D01*
X155210535Y-84265300D01*
X155417466Y-84265300D01*
X155417467Y-84265299D01*
X155620420Y-84224930D01*
X155811598Y-84145741D01*
X155983655Y-84030777D01*
X156129977Y-83884455D01*
X156244941Y-83712398D01*
X156324130Y-83521220D01*
X156364500Y-83318265D01*
X156364500Y-83111335D01*
X156324130Y-82908380D01*
X156244941Y-82717202D01*
X156129977Y-82545145D01*
X156129975Y-82545142D01*
X155983657Y-82398824D01*
X155897626Y-82341341D01*
X155811598Y-82283859D01*
X155620420Y-82204670D01*
X155620412Y-82204668D01*
X155417469Y-82164300D01*
X155417465Y-82164300D01*
X155210535Y-82164300D01*
X155210530Y-82164300D01*
X155007587Y-82204668D01*
X155007579Y-82204670D01*
X154816403Y-82283858D01*
X154644342Y-82398824D01*
X154498024Y-82545142D01*
X154383058Y-82717203D01*
X154303870Y-82908379D01*
X154303868Y-82908387D01*
X154263500Y-83111330D01*
X150233908Y-83111330D01*
X150207095Y-83011264D01*
X150144495Y-82902836D01*
X150055964Y-82814305D01*
X149947536Y-82751705D01*
X149947537Y-82751705D01*
X149907224Y-82740903D01*
X149826601Y-82719300D01*
X149701399Y-82719300D01*
X149620775Y-82740903D01*
X149580463Y-82751705D01*
X149472037Y-82814304D01*
X149472034Y-82814306D01*
X149383506Y-82902834D01*
X149383504Y-82902837D01*
X149320905Y-83011263D01*
X149304702Y-83071731D01*
X149288500Y-83132199D01*
X128730000Y-83132199D01*
X128730000Y-83120553D01*
X128696757Y-82910672D01*
X128696757Y-82910669D01*
X128631095Y-82708582D01*
X128534624Y-82519249D01*
X128495270Y-82465082D01*
X128495269Y-82465082D01*
X127862962Y-83097390D01*
X127845925Y-83033807D01*
X127780099Y-82919793D01*
X127687007Y-82826701D01*
X127572993Y-82760875D01*
X127509409Y-82743837D01*
X128141716Y-82111528D01*
X128087550Y-82072175D01*
X127898216Y-81975704D01*
X127722026Y-81918456D01*
X127664350Y-81879018D01*
X127637152Y-81814660D01*
X127649067Y-81745813D01*
X127696311Y-81694338D01*
X127712882Y-81685968D01*
X127877598Y-81617741D01*
X128049655Y-81502777D01*
X128195977Y-81356455D01*
X128310941Y-81184398D01*
X128390130Y-80993220D01*
X128430500Y-80790265D01*
X128430500Y-80583335D01*
X128430499Y-80583330D01*
X128430499Y-80583327D01*
X128428113Y-80571330D01*
X154263500Y-80571330D01*
X154263500Y-80778269D01*
X154303868Y-80981212D01*
X154303870Y-80981220D01*
X154383058Y-81172396D01*
X154498024Y-81344457D01*
X154644342Y-81490775D01*
X154644345Y-81490777D01*
X154816402Y-81605741D01*
X155007580Y-81684930D01*
X155210530Y-81725299D01*
X155210534Y-81725300D01*
X155210535Y-81725300D01*
X155417466Y-81725300D01*
X155417467Y-81725299D01*
X155620420Y-81684930D01*
X155811598Y-81605741D01*
X155983655Y-81490777D01*
X156129977Y-81344455D01*
X156244941Y-81172398D01*
X156324130Y-80981220D01*
X156364500Y-80778265D01*
X156364500Y-80571335D01*
X156324130Y-80368380D01*
X156244941Y-80177202D01*
X156129977Y-80005145D01*
X156129975Y-80005142D01*
X155983657Y-79858824D01*
X155829556Y-79755858D01*
X155811598Y-79743859D01*
X155620420Y-79664670D01*
X155620412Y-79664668D01*
X155417469Y-79624300D01*
X155417465Y-79624300D01*
X155210535Y-79624300D01*
X155210530Y-79624300D01*
X155007587Y-79664668D01*
X155007579Y-79664670D01*
X154816403Y-79743858D01*
X154644342Y-79858824D01*
X154498024Y-80005142D01*
X154383058Y-80177203D01*
X154303870Y-80368379D01*
X154303868Y-80368387D01*
X154263500Y-80571330D01*
X128428113Y-80571330D01*
X128390131Y-80380387D01*
X128390130Y-80380380D01*
X128310941Y-80189202D01*
X128195977Y-80017145D01*
X128195975Y-80017142D01*
X128049657Y-79870824D01*
X127963626Y-79813341D01*
X127877598Y-79755859D01*
X127848625Y-79743858D01*
X127686420Y-79676670D01*
X127686412Y-79676668D01*
X127483469Y-79636300D01*
X127483465Y-79636300D01*
X127276535Y-79636300D01*
X127276530Y-79636300D01*
X127073587Y-79676668D01*
X127073579Y-79676670D01*
X126882403Y-79755858D01*
X126710342Y-79870824D01*
X126564024Y-80017142D01*
X126449058Y-80189203D01*
X126369870Y-80380379D01*
X126369868Y-80380387D01*
X126329500Y-80583330D01*
X126329500Y-80790269D01*
X126369868Y-80993212D01*
X126369870Y-80993220D01*
X126449058Y-81184396D01*
X126564024Y-81356457D01*
X126710342Y-81502775D01*
X126882405Y-81617743D01*
X126985043Y-81660256D01*
X127047108Y-81685964D01*
X127101511Y-81729805D01*
X127123576Y-81796099D01*
X127106297Y-81863798D01*
X127055160Y-81911409D01*
X127037974Y-81918456D01*
X126861781Y-81975705D01*
X126672439Y-82072180D01*
X126618282Y-82111527D01*
X126618282Y-82111528D01*
X127250591Y-82743837D01*
X127187007Y-82760875D01*
X127072993Y-82826701D01*
X126979901Y-82919793D01*
X126914075Y-83033807D01*
X126897037Y-83097391D01*
X126264728Y-82465082D01*
X126264727Y-82465082D01*
X126225380Y-82519239D01*
X126128904Y-82708582D01*
X126063242Y-82910669D01*
X126063242Y-82910672D01*
X126030000Y-83120553D01*
X93700000Y-83120553D01*
X93700000Y-78043330D01*
X126329500Y-78043330D01*
X126329500Y-78250269D01*
X126369868Y-78453212D01*
X126369870Y-78453220D01*
X126449058Y-78644396D01*
X126564024Y-78816457D01*
X126710342Y-78962775D01*
X126710345Y-78962777D01*
X126882402Y-79077741D01*
X127073580Y-79156930D01*
X127216202Y-79185299D01*
X127276530Y-79197299D01*
X127276534Y-79197300D01*
X127276535Y-79197300D01*
X127483466Y-79197300D01*
X127483467Y-79197299D01*
X127686420Y-79156930D01*
X127877598Y-79077741D01*
X128049655Y-78962777D01*
X128195977Y-78816455D01*
X128310941Y-78644398D01*
X128390130Y-78453220D01*
X128430500Y-78250265D01*
X128430500Y-78082199D01*
X150788500Y-78082199D01*
X150788500Y-78207401D01*
X150820905Y-78328336D01*
X150883505Y-78436764D01*
X150972036Y-78525295D01*
X151080464Y-78587895D01*
X151201399Y-78620300D01*
X151201401Y-78620300D01*
X151326599Y-78620300D01*
X151326601Y-78620300D01*
X151447536Y-78587895D01*
X151555964Y-78525295D01*
X151644495Y-78436764D01*
X151707095Y-78328336D01*
X151739500Y-78207401D01*
X151739500Y-78082199D01*
X151725869Y-78031330D01*
X154263500Y-78031330D01*
X154263500Y-78238269D01*
X154303868Y-78441212D01*
X154303870Y-78441220D01*
X154383058Y-78632396D01*
X154498024Y-78804457D01*
X154644342Y-78950775D01*
X154644345Y-78950777D01*
X154816402Y-79065741D01*
X155007580Y-79144930D01*
X155210530Y-79185299D01*
X155210534Y-79185300D01*
X155210535Y-79185300D01*
X155417466Y-79185300D01*
X155417467Y-79185299D01*
X155620420Y-79144930D01*
X155811598Y-79065741D01*
X155983655Y-78950777D01*
X156129977Y-78804455D01*
X156244941Y-78632398D01*
X156324130Y-78441220D01*
X156364500Y-78238265D01*
X156364500Y-78031335D01*
X156324130Y-77828380D01*
X156244941Y-77637202D01*
X156129977Y-77465145D01*
X156129975Y-77465142D01*
X155983657Y-77318824D01*
X155829556Y-77215858D01*
X155811598Y-77203859D01*
X155620420Y-77124670D01*
X155620412Y-77124668D01*
X155417469Y-77084300D01*
X155417465Y-77084300D01*
X155210535Y-77084300D01*
X155210530Y-77084300D01*
X155007587Y-77124668D01*
X155007579Y-77124670D01*
X154816403Y-77203858D01*
X154644342Y-77318824D01*
X154498024Y-77465142D01*
X154383058Y-77637203D01*
X154303870Y-77828379D01*
X154303868Y-77828387D01*
X154263500Y-78031330D01*
X151725869Y-78031330D01*
X151707095Y-77961264D01*
X151644495Y-77852836D01*
X151555964Y-77764305D01*
X151447536Y-77701705D01*
X151447537Y-77701705D01*
X151407224Y-77690903D01*
X151326601Y-77669300D01*
X151201399Y-77669300D01*
X151120775Y-77690903D01*
X151080463Y-77701705D01*
X150972037Y-77764304D01*
X150972034Y-77764306D01*
X150883506Y-77852834D01*
X150883504Y-77852837D01*
X150820905Y-77961263D01*
X150820905Y-77961264D01*
X150788500Y-78082199D01*
X128430500Y-78082199D01*
X128430500Y-78043335D01*
X128390130Y-77840380D01*
X128310941Y-77649202D01*
X128195977Y-77477145D01*
X128195975Y-77477142D01*
X128049657Y-77330824D01*
X127963626Y-77273341D01*
X127877598Y-77215859D01*
X127848625Y-77203858D01*
X127686420Y-77136670D01*
X127686412Y-77136668D01*
X127483469Y-77096300D01*
X127483465Y-77096300D01*
X127276535Y-77096300D01*
X127276530Y-77096300D01*
X127073587Y-77136668D01*
X127073579Y-77136670D01*
X126882403Y-77215858D01*
X126710342Y-77330824D01*
X126564024Y-77477142D01*
X126449058Y-77649203D01*
X126369870Y-77840379D01*
X126369868Y-77840387D01*
X126329500Y-78043330D01*
X93700000Y-78043330D01*
X93700000Y-75503330D01*
X126329500Y-75503330D01*
X126329500Y-75710269D01*
X126369868Y-75913212D01*
X126369870Y-75913220D01*
X126449058Y-76104396D01*
X126564024Y-76276457D01*
X126710342Y-76422775D01*
X126710345Y-76422777D01*
X126882402Y-76537741D01*
X127073580Y-76616930D01*
X127216202Y-76645299D01*
X127276530Y-76657299D01*
X127276534Y-76657300D01*
X127276535Y-76657300D01*
X127483466Y-76657300D01*
X127483467Y-76657299D01*
X127686420Y-76616930D01*
X127877598Y-76537741D01*
X128049655Y-76422777D01*
X128195977Y-76276455D01*
X128310941Y-76104398D01*
X128390130Y-75913220D01*
X128430500Y-75710265D01*
X128430500Y-75532199D01*
X152138500Y-75532199D01*
X152138500Y-75657401D01*
X152170905Y-75778336D01*
X152233505Y-75886764D01*
X152322036Y-75975295D01*
X152430464Y-76037895D01*
X152551399Y-76070300D01*
X152551401Y-76070300D01*
X152676599Y-76070300D01*
X152676601Y-76070300D01*
X152797536Y-76037895D01*
X152905964Y-75975295D01*
X152994495Y-75886764D01*
X153057095Y-75778336D01*
X153089500Y-75657401D01*
X153089500Y-75532199D01*
X153078549Y-75491330D01*
X154263500Y-75491330D01*
X154263500Y-75698269D01*
X154303868Y-75901212D01*
X154303870Y-75901220D01*
X154383058Y-76092396D01*
X154498024Y-76264457D01*
X154644342Y-76410775D01*
X154644345Y-76410777D01*
X154816402Y-76525741D01*
X155007580Y-76604930D01*
X155210530Y-76645299D01*
X155210534Y-76645300D01*
X155210535Y-76645300D01*
X155417466Y-76645300D01*
X155417467Y-76645299D01*
X155620420Y-76604930D01*
X155811598Y-76525741D01*
X155983655Y-76410777D01*
X156129977Y-76264455D01*
X156244941Y-76092398D01*
X156324130Y-75901220D01*
X156364500Y-75698265D01*
X156364500Y-75491335D01*
X156324130Y-75288380D01*
X156244941Y-75097202D01*
X156129977Y-74925145D01*
X156129975Y-74925142D01*
X155983657Y-74778824D01*
X155829556Y-74675858D01*
X155811598Y-74663859D01*
X155620420Y-74584670D01*
X155620412Y-74584668D01*
X155576272Y-74575888D01*
X155417469Y-74544300D01*
X155417465Y-74544300D01*
X155210535Y-74544300D01*
X155210530Y-74544300D01*
X155007587Y-74584668D01*
X155007579Y-74584670D01*
X154816403Y-74663858D01*
X154644342Y-74778824D01*
X154498024Y-74925142D01*
X154383058Y-75097203D01*
X154303870Y-75288379D01*
X154303868Y-75288387D01*
X154263500Y-75491330D01*
X153078549Y-75491330D01*
X153057095Y-75411264D01*
X152994495Y-75302836D01*
X152905964Y-75214305D01*
X152797536Y-75151705D01*
X152797537Y-75151705D01*
X152757224Y-75140903D01*
X152676601Y-75119300D01*
X152551399Y-75119300D01*
X152470775Y-75140903D01*
X152430463Y-75151705D01*
X152322037Y-75214304D01*
X152322034Y-75214306D01*
X152233506Y-75302834D01*
X152233504Y-75302837D01*
X152170905Y-75411263D01*
X152170905Y-75411264D01*
X152138500Y-75532199D01*
X128430500Y-75532199D01*
X128430500Y-75503335D01*
X128390130Y-75300380D01*
X128310941Y-75109202D01*
X128195977Y-74937145D01*
X128195975Y-74937142D01*
X128049657Y-74790824D01*
X127926503Y-74708536D01*
X127877598Y-74675859D01*
X127848625Y-74663858D01*
X127686420Y-74596670D01*
X127686412Y-74596668D01*
X127483469Y-74556300D01*
X127483465Y-74556300D01*
X127276535Y-74556300D01*
X127276530Y-74556300D01*
X127073587Y-74596668D01*
X127073579Y-74596670D01*
X126882403Y-74675858D01*
X126710342Y-74790824D01*
X126564024Y-74937142D01*
X126449058Y-75109203D01*
X126369870Y-75300379D01*
X126369868Y-75300387D01*
X126329500Y-75503330D01*
X93700000Y-75503330D01*
X93700000Y-74462399D01*
X181899500Y-74462399D01*
X181899500Y-74587601D01*
X181931905Y-74708536D01*
X181994505Y-74816964D01*
X182083036Y-74905495D01*
X182191464Y-74968095D01*
X182312399Y-75000500D01*
X182312401Y-75000500D01*
X182437599Y-75000500D01*
X182437601Y-75000500D01*
X182558536Y-74968095D01*
X182666964Y-74905495D01*
X182755495Y-74816964D01*
X182818095Y-74708536D01*
X182850500Y-74587601D01*
X182850500Y-74462399D01*
X182818095Y-74341464D01*
X182755495Y-74233036D01*
X182666964Y-74144505D01*
X182558536Y-74081905D01*
X182558537Y-74081905D01*
X182495189Y-74064931D01*
X182437601Y-74049500D01*
X182312399Y-74049500D01*
X182254811Y-74064931D01*
X182191463Y-74081905D01*
X182083037Y-74144504D01*
X182083034Y-74144506D01*
X181994506Y-74233034D01*
X181994504Y-74233037D01*
X181931905Y-74341463D01*
X181931905Y-74341464D01*
X181899500Y-74462399D01*
X93700000Y-74462399D01*
X93700000Y-72963330D01*
X126329500Y-72963330D01*
X126329500Y-73170269D01*
X126369868Y-73373212D01*
X126369870Y-73373220D01*
X126449058Y-73564396D01*
X126564024Y-73736457D01*
X126710342Y-73882775D01*
X126710345Y-73882777D01*
X126882402Y-73997741D01*
X127073580Y-74076930D01*
X127216202Y-74105299D01*
X127276530Y-74117299D01*
X127276534Y-74117300D01*
X127276535Y-74117300D01*
X127483466Y-74117300D01*
X127483467Y-74117299D01*
X127686420Y-74076930D01*
X127877598Y-73997741D01*
X128049655Y-73882777D01*
X128195977Y-73736455D01*
X128310941Y-73564398D01*
X128390130Y-73373220D01*
X128430500Y-73170265D01*
X128430500Y-72982199D01*
X149288500Y-72982199D01*
X149288500Y-73107401D01*
X149320905Y-73228336D01*
X149383505Y-73336764D01*
X149472036Y-73425295D01*
X149580464Y-73487895D01*
X149701399Y-73520300D01*
X149701401Y-73520300D01*
X149826599Y-73520300D01*
X149826601Y-73520300D01*
X149947536Y-73487895D01*
X150055964Y-73425295D01*
X150144495Y-73336764D01*
X150207095Y-73228336D01*
X150239500Y-73107401D01*
X150239500Y-72982199D01*
X150231229Y-72951330D01*
X154263500Y-72951330D01*
X154263500Y-73158269D01*
X154303868Y-73361212D01*
X154303870Y-73361220D01*
X154383058Y-73552396D01*
X154498024Y-73724457D01*
X154644342Y-73870775D01*
X154644345Y-73870777D01*
X154816402Y-73985741D01*
X155007580Y-74064930D01*
X155210530Y-74105299D01*
X155210534Y-74105300D01*
X155210535Y-74105300D01*
X155417466Y-74105300D01*
X155417467Y-74105299D01*
X155620420Y-74064930D01*
X155811598Y-73985741D01*
X155983655Y-73870777D01*
X156129977Y-73724455D01*
X156244941Y-73552398D01*
X156324130Y-73361220D01*
X156364500Y-73158265D01*
X156364500Y-72951335D01*
X156324130Y-72748380D01*
X156244941Y-72557202D01*
X156129977Y-72385145D01*
X156129975Y-72385142D01*
X155983657Y-72238824D01*
X155829556Y-72135858D01*
X155811598Y-72123859D01*
X155620420Y-72044670D01*
X155620412Y-72044668D01*
X155417469Y-72004300D01*
X155417465Y-72004300D01*
X155210535Y-72004300D01*
X155210530Y-72004300D01*
X155007587Y-72044668D01*
X155007579Y-72044670D01*
X154816403Y-72123858D01*
X154644342Y-72238824D01*
X154498024Y-72385142D01*
X154383058Y-72557203D01*
X154303870Y-72748379D01*
X154303868Y-72748387D01*
X154263500Y-72951330D01*
X150231229Y-72951330D01*
X150207095Y-72861264D01*
X150144495Y-72752836D01*
X150055964Y-72664305D01*
X149947536Y-72601705D01*
X149947537Y-72601705D01*
X149907224Y-72590903D01*
X149826601Y-72569300D01*
X149701399Y-72569300D01*
X149620775Y-72590903D01*
X149580463Y-72601705D01*
X149472037Y-72664304D01*
X149472034Y-72664306D01*
X149383506Y-72752834D01*
X149383504Y-72752837D01*
X149320905Y-72861263D01*
X149320905Y-72861264D01*
X149288500Y-72982199D01*
X128430500Y-72982199D01*
X128430500Y-72963335D01*
X128390130Y-72760380D01*
X128310941Y-72569202D01*
X128195977Y-72397145D01*
X128195975Y-72397142D01*
X128049657Y-72250824D01*
X127963626Y-72193341D01*
X127877598Y-72135859D01*
X127848625Y-72123858D01*
X127686420Y-72056670D01*
X127686412Y-72056668D01*
X127483469Y-72016300D01*
X127483465Y-72016300D01*
X127276535Y-72016300D01*
X127276530Y-72016300D01*
X127073587Y-72056668D01*
X127073579Y-72056670D01*
X126882403Y-72135858D01*
X126710342Y-72250824D01*
X126564024Y-72397142D01*
X126449058Y-72569203D01*
X126369870Y-72760379D01*
X126369868Y-72760387D01*
X126329500Y-72963330D01*
X93700000Y-72963330D01*
X93700000Y-70423330D01*
X126329500Y-70423330D01*
X126329500Y-70630269D01*
X126369868Y-70833212D01*
X126369870Y-70833220D01*
X126449058Y-71024396D01*
X126564024Y-71196457D01*
X126710342Y-71342775D01*
X126710345Y-71342777D01*
X126882402Y-71457741D01*
X127073580Y-71536930D01*
X127216202Y-71565299D01*
X127276530Y-71577299D01*
X127276534Y-71577300D01*
X127276535Y-71577300D01*
X127483466Y-71577300D01*
X127483467Y-71577299D01*
X127686420Y-71536930D01*
X127877598Y-71457741D01*
X128049655Y-71342777D01*
X128195977Y-71196455D01*
X128310941Y-71024398D01*
X128390130Y-70833220D01*
X128430500Y-70630265D01*
X128430500Y-70423335D01*
X128430499Y-70423330D01*
X128430499Y-70423327D01*
X128428113Y-70411330D01*
X154263500Y-70411330D01*
X154263500Y-70618269D01*
X154303868Y-70821212D01*
X154303870Y-70821220D01*
X154383058Y-71012396D01*
X154498024Y-71184457D01*
X154644342Y-71330775D01*
X154644345Y-71330777D01*
X154816402Y-71445741D01*
X155007580Y-71524930D01*
X155210530Y-71565299D01*
X155210534Y-71565300D01*
X155210535Y-71565300D01*
X155417466Y-71565300D01*
X155417467Y-71565299D01*
X155620420Y-71524930D01*
X155811598Y-71445741D01*
X155983655Y-71330777D01*
X156027033Y-71287399D01*
X181924500Y-71287399D01*
X181924500Y-71412601D01*
X181956905Y-71533536D01*
X182019505Y-71641964D01*
X182108036Y-71730495D01*
X182216464Y-71793095D01*
X182337399Y-71825500D01*
X182337401Y-71825500D01*
X182462599Y-71825500D01*
X182462601Y-71825500D01*
X182583536Y-71793095D01*
X182691964Y-71730495D01*
X182780495Y-71641964D01*
X182843095Y-71533536D01*
X182875500Y-71412601D01*
X182875500Y-71287399D01*
X182843095Y-71166464D01*
X182780495Y-71058036D01*
X182691964Y-70969505D01*
X182583536Y-70906905D01*
X182583537Y-70906905D01*
X182543224Y-70896103D01*
X182462601Y-70874500D01*
X182337399Y-70874500D01*
X182256775Y-70896103D01*
X182216463Y-70906905D01*
X182108037Y-70969504D01*
X182108034Y-70969506D01*
X182019506Y-71058034D01*
X182019504Y-71058037D01*
X181956905Y-71166463D01*
X181956905Y-71166464D01*
X181924500Y-71287399D01*
X156027033Y-71287399D01*
X156122843Y-71191590D01*
X156129974Y-71184458D01*
X156129975Y-71184457D01*
X156129977Y-71184455D01*
X156244941Y-71012398D01*
X156324130Y-70821220D01*
X156364500Y-70618265D01*
X156364500Y-70411335D01*
X156324130Y-70208380D01*
X156244941Y-70017202D01*
X156129977Y-69845145D01*
X156129975Y-69845142D01*
X155983657Y-69698824D01*
X155829556Y-69595858D01*
X155811598Y-69583859D01*
X155620420Y-69504670D01*
X155620412Y-69504668D01*
X155417469Y-69464300D01*
X155417465Y-69464300D01*
X155210535Y-69464300D01*
X155210530Y-69464300D01*
X155007587Y-69504668D01*
X155007579Y-69504670D01*
X154816403Y-69583858D01*
X154644342Y-69698824D01*
X154498024Y-69845142D01*
X154383058Y-70017203D01*
X154303870Y-70208379D01*
X154303868Y-70208387D01*
X154263500Y-70411330D01*
X128428113Y-70411330D01*
X128390131Y-70220387D01*
X128390130Y-70220380D01*
X128310941Y-70029202D01*
X128195977Y-69857145D01*
X128195975Y-69857142D01*
X128049657Y-69710824D01*
X127963626Y-69653341D01*
X127877598Y-69595859D01*
X127848625Y-69583858D01*
X127686420Y-69516670D01*
X127686412Y-69516668D01*
X127483469Y-69476300D01*
X127483465Y-69476300D01*
X127276535Y-69476300D01*
X127276530Y-69476300D01*
X127073587Y-69516668D01*
X127073579Y-69516670D01*
X126882403Y-69595858D01*
X126710342Y-69710824D01*
X126564024Y-69857142D01*
X126449058Y-70029203D01*
X126369870Y-70220379D01*
X126369868Y-70220387D01*
X126329500Y-70423330D01*
X93700000Y-70423330D01*
X93700000Y-67883330D01*
X126329500Y-67883330D01*
X126329500Y-68090269D01*
X126369868Y-68293212D01*
X126369870Y-68293220D01*
X126449058Y-68484396D01*
X126564024Y-68656457D01*
X126710342Y-68802775D01*
X126710345Y-68802777D01*
X126882402Y-68917741D01*
X127073580Y-68996930D01*
X127216202Y-69025299D01*
X127276530Y-69037299D01*
X127276534Y-69037300D01*
X127276535Y-69037300D01*
X127483466Y-69037300D01*
X127483467Y-69037299D01*
X127686420Y-68996930D01*
X127877598Y-68917741D01*
X128049655Y-68802777D01*
X128195977Y-68656455D01*
X128310941Y-68484398D01*
X128390130Y-68293220D01*
X128430500Y-68090265D01*
X128430500Y-67883335D01*
X128390130Y-67680380D01*
X128310941Y-67489202D01*
X128195977Y-67317145D01*
X128195975Y-67317142D01*
X128049657Y-67170824D01*
X127963626Y-67113341D01*
X127877598Y-67055859D01*
X127848625Y-67043858D01*
X127686420Y-66976670D01*
X127686412Y-66976668D01*
X127483469Y-66936300D01*
X127483465Y-66936300D01*
X127276535Y-66936300D01*
X127276530Y-66936300D01*
X127073587Y-66976668D01*
X127073579Y-66976670D01*
X126882403Y-67055858D01*
X126710342Y-67170824D01*
X126564024Y-67317142D01*
X126449058Y-67489203D01*
X126369870Y-67680379D01*
X126369868Y-67680387D01*
X126329500Y-67883330D01*
X93700000Y-67883330D01*
X93700000Y-65343330D01*
X126329500Y-65343330D01*
X126329500Y-65550269D01*
X126369868Y-65753212D01*
X126369870Y-65753220D01*
X126449058Y-65944396D01*
X126564024Y-66116457D01*
X126710342Y-66262775D01*
X126710345Y-66262777D01*
X126882402Y-66377741D01*
X127073580Y-66456930D01*
X127216202Y-66485299D01*
X127276530Y-66497299D01*
X127276534Y-66497300D01*
X127276535Y-66497300D01*
X127483466Y-66497300D01*
X127483467Y-66497299D01*
X127686420Y-66456930D01*
X127877598Y-66377741D01*
X128049655Y-66262777D01*
X128195977Y-66116455D01*
X128310941Y-65944398D01*
X128356733Y-65833846D01*
X128400574Y-65779444D01*
X128466868Y-65757379D01*
X128471294Y-65757300D01*
X130766824Y-65757300D01*
X130833863Y-65776985D01*
X130854505Y-65793619D01*
X133284149Y-68223262D01*
X133354951Y-68264140D01*
X133433922Y-68285300D01*
X154222706Y-68285300D01*
X154289745Y-68304985D01*
X154335500Y-68357789D01*
X154337267Y-68361847D01*
X154383058Y-68472396D01*
X154498024Y-68644457D01*
X154644342Y-68790775D01*
X154644345Y-68790777D01*
X154816402Y-68905741D01*
X155007580Y-68984930D01*
X155210530Y-69025299D01*
X155210534Y-69025300D01*
X155210535Y-69025300D01*
X155417466Y-69025300D01*
X155417467Y-69025299D01*
X155620420Y-68984930D01*
X155811598Y-68905741D01*
X155983655Y-68790777D01*
X156129977Y-68644455D01*
X156244941Y-68472398D01*
X156324130Y-68281220D01*
X156364500Y-68078265D01*
X156364500Y-67871335D01*
X156324130Y-67668380D01*
X156244941Y-67477202D01*
X156129977Y-67305145D01*
X156129975Y-67305142D01*
X156012232Y-67187399D01*
X181174500Y-67187399D01*
X181174500Y-67312601D01*
X181206905Y-67433536D01*
X181269505Y-67541964D01*
X181358036Y-67630495D01*
X181466464Y-67693095D01*
X181587399Y-67725500D01*
X181587401Y-67725500D01*
X181712599Y-67725500D01*
X181712601Y-67725500D01*
X181833536Y-67693095D01*
X181941964Y-67630495D01*
X182030495Y-67541964D01*
X182093095Y-67433536D01*
X182125500Y-67312601D01*
X182125500Y-67187399D01*
X182093095Y-67066464D01*
X182030495Y-66958036D01*
X181941964Y-66869505D01*
X181833536Y-66806905D01*
X181833537Y-66806905D01*
X181793224Y-66796103D01*
X181712601Y-66774500D01*
X181587399Y-66774500D01*
X181506775Y-66796103D01*
X181466463Y-66806905D01*
X181358037Y-66869504D01*
X181358034Y-66869506D01*
X181269506Y-66958034D01*
X181269504Y-66958037D01*
X181206905Y-67066463D01*
X181206905Y-67066464D01*
X181174500Y-67187399D01*
X156012232Y-67187399D01*
X155983657Y-67158824D01*
X155845429Y-67066464D01*
X155811598Y-67043859D01*
X155620420Y-66964670D01*
X155620412Y-66964668D01*
X155417469Y-66924300D01*
X155417465Y-66924300D01*
X155210535Y-66924300D01*
X155210530Y-66924300D01*
X155007587Y-66964668D01*
X155007579Y-66964670D01*
X154816403Y-67043858D01*
X154644342Y-67158824D01*
X154498024Y-67305142D01*
X154383058Y-67477203D01*
X154337267Y-67587753D01*
X154293426Y-67642156D01*
X154227132Y-67664221D01*
X154222706Y-67664300D01*
X133654775Y-67664300D01*
X133587736Y-67644615D01*
X133567094Y-67627981D01*
X131352038Y-65412924D01*
X131270444Y-65331330D01*
X154263500Y-65331330D01*
X154263500Y-65538269D01*
X154303868Y-65741212D01*
X154303870Y-65741220D01*
X154383058Y-65932396D01*
X154498024Y-66104457D01*
X154644342Y-66250775D01*
X154644345Y-66250777D01*
X154816402Y-66365741D01*
X155007580Y-66444930D01*
X155210530Y-66485299D01*
X155210534Y-66485300D01*
X155210535Y-66485300D01*
X155417466Y-66485300D01*
X155417467Y-66485299D01*
X155620420Y-66444930D01*
X155811598Y-66365741D01*
X155983655Y-66250777D01*
X156129977Y-66104455D01*
X156244941Y-65932398D01*
X156324130Y-65741220D01*
X156364500Y-65538265D01*
X156364500Y-65331335D01*
X156324130Y-65128380D01*
X156245023Y-64937399D01*
X181974500Y-64937399D01*
X181974500Y-65062601D01*
X182006905Y-65183536D01*
X182069505Y-65291964D01*
X182158036Y-65380495D01*
X182266464Y-65443095D01*
X182387399Y-65475500D01*
X182387401Y-65475500D01*
X182512599Y-65475500D01*
X182512601Y-65475500D01*
X182633536Y-65443095D01*
X182741964Y-65380495D01*
X182830495Y-65291964D01*
X182893095Y-65183536D01*
X182925500Y-65062601D01*
X182925500Y-64937399D01*
X182893095Y-64816464D01*
X182830495Y-64708036D01*
X182741964Y-64619505D01*
X182633536Y-64556905D01*
X182633537Y-64556905D01*
X182593224Y-64546103D01*
X182512601Y-64524500D01*
X182387399Y-64524500D01*
X182306775Y-64546103D01*
X182266463Y-64556905D01*
X182158037Y-64619504D01*
X182158034Y-64619506D01*
X182069506Y-64708034D01*
X182069504Y-64708037D01*
X182006905Y-64816463D01*
X182006905Y-64816464D01*
X181974500Y-64937399D01*
X156245023Y-64937399D01*
X156244941Y-64937202D01*
X156129977Y-64765145D01*
X156129975Y-64765142D01*
X155983657Y-64618824D01*
X155897626Y-64561341D01*
X155811598Y-64503859D01*
X155620420Y-64424670D01*
X155620412Y-64424668D01*
X155417469Y-64384300D01*
X155417465Y-64384300D01*
X155210535Y-64384300D01*
X155210530Y-64384300D01*
X155007587Y-64424668D01*
X155007579Y-64424670D01*
X154816403Y-64503858D01*
X154644342Y-64618824D01*
X154498024Y-64765142D01*
X154383058Y-64937203D01*
X154303870Y-65128379D01*
X154303868Y-65128387D01*
X154263500Y-65331330D01*
X131270444Y-65331330D01*
X131137453Y-65198339D01*
X131137448Y-65198335D01*
X131066651Y-65157461D01*
X131066650Y-65157460D01*
X131066649Y-65157460D01*
X130987679Y-65136300D01*
X130987678Y-65136300D01*
X130987677Y-65136300D01*
X128471294Y-65136300D01*
X128404255Y-65116615D01*
X128358500Y-65063811D01*
X128356733Y-65059753D01*
X128310941Y-64949203D01*
X128310941Y-64949202D01*
X128195977Y-64777145D01*
X128195975Y-64777142D01*
X128049657Y-64630824D01*
X127890530Y-64524500D01*
X127877598Y-64515859D01*
X127848625Y-64503858D01*
X127686420Y-64436670D01*
X127686412Y-64436668D01*
X127483469Y-64396300D01*
X127483465Y-64396300D01*
X127276535Y-64396300D01*
X127276530Y-64396300D01*
X127073587Y-64436668D01*
X127073579Y-64436670D01*
X126882403Y-64515858D01*
X126710342Y-64630824D01*
X126564024Y-64777142D01*
X126449058Y-64949203D01*
X126369870Y-65140379D01*
X126369868Y-65140387D01*
X126329500Y-65343330D01*
X93700000Y-65343330D01*
X93700000Y-62803330D01*
X126329500Y-62803330D01*
X126329500Y-63010269D01*
X126369868Y-63213212D01*
X126369870Y-63213220D01*
X126449058Y-63404396D01*
X126564024Y-63576457D01*
X126710342Y-63722775D01*
X126710345Y-63722777D01*
X126882402Y-63837741D01*
X127073580Y-63916930D01*
X127216202Y-63945299D01*
X127276530Y-63957299D01*
X127276534Y-63957300D01*
X127276535Y-63957300D01*
X127483466Y-63957300D01*
X127483467Y-63957299D01*
X127686420Y-63916930D01*
X127877598Y-63837741D01*
X128049655Y-63722777D01*
X128195977Y-63576455D01*
X128310941Y-63404398D01*
X128390130Y-63213220D01*
X128430500Y-63010265D01*
X128430500Y-62832199D01*
X133774500Y-62832199D01*
X133774500Y-62957401D01*
X133806905Y-63078336D01*
X133869505Y-63186764D01*
X133958036Y-63275295D01*
X134066464Y-63337895D01*
X134187399Y-63370300D01*
X134187401Y-63370300D01*
X134312599Y-63370300D01*
X134312601Y-63370300D01*
X134433536Y-63337895D01*
X134541964Y-63275295D01*
X134630495Y-63186764D01*
X134693095Y-63078336D01*
X134725500Y-62957401D01*
X134725500Y-62832199D01*
X134714549Y-62791330D01*
X154263500Y-62791330D01*
X154263500Y-62998269D01*
X154303868Y-63201212D01*
X154303870Y-63201220D01*
X154383058Y-63392396D01*
X154498024Y-63564457D01*
X154644342Y-63710775D01*
X154644345Y-63710777D01*
X154816402Y-63825741D01*
X155007580Y-63904930D01*
X155210530Y-63945299D01*
X155210534Y-63945300D01*
X155210535Y-63945300D01*
X155417466Y-63945300D01*
X155417467Y-63945299D01*
X155620420Y-63904930D01*
X155811598Y-63825741D01*
X155983655Y-63710777D01*
X156129977Y-63564455D01*
X156244941Y-63392398D01*
X156324130Y-63201220D01*
X156364500Y-62998265D01*
X156364500Y-62791335D01*
X156324130Y-62588380D01*
X156244941Y-62397202D01*
X156129977Y-62225145D01*
X156129975Y-62225142D01*
X155983657Y-62078824D01*
X155829556Y-61975858D01*
X155811598Y-61963859D01*
X155620420Y-61884670D01*
X155620412Y-61884668D01*
X155417469Y-61844300D01*
X155417465Y-61844300D01*
X155210535Y-61844300D01*
X155210530Y-61844300D01*
X155007587Y-61884668D01*
X155007579Y-61884670D01*
X154816403Y-61963858D01*
X154644342Y-62078824D01*
X154498024Y-62225142D01*
X154383058Y-62397203D01*
X154303870Y-62588379D01*
X154303868Y-62588387D01*
X154263500Y-62791330D01*
X134714549Y-62791330D01*
X134693095Y-62711264D01*
X134630495Y-62602836D01*
X134541964Y-62514305D01*
X134433536Y-62451705D01*
X134433537Y-62451705D01*
X134393224Y-62440903D01*
X134312601Y-62419300D01*
X134187399Y-62419300D01*
X134106775Y-62440903D01*
X134066463Y-62451705D01*
X133958037Y-62514304D01*
X133958034Y-62514306D01*
X133869506Y-62602834D01*
X133869504Y-62602837D01*
X133806905Y-62711263D01*
X133806905Y-62711264D01*
X133774500Y-62832199D01*
X128430500Y-62832199D01*
X128430500Y-62803335D01*
X128390130Y-62600380D01*
X128310941Y-62409202D01*
X128195977Y-62237145D01*
X128195975Y-62237142D01*
X128049657Y-62090824D01*
X127963626Y-62033341D01*
X127877598Y-61975859D01*
X127848625Y-61963858D01*
X127686420Y-61896670D01*
X127686412Y-61896668D01*
X127483469Y-61856300D01*
X127483465Y-61856300D01*
X127276535Y-61856300D01*
X127276530Y-61856300D01*
X127073587Y-61896668D01*
X127073579Y-61896670D01*
X126882403Y-61975858D01*
X126710342Y-62090824D01*
X126564024Y-62237142D01*
X126449058Y-62409203D01*
X126369870Y-62600379D01*
X126369868Y-62600387D01*
X126329500Y-62803330D01*
X93700000Y-62803330D01*
X93700000Y-60263330D01*
X126329500Y-60263330D01*
X126329500Y-60470269D01*
X126369868Y-60673212D01*
X126369870Y-60673220D01*
X126449058Y-60864396D01*
X126564024Y-61036457D01*
X126710342Y-61182775D01*
X126710345Y-61182777D01*
X126882402Y-61297741D01*
X127073580Y-61376930D01*
X127216202Y-61405299D01*
X127276530Y-61417299D01*
X127276534Y-61417300D01*
X127276535Y-61417300D01*
X127483466Y-61417300D01*
X127483467Y-61417299D01*
X127686420Y-61376930D01*
X127877598Y-61297741D01*
X128049655Y-61182777D01*
X128195977Y-61036455D01*
X128310941Y-60864398D01*
X128390130Y-60673220D01*
X128408235Y-60582199D01*
X134724500Y-60582199D01*
X134724500Y-60707401D01*
X134756905Y-60828336D01*
X134819505Y-60936764D01*
X134908036Y-61025295D01*
X135016464Y-61087895D01*
X135137399Y-61120300D01*
X135137401Y-61120300D01*
X135262599Y-61120300D01*
X135262601Y-61120300D01*
X135383536Y-61087895D01*
X135491964Y-61025295D01*
X135580495Y-60936764D01*
X135643095Y-60828336D01*
X135675500Y-60707401D01*
X135675500Y-60582199D01*
X135643095Y-60461264D01*
X135580495Y-60352836D01*
X135491964Y-60264305D01*
X135469490Y-60251330D01*
X154263500Y-60251330D01*
X154263500Y-60458269D01*
X154303868Y-60661212D01*
X154303870Y-60661220D01*
X154383058Y-60852396D01*
X154498024Y-61024457D01*
X154644342Y-61170775D01*
X154644345Y-61170777D01*
X154816402Y-61285741D01*
X155007580Y-61364930D01*
X155210530Y-61405299D01*
X155210534Y-61405300D01*
X155210535Y-61405300D01*
X155417466Y-61405300D01*
X155417467Y-61405299D01*
X155620420Y-61364930D01*
X155811598Y-61285741D01*
X155983655Y-61170777D01*
X156129977Y-61024455D01*
X156244941Y-60852398D01*
X156324130Y-60661220D01*
X156364500Y-60458265D01*
X156364500Y-60251335D01*
X156324130Y-60048380D01*
X156244941Y-59857202D01*
X156129977Y-59685145D01*
X156129975Y-59685142D01*
X155983657Y-59538824D01*
X155829556Y-59435858D01*
X155811598Y-59423859D01*
X155620420Y-59344670D01*
X155620412Y-59344668D01*
X155417469Y-59304300D01*
X155417465Y-59304300D01*
X155210535Y-59304300D01*
X155210530Y-59304300D01*
X155007587Y-59344668D01*
X155007579Y-59344670D01*
X154816403Y-59423858D01*
X154644342Y-59538824D01*
X154498024Y-59685142D01*
X154383058Y-59857203D01*
X154303870Y-60048379D01*
X154303868Y-60048387D01*
X154263500Y-60251330D01*
X135469490Y-60251330D01*
X135383536Y-60201705D01*
X135383537Y-60201705D01*
X135343224Y-60190903D01*
X135262601Y-60169300D01*
X135137399Y-60169300D01*
X135056775Y-60190903D01*
X135016463Y-60201705D01*
X134908037Y-60264304D01*
X134908034Y-60264306D01*
X134819506Y-60352834D01*
X134819504Y-60352837D01*
X134756905Y-60461263D01*
X134756905Y-60461264D01*
X134724500Y-60582199D01*
X128408235Y-60582199D01*
X128430500Y-60470265D01*
X128430500Y-60263335D01*
X128390130Y-60060380D01*
X128310941Y-59869202D01*
X128195977Y-59697145D01*
X128195975Y-59697142D01*
X128049657Y-59550824D01*
X127963626Y-59493341D01*
X127877598Y-59435859D01*
X127848625Y-59423858D01*
X127686420Y-59356670D01*
X127686412Y-59356668D01*
X127483469Y-59316300D01*
X127483465Y-59316300D01*
X127276535Y-59316300D01*
X127276530Y-59316300D01*
X127073587Y-59356668D01*
X127073579Y-59356670D01*
X126882403Y-59435858D01*
X126710342Y-59550824D01*
X126564024Y-59697142D01*
X126449058Y-59869203D01*
X126369870Y-60060379D01*
X126369868Y-60060387D01*
X126329500Y-60263330D01*
X93700000Y-60263330D01*
X93700000Y-57723330D01*
X126329500Y-57723330D01*
X126329500Y-57930269D01*
X126369868Y-58133212D01*
X126369870Y-58133220D01*
X126449058Y-58324396D01*
X126564024Y-58496457D01*
X126710342Y-58642775D01*
X126710345Y-58642777D01*
X126882402Y-58757741D01*
X127073580Y-58836930D01*
X127216202Y-58865299D01*
X127276530Y-58877299D01*
X127276534Y-58877300D01*
X127276535Y-58877300D01*
X127483466Y-58877300D01*
X127483467Y-58877299D01*
X127686420Y-58836930D01*
X127877598Y-58757741D01*
X128049655Y-58642777D01*
X128195977Y-58496455D01*
X128310941Y-58324398D01*
X128390130Y-58133220D01*
X128430500Y-57930265D01*
X128430500Y-57723335D01*
X128430499Y-57723330D01*
X128430499Y-57723327D01*
X128428113Y-57711330D01*
X154263500Y-57711330D01*
X154263500Y-57918269D01*
X154303868Y-58121212D01*
X154303870Y-58121220D01*
X154383058Y-58312396D01*
X154498024Y-58484457D01*
X154644342Y-58630775D01*
X154644345Y-58630777D01*
X154816402Y-58745741D01*
X155007580Y-58824930D01*
X155210530Y-58865299D01*
X155210534Y-58865300D01*
X155210535Y-58865300D01*
X155417466Y-58865300D01*
X155417467Y-58865299D01*
X155620420Y-58824930D01*
X155811598Y-58745741D01*
X155983655Y-58630777D01*
X156129977Y-58484455D01*
X156244941Y-58312398D01*
X156324130Y-58121220D01*
X156364500Y-57918265D01*
X156364500Y-57711335D01*
X156324130Y-57508380D01*
X156244941Y-57317202D01*
X156129977Y-57145145D01*
X156129975Y-57145142D01*
X155983657Y-56998824D01*
X155829556Y-56895858D01*
X155811598Y-56883859D01*
X155620420Y-56804670D01*
X155620412Y-56804668D01*
X155417469Y-56764300D01*
X155417465Y-56764300D01*
X155210535Y-56764300D01*
X155210530Y-56764300D01*
X155007587Y-56804668D01*
X155007579Y-56804670D01*
X154816403Y-56883858D01*
X154644342Y-56998824D01*
X154498024Y-57145142D01*
X154383058Y-57317203D01*
X154303870Y-57508379D01*
X154303868Y-57508387D01*
X154263500Y-57711330D01*
X128428113Y-57711330D01*
X128390131Y-57520387D01*
X128390130Y-57520380D01*
X128310941Y-57329202D01*
X128195977Y-57157145D01*
X128195975Y-57157142D01*
X128049657Y-57010824D01*
X127963626Y-56953341D01*
X127877598Y-56895859D01*
X127848625Y-56883858D01*
X127686420Y-56816670D01*
X127686412Y-56816668D01*
X127483469Y-56776300D01*
X127483465Y-56776300D01*
X127276535Y-56776300D01*
X127276530Y-56776300D01*
X127073587Y-56816668D01*
X127073579Y-56816670D01*
X126882403Y-56895858D01*
X126710342Y-57010824D01*
X126564024Y-57157142D01*
X126449058Y-57329203D01*
X126369870Y-57520379D01*
X126369868Y-57520387D01*
X126329500Y-57723330D01*
X93700000Y-57723330D01*
X93700000Y-55183330D01*
X126329500Y-55183330D01*
X126329500Y-55390269D01*
X126369868Y-55593212D01*
X126369870Y-55593220D01*
X126449058Y-55784396D01*
X126564024Y-55956457D01*
X126710342Y-56102775D01*
X126710345Y-56102777D01*
X126882402Y-56217741D01*
X127073580Y-56296930D01*
X127216202Y-56325299D01*
X127276530Y-56337299D01*
X127276534Y-56337300D01*
X127276535Y-56337300D01*
X127483466Y-56337300D01*
X127483467Y-56337299D01*
X127686420Y-56296930D01*
X127877598Y-56217741D01*
X128049655Y-56102777D01*
X128195977Y-55956455D01*
X128310941Y-55784398D01*
X128390130Y-55593220D01*
X128430500Y-55390265D01*
X128430500Y-55183335D01*
X128430499Y-55183330D01*
X128430499Y-55183327D01*
X128428113Y-55171330D01*
X154263500Y-55171330D01*
X154263500Y-55378269D01*
X154303868Y-55581212D01*
X154303870Y-55581220D01*
X154383058Y-55772396D01*
X154498024Y-55944457D01*
X154644342Y-56090775D01*
X154644345Y-56090777D01*
X154816402Y-56205741D01*
X155007580Y-56284930D01*
X155210530Y-56325299D01*
X155210534Y-56325300D01*
X155210535Y-56325300D01*
X155417466Y-56325300D01*
X155417467Y-56325299D01*
X155620420Y-56284930D01*
X155811598Y-56205741D01*
X155983655Y-56090777D01*
X156129977Y-55944455D01*
X156244941Y-55772398D01*
X156324130Y-55581220D01*
X156364500Y-55378265D01*
X156364500Y-55171335D01*
X156324130Y-54968380D01*
X156244941Y-54777202D01*
X156129977Y-54605145D01*
X156129975Y-54605142D01*
X155983657Y-54458824D01*
X155829556Y-54355858D01*
X155811598Y-54343859D01*
X155620420Y-54264670D01*
X155620412Y-54264668D01*
X155417469Y-54224300D01*
X155417465Y-54224300D01*
X155210535Y-54224300D01*
X155210530Y-54224300D01*
X155007587Y-54264668D01*
X155007579Y-54264670D01*
X154816403Y-54343858D01*
X154644342Y-54458824D01*
X154498024Y-54605142D01*
X154383058Y-54777203D01*
X154303870Y-54968379D01*
X154303868Y-54968387D01*
X154263500Y-55171330D01*
X128428113Y-55171330D01*
X128390131Y-54980387D01*
X128390130Y-54980380D01*
X128310941Y-54789202D01*
X128195977Y-54617145D01*
X128195975Y-54617142D01*
X128049657Y-54470824D01*
X127936015Y-54394892D01*
X127877598Y-54355859D01*
X127848625Y-54343858D01*
X127686420Y-54276670D01*
X127686412Y-54276668D01*
X127483469Y-54236300D01*
X127483465Y-54236300D01*
X127276535Y-54236300D01*
X127276530Y-54236300D01*
X127073587Y-54276668D01*
X127073579Y-54276670D01*
X126882403Y-54355858D01*
X126710342Y-54470824D01*
X126564024Y-54617142D01*
X126449058Y-54789203D01*
X126369870Y-54980379D01*
X126369868Y-54980387D01*
X126329500Y-55183330D01*
X93700000Y-55183330D01*
X93700000Y-52643330D01*
X126329500Y-52643330D01*
X126329500Y-52850269D01*
X126369868Y-53053212D01*
X126369870Y-53053220D01*
X126449058Y-53244396D01*
X126564024Y-53416457D01*
X126710342Y-53562775D01*
X126710345Y-53562777D01*
X126882402Y-53677741D01*
X127073580Y-53756930D01*
X127216202Y-53785299D01*
X127276530Y-53797299D01*
X127276534Y-53797300D01*
X127276535Y-53797300D01*
X127483466Y-53797300D01*
X127483467Y-53797299D01*
X127686420Y-53756930D01*
X127877598Y-53677741D01*
X128049655Y-53562777D01*
X128195977Y-53416455D01*
X128310941Y-53244398D01*
X128390130Y-53053220D01*
X128430500Y-52850265D01*
X128430500Y-52643335D01*
X128430499Y-52643330D01*
X128430499Y-52643327D01*
X128428113Y-52631330D01*
X154263500Y-52631330D01*
X154263500Y-52838269D01*
X154303868Y-53041212D01*
X154303870Y-53041220D01*
X154383058Y-53232396D01*
X154498024Y-53404457D01*
X154644342Y-53550775D01*
X154644345Y-53550777D01*
X154816402Y-53665741D01*
X155007580Y-53744930D01*
X155210530Y-53785299D01*
X155210534Y-53785300D01*
X155210535Y-53785300D01*
X155417466Y-53785300D01*
X155417467Y-53785299D01*
X155620420Y-53744930D01*
X155811598Y-53665741D01*
X155983655Y-53550777D01*
X156129977Y-53404455D01*
X156217380Y-53273646D01*
X164613500Y-53273646D01*
X164613500Y-53462619D01*
X164643059Y-53649251D01*
X164701454Y-53828969D01*
X164787240Y-53997332D01*
X164898310Y-54150206D01*
X165031927Y-54283823D01*
X165184801Y-54394893D01*
X165264347Y-54435423D01*
X165353163Y-54480678D01*
X165353165Y-54480678D01*
X165353168Y-54480680D01*
X165449497Y-54511979D01*
X165532881Y-54539073D01*
X165719514Y-54568633D01*
X165719519Y-54568633D01*
X165908486Y-54568633D01*
X166095118Y-54539073D01*
X166274832Y-54480680D01*
X166443199Y-54394893D01*
X166596073Y-54283823D01*
X166729690Y-54150206D01*
X166840760Y-53997332D01*
X166926547Y-53828965D01*
X166984940Y-53649251D01*
X166998636Y-53562777D01*
X167014500Y-53462619D01*
X167014500Y-53273646D01*
X166984940Y-53087014D01*
X166926545Y-52907296D01*
X166840759Y-52738933D01*
X166729690Y-52586060D01*
X166596073Y-52452443D01*
X166443199Y-52341373D01*
X166274836Y-52255587D01*
X166095118Y-52197192D01*
X165908486Y-52167633D01*
X165908481Y-52167633D01*
X165719519Y-52167633D01*
X165719514Y-52167633D01*
X165532881Y-52197192D01*
X165353163Y-52255587D01*
X165184800Y-52341373D01*
X165097579Y-52404743D01*
X165031927Y-52452443D01*
X165031925Y-52452445D01*
X165031924Y-52452445D01*
X164898312Y-52586057D01*
X164898312Y-52586058D01*
X164898310Y-52586060D01*
X164865416Y-52631335D01*
X164787240Y-52738933D01*
X164701454Y-52907296D01*
X164643059Y-53087014D01*
X164613500Y-53273646D01*
X156217380Y-53273646D01*
X156244941Y-53232398D01*
X156324130Y-53041220D01*
X156364500Y-52838265D01*
X156364500Y-52631335D01*
X156324130Y-52428380D01*
X156244941Y-52237202D01*
X156129977Y-52065145D01*
X156129975Y-52065142D01*
X155983657Y-51918824D01*
X155829556Y-51815858D01*
X155811598Y-51803859D01*
X155620420Y-51724670D01*
X155620412Y-51724668D01*
X155417469Y-51684300D01*
X155417465Y-51684300D01*
X155210535Y-51684300D01*
X155210530Y-51684300D01*
X155007587Y-51724668D01*
X155007579Y-51724670D01*
X154816403Y-51803858D01*
X154644342Y-51918824D01*
X154498024Y-52065142D01*
X154383058Y-52237203D01*
X154303870Y-52428379D01*
X154303868Y-52428387D01*
X154263500Y-52631330D01*
X128428113Y-52631330D01*
X128390131Y-52440387D01*
X128390130Y-52440380D01*
X128310941Y-52249202D01*
X128195977Y-52077145D01*
X128195975Y-52077142D01*
X128049657Y-51930824D01*
X127963626Y-51873341D01*
X127877598Y-51815859D01*
X127848625Y-51803858D01*
X127686420Y-51736670D01*
X127686412Y-51736668D01*
X127483469Y-51696300D01*
X127483465Y-51696300D01*
X127276535Y-51696300D01*
X127276530Y-51696300D01*
X127073587Y-51736668D01*
X127073579Y-51736670D01*
X126882403Y-51815858D01*
X126710342Y-51930824D01*
X126564024Y-52077142D01*
X126449058Y-52249203D01*
X126369870Y-52440379D01*
X126369868Y-52440387D01*
X126329500Y-52643330D01*
X93700000Y-52643330D01*
X93700000Y-49337047D01*
X126329500Y-49337047D01*
X126329500Y-51076552D01*
X126341131Y-51135029D01*
X126341132Y-51135030D01*
X126385447Y-51201352D01*
X126451769Y-51245667D01*
X126451770Y-51245668D01*
X126510247Y-51257299D01*
X126510250Y-51257300D01*
X126510252Y-51257300D01*
X128249750Y-51257300D01*
X128249751Y-51257299D01*
X128264568Y-51254352D01*
X128308229Y-51245668D01*
X128308229Y-51245667D01*
X128308231Y-51245667D01*
X128374552Y-51201352D01*
X128418867Y-51135031D01*
X128418867Y-51135029D01*
X128418868Y-51135029D01*
X128430499Y-51076552D01*
X128430500Y-51076550D01*
X128430500Y-49337054D01*
X128430498Y-49337042D01*
X128428112Y-49325047D01*
X154263500Y-49325047D01*
X154263500Y-51064552D01*
X154275131Y-51123029D01*
X154275132Y-51123030D01*
X154319447Y-51189352D01*
X154385769Y-51233667D01*
X154385770Y-51233668D01*
X154444247Y-51245299D01*
X154444250Y-51245300D01*
X154444252Y-51245300D01*
X156183750Y-51245300D01*
X156183751Y-51245299D01*
X156198568Y-51242352D01*
X156242229Y-51233668D01*
X156242229Y-51233667D01*
X156242231Y-51233667D01*
X156308552Y-51189352D01*
X156352867Y-51123031D01*
X156352867Y-51123029D01*
X156352868Y-51123029D01*
X156364499Y-51064552D01*
X156364500Y-51064550D01*
X156364500Y-49325049D01*
X156364499Y-49325047D01*
X156352868Y-49266570D01*
X156352867Y-49266569D01*
X156308552Y-49200247D01*
X156242230Y-49155932D01*
X156242229Y-49155931D01*
X156183752Y-49144300D01*
X156183748Y-49144300D01*
X154444252Y-49144300D01*
X154444247Y-49144300D01*
X154385770Y-49155931D01*
X154385769Y-49155932D01*
X154319447Y-49200247D01*
X154275132Y-49266569D01*
X154275131Y-49266570D01*
X154263500Y-49325047D01*
X128428112Y-49325047D01*
X128418868Y-49278570D01*
X128418867Y-49278569D01*
X128374552Y-49212247D01*
X128308230Y-49167932D01*
X128308229Y-49167931D01*
X128249752Y-49156300D01*
X128249748Y-49156300D01*
X126510252Y-49156300D01*
X126510247Y-49156300D01*
X126451770Y-49167931D01*
X126451769Y-49167932D01*
X126385447Y-49212247D01*
X126341132Y-49278569D01*
X126341131Y-49278570D01*
X126329500Y-49337047D01*
X93700000Y-49337047D01*
X93700000Y-42774000D01*
X93719685Y-42706961D01*
X93772489Y-42661206D01*
X93824000Y-42650000D01*
X191675409Y-42650000D01*
X191742448Y-42669685D01*
G37*
%TD.AperFunction*%
%TD*%
D18*
X197350000Y-38700000D02*
X197350000Y-149400000D01*
X85800000Y-151400000D02*
G75*
G02*
X83800000Y-149400000I0J2000000D01*
G01*
X85792517Y-36714214D02*
X195250000Y-36700000D01*
X195350000Y-151400000D02*
X85800000Y-151400000D01*
X195250000Y-36700000D02*
G75*
G02*
X197349980Y-38700000I97600J-2000000D01*
G01*
X83800000Y-149400000D02*
X83800000Y-38714214D01*
X197350000Y-149400000D02*
G75*
G02*
X195350000Y-151400000I-2000000J0D01*
G01*
X83800000Y-38714214D02*
G75*
G02*
X85800000Y-36714200I2000000J14D01*
G01*
M02*
